<svg xmlns="http://www.w3.org/2000/svg" fill="rgba(205, 134, 56, 0.15)" viewBox="0 0 100 100"><path  d="M90.4 18.2c0.9-0.1 1.7-0.3 2.6-0.2 0.4 0 0.8 0.1 1.2 0.2 0.5 0.1 1 0.2 1.5 0.2 0.1 0 0.3 0 0.4 0.1 0.3 0 0.6 0.1 0.8 0.2 0.4 0.2 0.9 0.4 1.3 0.5 0.5 0.2 1 0.4 1.5 0.5 0.1 0 0.2 0.1 0.2 0.1 0-0.1 0-0.2-0.1-0.3 -0.1-0.1-0.2-0.2-0.3-0.3 -0.4-0.4-0.8-0.8-1.2-1.2 -0.7-0.7-1.5-1.3-2.4-1.7 -0.5-0.3-1.1-0.5-1.6-0.7 -0.4-0.1-0.7-0.1-1.1-0.2 -0.5-0.1-1-0.1-1.5-0.2 -0.8 0-1.6-0.1-2.5 0.2 -0.6 0.2-1.2 0.2-1.8 0.3 -0.8 0.1-1.5 0.3-2.3 0.4 -0.8 0.1-1.5 0.3-2.3 0.3 -0.2 0-0.5 0-0.7 0 -0.2 0-0.4-0.1-0.4-0.4 0-0.3 0-0.7 0-1 0-0.1 0-0.1 0-0.2 0-0.5 0.1-1 0.3-1.5 0.3-0.6 0.6-1.2 1.1-1.7 0.2-0.3 0.5-0.5 0.8-0.8 0.3-0.3 0.6-0.6 0.9-0.9 0.3-0.3 0.5-0.5 0.8-0.7 0.5-0.4 0.9-0.9 1.3-1.4 0.5-0.5 0.9-1.1 1.3-1.7 0.3-0.5 0.6-1 0.9-1.4C89.5 4.5 89.9 3.2 90 3c0-0.2-0.1-0.8-0.1-0.9 -0.1 0.2-0.3 0.3-0.4 0.5 -0.2 0.4-0.6 0.7-0.9 1 -0.5 0.6-1.2 0.9-1.9 1.4 -0.6 0.4-1.3 0.8-1.8 1.3 -0.6 0.5-1.1 1-1.6 1.6C83 8.1 82.6 8.5 82.3 9c-0.2 0.3-0.4 0.6-0.6 0.9 -0.2 0.3-0.3 0.5-0.5 0.8 0-0.1-0.1-0.2 0-0.2 0-0.3 0.1-0.5 0.2-0.7 0.2-0.4 0.4-0.8 0.6-1.2 0.2-0.2 0.3-0.5 0.4-0.7 0.3-0.6 0.7-1.2 1.1-1.7 0.2-0.2 0.4-0.4 0.5-0.6 0.2-0.3 0.5-0.6 0.7-0.9 0.1-0.2 0.2-0.3 0.3-0.5 0.2-0.3 0.5-2.5 0.4-2.5 -0.1 0-0.1 0.1-0.2 0.2 -0.2 0.3-0.4 0.5-0.6 0.7 -0.5 0.5-1.1 0.8-1.7 1.2 -0.4 0.3-0.8 0.7-1.3 1 -0.1 0.1-0.2 0.2-0.3 0.3 -0.7 0.7-1.3 1.4-1.9 2.2 -0.6 0.8-0.9 1.6-1 2.6 -0.1 0.9-0.2 1.7-0.2 2.6 0 0.3 0.1 0.7 0.1 1 0 0.1 0 0.1 0 0.2 0 0 0 0-0.1 0 -0.2-0.2-0.5-0.3-0.7-0.5 -0.8-0.6-1.5-1.2-2.2-1.8 -0.4-0.4-0.8-0.7-1.2-1.1 -0.5-0.4-1-0.9-1.5-1.2 -0.4-0.3-0.8-0.6-1.2-0.9 -0.4-0.3-0.8-0.5-1.1-0.8 -0.6-0.4-1.2-0.8-1.8-1.2 -0.5-0.3-1-0.6-1.4-0.9 -0.7-0.5-1.5-0.8-2.2-1.2 -0.4-0.2-0.9-0.4-1.3-0.6 -0.6-0.3-1.3-0.5-1.9-0.8 -0.4-0.2-0.9-0.3-1.3-0.4 -0.7-0.2-1.4-0.3-2.1-0.4 -0.5-0.1-0.9-0.1-1.4-0.2 -0.4 0-0.8-0.1-1.2-0.1 -0.9-0.1-1.8-0.2-2.7-0.1 -0.4 0-0.9 0-1.3 0 -0.8 0-1.6 0.1-2.4 0.2 -0.2 0-0.4 0.1-0.6 0.1 -0.1 0-0.2 0-0.3 0 0 0-0.9 0.2-1.3 0.3 -0.4 0.1-0.8 0.2-1.2 0.3 -0.1 0-0.2 0.1-0.3 0.1 -0.1 0-0.2 0-0.2 0.1 -0.1 0-0.1 0-0.2 0.1C44.6 3 44 3.2 43.4 3.5c-0.3 0.1-0.7 0.3-1 0.4 -0.3 0.2-0.7 0.3-1 0.5 -0.2 0.1-0.4 0.2-0.6 0.3C40.1 5 39.5 5.3 39 5.6c-0.3 0.2-0.7 0.4-1 0.6 -0.7 0.5-1.4 1-2.1 1.5 -0.7 0.5-1.3 0.9-2 1.4 -0.4 0.3-0.7 0.6-1 0.9 -0.5 0.4-1 0.9-1.5 1.3 -0.3 0.2-0.5 0.5-0.8 0.8 -0.2 0.2-0.5 0.4-0.7 0.7 -0.4 0.4-0.8 0.8-1.2 1.2 -0.3 0.3-0.6 0.6-0.9 0.9 -0.5 0.5-1 1-1.4 1.5 -0.6 0.6-1.1 1.1-1.7 1.7 -0.8 0.8-1.6 1.5-2.4 2.3 -0.8 0.8-1.6 1.6-2.4 2.4 -0.4 0.4-0.7 0.7-1.1 1 -0.3 0.3-0.7 0.7-1 1 -0.3 0.3-0.5 0.5-0.8 0.8 0 0-0.1 0-0.1 0 0 0 0 0 0 0.1 -0.2 0.2-0.5 0.5-0.7 0.7 -0.7 0.7-1.5 1.4-2.2 2 -0.7 0.6-1.5 1.3-2.2 1.8 -0.9 0.7-1.8 1.3-2.8 1.8 -0.7 0.4-1.5 0.8-2.2 1.1 -0.4 0.2-0.9 0.4-1.3 0.6 -0.8 0.4-2.7 0.9-2.8 1 0 0-1.9 0.4-2.2 0.7C0 35.6 0 35.7 0 35.8c0.1 0.2 2.2 0.9 2.4 1 0.4 0.2 0.8 0.3 1.2 0.5 0.3 0.1 0.6 0.3 1 0.4 0.4 0.2 0.8 0.3 1.1 0.5 0.2 0.1 0.5 0.2 0.7 0.3C7 38.8 7.5 39 8 39.2c0.2 0.1 0.4 0.2 0.6 0.3 0.3 0.1 0.7 0.2 1 0.3 0.1 0 0.2 0.1 0.3 0.2 0.1 0 0.2 0.1 0.3 0.1 0.1 0 0.2 0.1 0.4 0.1 0.5 0.2 1.1 0.3 1.6 0.5 0.4 0.1 0.8 0.3 1.2 0.3 0.4 0.1 0.8 0.3 1.3 0.3 0.2 0 0.4 0.1 0.6 0.1 0.1 0 0.6 0.2 0.8 0.2 0.3 0.1 0.6 0.2 0.8 0.2 0.3 0.1 0.6 0.2 0.9 0.2 0.1 0 0.5 0.2 0.8 0.2 0.2 0 0.3 0.1 0.5 0.1 0.4 0.1 0.9 0.2 1.3 0.3 0.3 0.1 0.5 0.1 0.8 0.2 0.2 0 0.4 0.1 0.5 0.2 0.4 0.1 0.9 0.2 1.4 0.3 0.3 0.1 1.8 0.2 2 0.3 0.1 0 0.2 0.1 0.3 0.1 0.2 0 0.3 0 0.5 0.1 0.7 0.2 1.4 0.3 2.2 0.5 0.6 0.1 1.2 0.3 1.7 0.4 0.2 0.1 0.5 0.1 0.8 0.1 0.4 0.1 0.9 0.1 1.3 0.1 0.3 0 0.5 0 0.8 0 0.5 0 0.9 0 1.3 0 0.4 0 0.9 0 1.3 0 0.4 0 0.8 0 1.2 0 0.6 0 1.2-0.1 1.8-0.1 0.1 0 0.1 0 0.2 0 0.4 0 0.8 0 1.3-0.1 0.9-0.1 1.8-0.1 2.7-0.2 0.3 0 0.6-0.1 0.9-0.1 0.4 0 0.8-0.1 1.2-0.1 0.5-0.1 1.1-0.2 1.6-0.3 0.2 0 0.5 0 0.7-0.2 0.1 0 0.2 0 0.2 0 0.2 0 0.5-0.1 0.7-0.1 0.3-0.1 0.5-0.2 0.8-0.2 0 0 0.1 0 0.2 0 -0.1 0.1-0.2 0.3-0.2 0.3 -0.5 0.6-1.1 1.1-1.6 1.7 -0.4 0.5-0.8 1-1.2 1.6 -0.2 0.3-0.4 0.6-0.6 0.9 -0.3 0.6-0.7 1.2-1 1.8 -0.3 0.6-0.6 1.3-0.8 1.9 -0.2 0.5-0.3 0.9-0.5 1.4 -0.2 0.5-0.3 0.9-0.4 1.4 -0.2 0.8-0.4 1.7-0.6 2.5 -0.1 0.4-0.1 0.8-0.2 1.2 0 0.3-0.1 0.5-0.1 0.8 -0.1 0.6-0.2 1.2-0.2 1.8 -0.1 0.6-0.1 1.3 0 1.9 0 0.8 0 1.6 0.1 2.3 0 0.9 0.2 1.8 0.3 2.7 0.1 0.7 0.3 1.5 0.4 2.2 0.1 0.5 0.2 1 0.3 1.5 0.1 0.6 0.2 1.3 0.2 1.9 0.1 1 0.2 2 0.3 3.1 0.1 0.6 0.1 1.2 0.1 1.8 0.1 0.8 0.1 1.6 0.2 2.4 0 0.4 0 0.8-0.2 1.2 -0.2 0.6-0.3 1.3-0.5 1.9 -0.1 0.4-0.2 0.8-0.3 1.3 -0.1 0.3-0.2 0.6-0.3 1 -0.1 0.5-0.4 0.9-0.6 1.4 -0.5 0.9-0.9 1.7-1.3 2.6 -0.3 0.5-0.6 0.9-0.9 1.4 -0.2 0.3-0.4 0.6-0.6 1 -0.1 0.2-0.3 0.4-0.5 0.7 -0.3 0.4-0.6 0.8-0.9 1.2 -0.5 0.6-0.9 1.2-1.4 1.7 -0.4 0.1-0.7 0.3-1.1 0.5 -0.5 0.3-0.8 0.8-1.3 1.1 -0.3 0.2 0.5 0.5 0.8 0.3 0.6-0.4 1-1 1.6-1.3 0.7-0.3 1.3-0.5 2-0.8 0.8-0.4 1.5-0.8 2.3-1.2 0.9-0.3 1.9-0.6 2.8-0.9 0.6-0.2 1.2-0.5 1.8-0.8 0.3-0.1 0.7-0.2 1-0.3 1.4-0.4 2.6-1.1 3.9-1.7 2.2-1.1 4.6-1.8 6.9-2.7 2.3-1 4.4-2.2 6.6-3.5 1.1-0.7 2.2-1.3 3.2-2 0.9-0.6 1.7-1.3 2.5-2.1 0.6-0.4 1.2-1 1.9-1.4 1-0.7 1.8-1.5 2.7-2.3 0.4-0.3 0.9-0.7 1.2-1.1 0 0 0-0.1 0-0.1 0.4-0.4 0.8-0.7 1.2-1.1 0.5-0.5 0.8-1.1 1.2-1.6 0.1-0.1 0.1-0.2 0.2-0.3 0.1-0.1 0.2-0.2 0.2-0.3 0.6-0.7 1.2-1.5 1.7-2.2 0.3-0.4 0.6-0.8 0.8-1.3 0.3-0.4 0.5-0.8 0.8-1.2 0.3-0.5 0.6-1.1 0.8-1.6 0.2-0.5 0.4-1.1 0.6-1.7 0.1-0.4 0.2-0.8 0.3-1.2 0.1-0.3 0.2-0.6 0.3-0.8 0.2-0.4 0.4-0.9 0.5-1.3 0.3-0.9 0.6-1.8 0.8-2.8 0.1-0.7 0.2-1.4 0.3-2.1 0.1-0.8 0.2-1.6 0.2-2.5 0.1-1.1 0.1-2.2-0.1-3.3 -0.1-0.7-0.2-1.4-0.3-2.1 -0.1-0.6-0.2-1.1-0.4-1.7 -0.2-0.6-0.4-1.2-0.5-1.8 -0.1-0.6-0.3-1.2-0.6-1.8 -0.3-0.6-0.5-1.3-0.8-1.9 -0.4-0.9-0.8-1.7-1.2-2.6 -0.5-1.2-1-2.4-1.4-3.6 -0.3-0.7-0.5-1.4-0.7-2 -0.1-0.3-0.3-0.7-0.4-1 -0.2-0.6-0.4-1.3-0.6-1.9 -0.1-0.5-0.2-1-0.3-1.5 -0.1-0.5-0.1-1-0.2-1.5 -0.1-1-0.2-2-0.2-3 0-0.5 0.1-1 0.3-1.5 0.2-0.4 0.3-0.9 0.5-1.3 0.3-0.4 0.5-0.8 0.8-1.1 0.2-0.3 0.4-0.5 0.6-0.7 0.3-0.3 0.6-0.6 0.9-0.9 0.1-0.1 0.3-0.2 0.5-0.2 0.3-0.1 0.6-0.2 0.9-0.2 0.2 0 0.4 0 0.7 0.1 0.6 0.2 1.1 0.4 1.7 0.7 0.5 0.2 1.1 0.5 1.5 0.8 0.5 0.3 0.9 0.7 1.4 1 0.9 0.6 1.8 1.2 2.8 1.6 0.6 0.2 1.1 0.4 1.7 0.6 0.6 0.1 1.2 0.2 1.8 0.2 0.6 0.1 1.2 0.1 1.9 0.1 0.5 0 0.9 0 1.4 0 0.1 0 0.2 0 0.3 0 0.3 0.1 0.6 0.2 0.9 0.2 0.4 0.1 0.8 0.1 1.2 0.2 0.2 0 0.3 0 0.5-0.1 0.1-0.1 0.1-0.1 0.2-0.1 0 0 0 0 0.1 0 -0.7-0.2-1.3-0.6-1.9-1 -0.5-0.4-0.9-0.8-1.4-1.2 -0.1-0.1-0.2-0.2-0.3-0.3 -0.1 0-0.1-0.1-0.2-0.1 -0.4-0.3-0.7-0.6-1.2-0.8 -0.6-0.4-1.3-0.7-2-0.9 -0.9-0.3-1.7-0.4-2.7-0.6C90.3 18.3 90.3 18.2 90.4 18.2zM78.9 11.3c0.1-0.6 0.2-1.1 0.2-1.7 0.1-0.5 0.3-0.9 0.6-1.3 0-0.1 0.1-0.1 0.1-0.2 0 0 0.1-0.1 0.1-0.1C80 8 80 8 80 8c0 0 0 0.1 0 0.1 -0.1 0.7-0.3 1.5-0.3 2.2 0 0.7-0.1 1.3-0.1 2 0 0.2 0 0.3 0 0.5 0 0.5 0 1.1 0 1.6 0 0 0 0-0.1 0 -0.2-0.1-0.4-0.2-0.5-0.5C78.9 13.2 78.8 12.2 78.9 11.3zM77.6 15.4c0.5 0.2 0.9 0.4 1.4 0.6 0.1 0 0.2 0.1 0.3 0.2 0 0 0 0-0.1 0 -0.2 0-0.5-0.1-0.7-0.1 -0.5 0-0.9 0-1.4 0.1 -1 0.1-2 0.4-3 0.7 -1 0.3-1.9 0.7-2.8 1.2 -0.5 0.3-1 0.6-1.4 0.9 -0.2 0.1-0.5 0.3-0.7 0.4 0-0.1-0.1-0.1-0.1-0.2 0.4-0.2 0.6-0.4 0.9-0.7 0.4-0.5 0.8-0.9 1.3-1.3 0.9-0.7 2-1.3 3.1-1.7 0.6-0.2 1.2-0.3 1.9-0.3 0.4 0 0.7 0 1 0.1C77.4 15.3 77.5 15.3 77.6 15.4zM75.9 25c0 0.6 0.1 1.2 0.2 1.8 -0.5-0.5-1-0.9-1.4-1.5 0.2-0.6 0.5-1.2 0.8-1.8 0.1-0.2 0.2-0.4 0.4-0.6 0 0 0 0 0.1 0 0 0.1 0 0.2 0 0.4C75.9 24 75.9 24.5 75.9 25zM74.9 28.4c-0.3-0.3-0.5-0.5-0.8-0.8 0 0 0 0-0.1-0.1 0.1-0.4 0.2-0.8 0.3-1.3 0-0.1 0.1-0.3 0.1-0.4 0-0.1 0.1-0.2 0.1-0.3 0.5 0.5 1 1 1.5 1.5 0.1 0.7 0.2 1.3 0.3 2 0 0.2 0.1 0.4 0.1 0.6C76 29.4 75.4 28.9 74.9 28.4zM76.6 30.1c0.1 0.3 0.2 0.6 0.2 0.9 0 0.2 0.1 0.4 0.1 0.5 -0.6-0.1-1.2-0.3-1.8-0.7 -0.5-0.4-1-0.8-1.4-1.3 0-0.1 0-0.2 0-0.2 0-0.4 0-0.8 0.1-1.2 0-0.1 0-0.2 0.1-0.3 0.2 0.2 0.4 0.4 0.7 0.6C75.3 29 75.9 29.6 76.6 30.1zM74.9 22.1c-0.6 0.8-1 1.6-1.3 2.5 -0.3 0.1-0.6 0.3-0.8 0.4 -0.2 0.1-0.4 0.2-0.7 0.4 0.4-0.6 0.8-1.2 1.2-1.8 0.5-0.7 1-1.4 1.7-2 0.1-0.1 0.3-0.2 0.4-0.4 0 0 0 0 0.1 0C75.3 21.6 75.1 21.9 74.9 22.1zM72.8 25.3c0.2-0.1 0.4-0.2 0.7-0.3 0 0 0 0 0 0 0 0.1 0 0.1 0 0.2 -0.1 0.4-0.2 0.8-0.3 1.2 -0.2 0.2-0.6 0.4-0.9 0.6 -0.3 0.2-0.5 0.4-0.8 0.6 -0.4 0.3-0.9 0.7-1.3 0.9 0.3-0.5 0.5-0.9 0.8-1.4 0.3-0.4 0.5-0.8 0.8-1.2C72.1 25.6 72.4 25.4 72.8 25.3zM70.4 45.6c-1.1 0.4-2.1 0.9-3.2 1.2 -2.3 0.6-4.9 0.4-7.2 0.2 -1.2-0.1-2.4-0.3-3.5-0.6 -0.5-0.1-1-0.3-1.4-0.4 -0.8-0.3-1.7-0.7-2.5-0.9 -0.8-0.2-1.7-0.4-2.6-0.3 0 0 0 0 0.1-0.1 0.3-0.3 0.7-0.6 1-0.9 0.3-0.3 0.7-0.5 1-0.7 0.3-0.2 0.7-0.4 1.1-0.6 0.3-0.1 0.7-0.2 1-0.4 0.2-0.1 0.4-0.2 0.6-0.3 0.7 0.2 1.4 0.4 2 0.7 1 0.5 1.8 1.2 2.7 1.8 1.6 1.1 3.5 1.5 5.4 1.6 1.9 0.1 3.9-0.2 5.7-0.7 0.5-0.2 1.1-0.3 1.6-0.5 0 0.1-0.1 0.1-0.1 0.2C71.5 45.1 70.9 45.3 70.4 45.6zM71.4 45.5c-0.3 0.3-0.6 0.6-0.9 0.8 -1.7 1.2-3.8 2-5.9 2.2 -2.2 0.2-4.2-0.4-6.2-1.2 -0.6-0.3-1.2-0.5-1.9-0.8 1.9 0.5 3.9 0.7 5.9 0.8 1.1 0 2.3 0 3.4-0.1 1.1-0.1 2.2-0.4 3.3-0.9C69.9 46.1 70.7 45.9 71.4 45.5zM51.4 45.2c-0.7 0-1.4 0-2.1 0.1C49.9 45.1 50.7 45.1 51.4 45.2zM39.6 41c-0.6-0.2-1.2-0.4-1.7-0.6 -0.6-0.2-1.1-0.5-1.6-0.8 -0.2-0.1-0.4-0.2-0.6-0.3 0.3-0.5 0.5-1 0.8-1.5 0.1-0.2 0.2-0.4 0.3-0.6 0.2-0.3 0.4-0.7 0.5-1 2.2 0.7 4.5 1.4 6.9 1.4 1.1 0 2.3-0.1 3.4-0.5 0.5-0.2 0.9-0.4 1.4-0.6 -1.2 1.1-2.4 2.1-3.8 2.9 -1.4 0.8-2.9 1.3-4.4 1.8C40.3 41.2 40 41.1 39.6 41zM40.3 41.3c-0.6 0.2-1.2 0.3-1.9 0.5 -1.2 0.3-2.3 0.5-3.5 0.8 -0.7 0.2-1.4 0.4-2.1 0.5 0.2-0.2 0.4-0.3 0.5-0.5 0.3-0.3 0.5-0.6 0.7-0.9 0.2-0.3 0.4-0.6 0.6-0.8 0 0 0.1-0.1 0.1-0.1 0.2-0.3 0.3-0.6 0.5-0.8 0.1-0.2 0.2-0.3 0.2-0.5 0.2 0.1 0.5 0.2 0.6 0.3 0.3 0.1 0.5 0.3 0.8 0.4 0.6 0.3 1.2 0.5 1.8 0.7C39.3 41.1 39.8 41.2 40.3 41.3zM48.6 36.5c-0.5 0.2-1 0.4-1.6 0.6 -1.1 0.3-2.2 0.4-3.3 0.4 -2.3 0-4.4-0.7-6.5-1.4 0.2-0.4 0.3-0.8 0.5-1.2 1 0.2 2 0.5 3 0.5 1.1 0 2.1-0.1 3.2-0.3 2-0.5 3.7-1.4 5.3-2.7 0 0 0 0 0 0 0.5-0.5 1.3-0.6 1.9-0.9 0.6-0.3 1.2-0.7 1.8-1.1 0.6-0.4 1.2-0.8 1.7-1.3 0.1-0.1 0.2-0.2 0.4-0.3 -1.1 2.1-2.5 4-4.2 5.8 -0.5 0.5-1 1.1-1.5 1.6C49.1 36.3 48.9 36.4 48.6 36.5zM19.6 38.1c0.9-0.8 1.8-1.6 2.7-2.5 0.8-0.9 1.6-1.9 2.5-2.7 0.4-0.4 0.8-1 1.1-1.5 0.3-0.5 0.6-1 0.9-1.5 0.6-1 1.3-1.9 1.6-3 0.4-1.2 1.1-2.3 1.9-3.4 0.8-1 1.7-1.8 2.7-2.6 0.2-0.2 0.4-0.3 0.6-0.5 0.2-0.1 0.3-0.2 0.5-0.3 0.1 0 0.1-0.1 0.2-0.1 0 0 0.1 0 0.1 0 0 0 0 0 0 0 0 0 0 0 0 0 0 0 0 0 0 0 -0.2 0.3-0.4 0.5-0.7 0.8 -0.4 0.4-0.8 0.9-1 1.4 -0.2 0.6-0.3 1.1-0.4 1.7 -0.1 0.7-0.3 1.2-0.6 1.8 0 0.1-0.1 0.1-0.1 0.2 -0.8 1-1.6 2-2.4 3 -0.8 1-1.6 2-2.3 3 -0.9 1.3-1.7 2.7-2.7 3.9 -0.1 0-0.1 0.1-0.1 0.1 -0.5 0.6-1.1 1.2-1.8 1.7 -0.9 0.7-1.9 1.3-3 1.7 -0.6 0.2-1.2 0.4-1.7 0.6C18.3 39.2 18.9 38.7 19.6 38.1zM19.5 37.8c0.2-0.2 0.4-0.5 0.5-0.7 0.3-0.4 0.7-0.9 1-1.3 0.3-0.4 0.5-0.9 0.8-1.3 0.6-0.9 1-1.7 1.5-2.6 0.4-0.7 0.8-1.5 1.2-2.2 0.1-0.1 0.1-0.3 0.2-0.5 0.1-0.1 0.1-0.3 0.2-0.4 0.3-0.4 0.5-0.7 0.8-1.1 0.1-0.1 0.1-0.2 0.1-0.3 0 0 0-0.1 0.1-0.2 0.3-0.4 0.6-0.9 1-1.3 0.4-0.5 0.8-1 1.3-1.5 0.5-0.6 1.1-1.1 1.6-1.7 0.2-0.2 0.4-0.3 0.6-0.5 0.4-0.2 0.7-0.5 1.1-0.7 -0.9 0.8-1.7 1.7-2.4 2.7 -0.3 0.5-0.6 1-0.9 1.6 -0.2 0.6-0.4 1.2-0.7 1.7 -0.6 1.1-1.2 2.1-1.8 3.1 -0.3 0.5-0.7 1.1-1 1.6 -0.3 0.5-0.8 0.9-1.1 1.3 -0.8 0.9-1.6 1.8-2.5 2.7C20.6 36.8 20.1 37.3 19.5 37.8zM51.3 13.4c-0.9 0.6-1.7 1.2-2.4 2 -0.7 0.9-1.4 1.8-2.2 2.5 -0.4 0.3-0.8 0.6-1.2 0.8 -0.4 0.2-0.8 0.4-1.2 0.4 0.1-0.2 0.2-0.4 0.3-0.5 0.3-0.6 0.7-1.1 1.1-1.6 0.3-0.4 0.7-0.9 1-1.3 0.3-0.4 0.7-0.6 1-0.9 0.2-0.2 0.5-0.4 0.7-0.5 0.5-0.3 1-0.5 1.5-0.7 0.5-0.2 1.1-0.4 1.6-0.5 0.2 0 0.4-0.1 0.6-0.1C51.9 13 51.6 13.2 51.3 13.4zM53 12.7c0.1 0 0.1 0 0.2 0 0.4 0 0.7-0.1 1.1-0.1 0 0 0 0 0.1 0 0.4-0.1 0.8-0.1 1.2-0.2 0.2 0 0.4 0 0.5 0 -0.6 0.2-1.2 0.4-1.8 0.8 -1.4 0.8-2.7 1.9-3.8 3 -1.3 1.3-2.4 2.7-3.7 3.9 -0.6 0.5-1.2 1-2 1.4 -0.6 0.3-1.3 0.5-2 0.4 0 0 0 0 0-0.1 0.2-0.4 0.4-0.8 0.6-1.3 0.2-0.4 0.5-0.9 0.7-1.3 0.7 0.1 1.4-0.3 1.9-0.7 1-0.6 1.8-1.4 2.5-2.4 0.4-0.5 0.8-1 1.3-1.5 0.5-0.4 1-0.8 1.5-1.2C51.9 13.3 52.4 12.9 53 12.7zM46.8 14.3c-0.9 0.8-1.7 1.6-2.5 2.4 -0.8 0.8-1.6 1.7-2.3 2.6 -0.7 0.9-1.3 1.8-1.9 2.7 -1.3 1.9-2.9 3.4-4.7 4.7 -0.9 0.6-1.8 1.2-2.9 1.6 -0.8 0.3-1.7 0.5-2.6 0.6 0.7-0.8 1.4-1.7 2-2.5 1.6-2 3.2-3.9 4.9-5.7 1.7-1.7 3.6-3.4 5.7-4.6 1-0.6 2.1-1 3.1-1.5 0.3-0.1 0.6-0.3 0.9-0.4 0.2 0 0.3-0.1 0.5-0.1 0 0 0.1 0 0.1 0C47 14.1 46.9 14.2 46.8 14.3zM36.6 20.1c-1.4 1.4-2.8 3-4.1 4.5 0.1-0.2 0.1-0.4 0.1-0.7 0.1-0.6 0.2-1.3 0.4-1.9 0.3-0.7 0.8-1.2 1.2-1.7 0.2-0.3 0.4-0.5 0.6-0.8 0.1-0.1 0.1-0.2 0.1-0.3 0.3-0.2 0.6-0.4 1-0.6 0.8-0.5 1.7-0.9 2.5-1.3 0.3-0.2 0.6-0.4 1-0.5 0.6-0.3 1.3-0.6 1.9-0.8 0.1-0.1 0.3-0.1 0.4-0.2C39.9 17.1 38.2 18.6 36.6 20.1zM22.5 37.9c0.8-0.6 1.5-1.2 2.2-1.9 0.9 0.1 1.8 0.1 2.6 0 1-0.1 2-0.2 2.9-0.6 0.9-0.3 1.7-0.8 2.5-1.4 1.9-1.5 3.5-3.5 5-5.5 0 0 0 0 0 0 -0.6 1-1.2 1.9-1.9 2.9 -1.4 2-2.8 3.9-4.4 5.6 -0.5 0.5-1 1-1.6 1.5 -0.2 0.1-0.5 0.1-0.7 0.2 -0.4 0.1-0.8 0.2-1.2 0.3 -0.7 0.1-1.5 0-2.2 0 -0.8-0.1-1.4-0.3-2.1-0.5 -0.4-0.2-0.9-0.3-1.3-0.3C22.4 38 22.4 37.9 22.5 37.9zM36 29.9c-0.8 1-1.6 2-2.6 2.9 -0.8 0.8-1.6 1.5-2.6 2 -0.9 0.5-1.9 0.8-2.9 0.9 -1 0.1-2 0.3-3 0.1 0.1-0.1 0.1-0.1 0.2-0.2 0.8-1 1.5-2.1 2.2-3.2 0.7-1.1 1.5-2.2 2.3-3.2 0 0 0.1 0 0.1 0 1-0.1 1.9-0.3 2.8-0.6 0.9-0.3 1.8-0.8 2.7-1.3 1.7-1.1 3.3-2.4 4.6-4 0.7-0.9 1.2-1.8 1.9-2.7 0.6-0.9 1.4-1.8 2.1-2.6 0.5-0.5 1-1 1.5-1.5 -0.2 0.3-0.4 0.5-0.6 0.8 -0.8 1-1.6 2-2.3 3.1 -0.7 1.1-1.4 2.2-2.1 3.3 -0.7 1.1-1.3 2.2-2 3.3C37.6 27.8 36.8 28.9 36 29.9zM42.8 22c1 0.2 2.2-0.3 3.1-0.9 1.5-1 2.6-2.4 3.8-3.7 1.2-1.4 2.6-2.7 4.2-3.7 1.1-0.7 2.2-1.1 3.4-1.4 0.1 0.1 0.3 0 0.4 0 0.2 0 0.4 0 0.5-0.1 0.6 0 1.1-0.1 1.7-0.1 0.6 0 1.3-0.1 1.9 0 0 0 0 0 0 0 -0.8 0.2-1.6 0.4-2.3 0.7 -1 0.4-2 1-3 1.6 -2.1 1.3-3.7 3.1-5.4 4.9 -0.9 0.9-1.8 1.8-2.7 2.7 -0.9 0.9-1.7 1.8-2.6 2.6 -0.8 0.7-1.7 1.3-2.7 1.7 -0.5 0.2-1 0.4-1.5 0.5 -0.2 0-0.5 0-0.7 0 0 0 0 0-0.1 0 0-0.1 0-0.1 0.1-0.2 0.1-0.2 0.2-0.5 0.3-0.7 0.3-0.8 0.7-1.6 1-2.4C42.4 22.9 42.6 22.4 42.8 22zM40.9 26.9c1.6 0.3 3.4-0.7 4.7-1.6 0.9-0.7 1.8-1.5 2.6-2.4 0.9-0.9 1.8-1.8 2.7-2.7 1.8-1.8 3.4-3.7 5.5-5.2 0.9-0.7 1.9-1.3 3-1.8 1.1-0.5 2.3-0.8 3.5-1 -0.8 0.4-1.6 1-2.3 1.5 -1 0.7-2 1.5-3 2.3 -0.9 0.8-1.8 1.6-2.6 2.6 -0.8 0.9-1.4 1.9-2.1 2.9 -1.4 2-3.2 3.7-5.3 4.9 -1.1 0.6-2.2 0.8-3.4 1 -1.1 0.2-2.3 0.2-3.4-0.1 0-0.1 0.1-0.2 0.1-0.3C40.8 26.9 40.9 26.9 40.9 26.9zM41 27.4c1.1 0.2 2.1 0.2 3.2 0 1-0.2 2.1-0.3 3.1-0.7 1-0.5 2-1.2 2.9-2 0.9-0.8 1.8-1.6 2.5-2.6 0.7-1 1.4-2.1 2.2-3.1 0.8-1 1.6-1.8 2.5-2.6 1-0.9 2.1-1.7 3.1-2.4 0.9-0.6 1.8-1.4 2.8-1.8 0.2 0 0.3 0 0.5 0 0.1 0 0.2 0 0.3 0 0.1 0 0.2 0 0.3 0 -0.6 0.3-1.1 0.6-1.6 0.9 -2.1 1.3-3.8 3.2-5.1 5.3 -0.6 0.9-1.2 1.8-1.7 2.7 0 0-0.1 0-0.1 0 -1.5 2.7-3.7 5-6.5 6.4 -1.5 0.7-3 1.1-4.6 1.4 -0.8 0.2-1.7 0.3-2.6 0.2 -0.7-0.1-1.4-0.3-2.1-0.6 0-0.1 0.1-0.3 0.1-0.4 0.1-0.3 0.2-0.5 0.3-0.8C40.7 27.4 40.8 27.4 41 27.4zM42 29.2c0.8 0.1 1.6 0.1 2.4 0 0.8-0.1 1.6-0.3 2.4-0.5 0.8-0.2 1.6-0.5 2.4-0.8 2.2-1 4-2.5 5.4-4.3 -0.2 0.5-0.5 0.9-0.7 1.4 -0.6 1.2-1.3 2.4-2 3.5 -0.2 0.2-0.5 0.4-0.7 0.6 -0.5 0.4-1.1 0.9-1.6 1.3 -1.1 0.7-2.3 1.3-3.5 1.6 -1.2 0.4-2.4 0.6-3.7 0.6 -0.6 0-1.3 0-1.9-0.3 -0.5-0.2-1.1-0.6-1.5-0.9 0.2-0.5 0.4-0.9 0.6-1.4 0-0.1 0.1-0.2 0.1-0.3 0.1-0.3 0.2-0.7 0.4-1C40.7 28.9 41.3 29.1 42 29.2zM42 32.8c1.3 0 2.6-0.1 3.8-0.5 1.4-0.4 2.7-0.9 3.9-1.7 0.6-0.4 1.1-0.8 1.7-1.3 0.1-0.1 0.1-0.1 0.2-0.2 -0.5 0.7-1 1.4-1.6 2 -1.5 1.7-3.5 3-5.7 3.6 -1 0.3-2.2 0.5-3.2 0.5 -1.1 0-2.2-0.2-3.2-0.5 0.4-1 0.7-2.1 1.1-3.1 0 0 0 0 0 0C39.8 32.3 40.9 32.7 42 32.8zM54.2 29.2c-0.6 0.5-1.2 0.9-1.8 1.3 -0.6 0.4-1.3 0.8-2 1.1 -0.2 0.1-0.4 0.2-0.6 0.2 1.6-1.6 2.9-3.6 3.9-5.6 1.2-2.2 2.3-4.4 3.7-6.5 1.4-2.1 2.7-4.3 4.8-5.8 0.9-0.6 1.9-1.2 2.9-1.6 0.1 0 0.2 0 0.3 0.1 0 0 0 0 0 0 0.2 0 0.5 0 0.7 0 -0.5 0.3-1 0.6-1.5 1 -1.5 1.1-2.9 2.5-3.9 4.1 -1.1 1.7-2 3.6-2.8 5.4 -0.8 1.8-1.7 3.5-2.5 5.3C55.1 28.5 54.6 28.9 54.2 29.2zM57.7 26.4c0-0.5 0.1-1.1 0.1-1.6 0-0.1 0-0.3 0-0.4 0.5-1 0.9-2 1.4-2.9 1.1-2.3 2.3-4.4 4.1-6.2 0.8-0.8 1.7-1.5 2.6-2.1 0.3-0.2 0.7-0.4 1-0.6 0.1 0 0.2 0 0.4 0 -1.6 1.5-3.2 3-4.7 4.6 -1.4 1.6-2.9 3.3-3.5 5.4 -0.6 2-0.7 4.1-0.7 6.1 0 1 0 2.1 0 3.1 0 0.5 0 1-0.2 1.5 -0.2 0.5-0.4 0.9-0.8 1.3 0 0 0 0.1 0.1 0.1 -0.4 0.6-0.8 1.1-1.3 1.7 -0.5 0.6-1.1 1.1-1.6 1.7 -0.4 0.4-0.7 0.8-1.1 1.1 -0.1 0.1-0.1 0.1-0.2 0.2 0.9-1.2 1.7-2.5 2.5-3.7 0.5-0.9 0.9-1.7 1.2-2.7 0.3-1 0.4-2.1 0.5-3.1C57.5 28.5 57.6 27.5 57.7 26.4zM71.5 14c-0.6 0.2-1.1 0.5-1.6 0.8 -0.3 0.2-0.6 0.3-0.9 0.4 -0.3 0.1-0.5 0.3-0.8 0.2 0-0.8 0.3-1.5 0.8-2.1 0 0 0.1-0.1 0.1-0.1 0.1-0.1 0.3-0.1 0.5-0.1 0.2 0 0.4-0.1 0.6-0.1 0.1 0 0.2 0 0.3 0 0.6 0.1 1.3 0.3 1.9 0.4 0.2 0 0.4 0.1 0.6 0.2C72.5 13.7 71.9 13.8 71.5 14zM73.4 13.8c0.5 0.1 0.9 0.3 1.4 0.4 0 0 0 0 0.1 0 -0.4 0-0.7 0-1.1 0 -1.1 0.1-2.2 0.4-3.1 1.2 -0.5 0.4-1.1 0.6-1.5 1.1 -0.2 0.2-0.4 0.5-0.7 0.6 -0.1-0.5-0.2-0.9-0.2-1.4 0-0.1 0-0.1 0-0.2 0.4 0 0.7-0.1 1.1-0.3 0.7-0.3 1.3-0.7 1.9-1C71.9 14 72.6 13.8 73.4 13.8zM68.3 12.7c-0.3 0.2-0.7 0.4-1 0.7 0 0 0 0 0 0 -0.5 0.3-0.9 0.7-1.3 1.1 -0.6 0.7-1.2 1.4-1.6 2.2 -0.4 0.9-0.8 1.8-1.2 2.7 -0.2 0.4-0.3 0.9-0.4 1.3 -0.2 0.6-0.4 1.1-0.5 1.7 -0.1 0.2-0.1 0.5-0.2 0.7 0 0.1-0.1 0.1-0.1 0.2 -0.1 0.3-0.2 0.7-0.3 1 -0.1 0.4-0.2 0.8-0.3 1.3 -0.2 0.8-0.5 1.5-0.7 2.3 -0.3 1.1-0.7 2.1-1.2 3 -0.3 0.5-0.5 1-0.8 1.5 0-0.2 0-0.3 0-0.5 0-1 0-2.1 0-3.1 0-2 0.1-4.2 0.6-6.1 0.6-2.2 2-4 3.5-5.6 1.5-1.6 3.1-3.1 4.7-4.6C67.8 12.6 68 12.6 68.3 12.7 68.2 12.6 68.3 12.7 68.3 12.7 68.3 12.7 68.3 12.7 68.3 12.7zM72.5 32.2c0 0.3 0 0.5 0.1 0.8 -0.1 0.1-0.2 0.2-0.2 0.3 -0.2 0.2-0.4 0.4-0.6 0.6 -0.4 0.4-0.9 0.7-1.3 1 -0.9 0.5-1.9 0.9-2.9 1.2 -1.1 0.3-2.3 0.6-3.5 0.5 -0.1 0-0.3 0-0.4 0 0.5-0.4 1-0.8 1.4-1.3 0.2-0.2 0.4-0.4 0.7-0.6 0.1 0 0.2-0.1 0.3-0.1 1-0.5 2.1-1 3-1.6 0.9-0.5 1.7-1.2 2.5-2 0.4-0.4 0.7-0.7 1-1.1 0 0.1 0 0.1 0 0.2C72.4 30.8 72.4 31.5 72.5 32.2zM64.5 22.1c0.2 1.1 0.5 2.2 0.8 3.3 0.3 1.1 0.6 2.1 0.6 3.3 0 1.1-0.2 2.2-0.5 3.2 -0.1 0.4-0.3 0.7-0.4 1 -0.4 0.4-0.8 0.8-1.2 1.1 -0.2 0.2-0.5 0.4-0.7 0.7 0.2-0.4 0.3-0.8 0.5-1.2 0.4-1.3 0.2-2.5 0-3.8 -0.3-1.4-0.6-2.8-0.8-4.3 -0.1-0.7-0.1-1.4-0.1-2.1 0-0.2 0-0.4 0.1-0.6 0.2-0.6 0.3-1.1 0.5-1.7 0.2-0.5 0.3-0.9 0.5-1.4 0.2-0.5 0.4-1 0.7-1.6 0.2-0.4 0.4-0.9 0.6-1.3 -0.2 0.7-0.3 1.4-0.4 2.1C64.4 20 64.3 21 64.5 22.1zM63.2 29.3c0.2 1.3 0.6 2.6 0.2 3.9 -0.2 0.6-0.5 1.3-0.8 1.9 -0.3 0.2-0.6 0.5-0.9 0.7 -0.2 0.1-0.3 0.3-0.5 0.4 0.2-0.3 0.3-0.7 0.4-1.1 0.4-1.4 0.5-2.7 0.3-4.1 -0.2-1.3-0.4-2.5-0.4-3.7 0.2-0.7 0.4-1.4 0.6-2 0.1-0.3 0.2-0.6 0.2-0.9 0 0.4 0 0.8 0.1 1.1C62.6 26.8 62.9 28.1 63.2 29.3zM61.5 30.5c0.2 1.4 0.3 2.8-0.1 4.1 -0.2 0.8-0.5 1.6-0.9 2.2 -0.3 0.2-0.5 0.4-0.8 0.6 -0.1 0.1-0.2 0.1-0.3 0.2 -0.1 0-0.1 0.1-0.2 0.1 -0.1 0-0.1 0.1 0 0.1 -0.2 0.2-0.5 0.3-0.7 0.5 -0.5 0.4-1.1 0.7-1.6 1.1 -0.1 0.1-0.2 0.1-0.3 0.2 0.3-0.5 0.4-1.1 0.6-1.6 0.1-0.3 0.3-0.7 0.4-1 0.1-0.3 0.2-0.6 0.2-1 0.1-0.5 0.2-0.9 0.4-1.3 0.5-0.8 0.9-1.6 1.4-2.4 0.2-0.4 0.4-0.7 0.6-1.2 0.1-0.4 0.4-0.7 0.5-1.1 0.2-0.6 0.4-1.1 0.6-1.7C61.3 29 61.4 29.7 61.5 30.5zM72.7 35.4c-0.3 0.5-0.7 1-1 1.5 -0.3 0.4-0.6 0.8-1 1.1 -0.5 0.5-1.1 1-1.8 1.4 -0.4 0.3-0.8 0.5-1.2 0.7 -0.5 0.3-1.2 0.5-1.8 0.6 -0.8 0.2-1.7 0.3-2.5 0.5 -0.7 0.1-1.3 0-2 0 -0.4 0-0.8-0.1-1.2-0.1 -0.4-0.1-0.8-0.1-1.1-0.1 -0.5-0.1-1-0.2-1.5-0.4 -0.1 0-0.1-0.1-0.2-0.1 0.1-0.1 0.1-0.1 0.2-0.1 0.3-0.2 0.7-0.4 1.1-0.6 0.3-0.2 0.6-0.3 0.8-0.5 0.1-0.1 0.1-0.1 0.2-0.1 0.1 0 0.3-0.1 0.3-0.2 0 0 0.1-0.1 0.1-0.1 0 0 0 0 0 0 0.6 0 1.2 0 1.8 0.2 0.6 0.2 1.1 0.3 1.7 0.3 1.2 0 2.3-0.3 3.4-0.7 1.2-0.4 2.3-0.8 3.3-1.5 0.5-0.4 1-0.8 1.4-1.3 0.4-0.4 0.7-0.7 1-1.1 0 0.1 0 0.1 0 0.2C72.8 35.1 72.8 35.2 72.7 35.4zM72.9 36.2C72.9 36.2 72.9 36.2 72.9 36.2c0.1 0.1 0.1 0.3 0.2 0.4 0 0.3 0.1 0.6 0.1 1 0.1 0.6 0.1 1.2 0.2 1.9 0 0.1 0 0.2 0 0.3 -1.2 1.3-2.5 2.4-4.1 3.1 -1.5 0.6-3.3 1-4.9 1 -1.8 0-3.4-0.5-5-1.3 -0.8-0.4-1.6-0.8-2.4-1.2 0.4 0.1 0.9 0.2 1.3 0.3 0.5 0.1 1 0.3 1.5 0.3 0.2 0 0.5 0 0.7 0 0.4 0 0.9 0.1 1.3 0.2 0.3 0 0.7 0.1 1 0 0.8-0.1 1.6-0.2 2.4-0.4 0.3-0.1 0.5-0.2 0.8-0.2 1-0.2 2-0.6 2.9-1.3 0.5-0.4 1.1-0.7 1.6-1.1 0.1-0.1 0.2-0.2 0.3-0.3 0.4-0.4 0.8-0.9 1.2-1.4C72.3 37 72.6 36.6 72.9 36.2zM71.5 35.6c-0.5 0.5-0.9 0.9-1.5 1.3 -1 0.7-2.1 1.2-3.3 1.5 -1.2 0.4-2.3 0.7-3.5 0.7 -0.7 0-1.3-0.3-2-0.4 -0.3-0.1-0.6-0.1-0.9-0.1 0.1 0 0.2-0.1 0.2-0.1 0.1-0.1 0.2-0.1 0.3-0.2 0.3-0.2 0.7-0.4 1-0.6 0.4-0.3 0.8-0.6 1.2-0.9 0.1 0 0.1-0.1 0.2-0.1 0 0 0 0 0 0 0.5 0 1 0.1 1.5 0 1-0.1 2-0.3 3-0.6 1-0.3 2-0.7 2.8-1.2 0.4-0.3 0.8-0.6 1.2-0.9 0.2-0.2 0.4-0.4 0.6-0.6 0 0 0.1-0.1 0.1-0.1 0 0.3 0.1 0.6 0.1 1C72.3 34.8 71.9 35.2 71.5 35.6zM66.5 29.3c0.1-2.2-0.8-4.2-1.3-6.3 -0.2-1.1-0.3-2.2-0.2-3.4 0.1-0.7 0.2-1.6 0.4-2.3 0 0.5 0.1 1 0.1 1.5 0.2 1.3 0.6 2.6 1.1 3.8 0.6 1.3 1.2 2.5 1.8 3.7 0.3 0.6 0.6 1.3 0.6 1.9 0 0-0.1 0.1-0.1 0.1 0 0.1-0.1 0.1-0.1 0.2 -0.2 0.3-0.4 0.5-0.6 0.8 -0.4 0.4-0.7 0.9-1.1 1.3 -0.4 0.5-0.8 1-1.2 1.4C66.2 31.1 66.4 30.2 66.5 29.3zM54.4 38.9c0.4-0.4 0.8-0.8 1.2-1.2 0.4-0.4 0.8-0.9 1.2-1.3 0.2-0.3 0.5-0.5 0.7-0.8 0 0 0 0 0 0 -0.1 0.6-0.3 1.2-0.5 1.9 -0.3 0.7-0.4 1.7-0.9 2.3 -0.1 0.1-0.2 0.1-0.3 0.2 -0.4 0.2-0.7 0.3-1.1 0.5 -0.5 0.2-0.9 0.4-1.4 0.5 -0.5 0.2-1.1 0.4-1.6 0.5 -0.1 0-0.2 0-0.4 0 0 0 0-0.1 0-0.1 0 0 0.1-0.1 0.1-0.1 0.3-0.2 0.6-0.4 0.9-0.6 0.3-0.2 0.5-0.5 0.9-0.6 0 0 0 0 0 0C53.6 39.7 54 39.3 54.4 38.9zM70.9 44.8c-0.4 0.1-0.9 0.3-1.3 0.4 -1.9 0.5-3.8 0.7-5.7 0.4 -1-0.1-2.1-0.3-3-0.7 -0.9-0.4-1.7-1-2.5-1.6 -1.1-0.8-2.3-1.4-3.6-1.7 0.1 0 0.1 0 0.2 0 0 0 0.1 0 0.1 0 0.2-0.2 0.5-0.2 0.7-0.3 0.1 0 0.2-0.1 0.3-0.1 0.1 0 0.2 0.1 0.3 0.1 0.5 0.2 0.9 0.5 1.4 0.7 0.8 0.4 1.6 0.8 2.4 1.1 1.5 0.6 3 0.9 4.6 0.8 1.6-0.1 3.3-0.4 4.8-1.1 1.5-0.6 2.6-1.6 3.7-2.8 0 0.5 0.1 1 0.1 1.4 -0.3 1-0.6 1.9-1.1 2.8 0 0 0 0-0.1 0C71.8 44.5 71.4 44.7 70.9 44.8zM71.9 27.5c0.3-0.2 0.6-0.4 0.9-0.6 0.1-0.1 0.2-0.1 0.3-0.2 -0.2 0.8-0.3 1.6-0.5 2.4 0 0 0 0 0 0 -0.2 0.2-0.4 0.4-0.6 0.6 -0.4 0.4-0.7 0.8-1.1 1.1 -0.8 0.8-1.7 1.5-2.6 2 -0.6 0.4-1.3 0.7-1.9 1 0.4-0.4 0.7-0.8 1.1-1.3 0.9-1.1 1.7-2.4 2.4-3.6 0.1-0.1 0.1-0.2 0.2-0.3C70.6 28.4 71.2 28 71.9 27.5zM69.8 26.7c-0.1 0.3-0.3 0.7-0.4 1 -0.1-0.4-0.2-0.8-0.4-1.1 -0.6-1.2-1.2-2.5-1.8-3.7 -0.6-1.2-1-2.5-1.2-3.8 -0.2-1-0.4-2.1 0-3.1 0 0 0 0 0-0.1 0 0.1 0 0.3 0 0.4 0 0.2 0 0.5 0.1 0.7 0.1 0.6 0.3 1.1 0.5 1.7 0.4 1.1 0.9 2.1 1.5 3.1 0.6 1.1 1.1 2.2 1.6 3.3 0.1 0.2 0.1 0.3 0.2 0.5C69.9 26 69.9 26.4 69.8 26.7zM68.6 22.2c-0.6-1.1-1.2-2.1-1.6-3.2 -0.2-0.6-0.4-1.1-0.6-1.7 -0.1-0.4-0.1-0.7-0.1-1.1 0-0.2 0.1-0.5 0.1-0.7 0 0 0-0.1-0.1-0.1 0.2-0.3 0.4-0.6 0.7-0.9 0.1 0 0.1-0.1 0.2-0.1 -0.1 0.3-0.1 0.5-0.1 0.8 0 1.4 0.5 2.6 1.1 3.8 0.1 0.2 0.2 0.4 0.3 0.6 -0.1 0 0 0.1 0.1 0.1 0 0 0 0.1 0.1 0.1 0.2 0.5 0.5 0.9 0.6 1.4 0.1 0.4 0.2 0.8 0.3 1.2 0.2 0.7 0.2 1.4 0.3 2.1C69.4 23.8 69 22.9 68.6 22.2zM76.3 14.8c0.1 0.1 0.3 0.1 0.4 0.2 -0.6-0.1-1.2 0-1.9 0.1 -1.2 0.3-2.4 0.9-3.4 1.6 -0.5 0.3-1 0.7-1.4 1.2 -0.3 0.4-0.6 0.8-1 1.1 -0.2-0.5-0.4-0.9-0.6-1.4 0.6-0.2 1.1-0.9 1.7-1.2 1-0.7 1.9-1.5 3.2-1.7 0.8-0.1 1.5-0.1 2.3 0C75.9 14.7 76.1 14.7 76.3 14.8zM74 11.4c0.5 0.4 1 1 1.6 1.3 0 0 0.1 0.1 0.1 0.2 0 0 0 0 0 0.1 -0.2-0.1-0.4-0.1-0.6-0.2 -0.4-0.4-0.9-0.7-1.3-1.1 -0.4-0.4-0.8-0.8-1.1-1.3 0 0 0 0 0 0C73.1 10.6 73.5 11 74 11.4zM70.9 8.9c0.4 0.3 0.7 0.6 1.1 0.9 0.1 0.2 0.2 0.4 0.4 0.6 0.3 0.5 0.7 0.9 1.1 1.3 0.3 0.3 0.7 0.6 1 0.9 -0.2-0.1-0.3-0.1-0.5-0.2 -0.1 0-0.3-0.1-0.4-0.1 -0.5-0.4-1-0.8-1.5-1.3 -0.8-0.8-1.5-1.6-2-2.6C70.4 8.5 70.7 8.7 70.9 8.9zM69.6 8c0.5 1 1.1 1.9 1.9 2.7 0.5 0.5 1 0.9 1.5 1.3 0 0 0 0 0.1 0.1 -0.2-0.1-0.4-0.1-0.6-0.2 -0.4-0.1-0.9-0.3-1.3-0.4 -0.2-0.1-0.4-0.3-0.6-0.4 -0.8-0.7-1.4-1.5-1.9-2.4 -0.4-0.7-0.7-1.4-1.1-2C68.3 7.1 68.9 7.6 69.6 8zM65.1 5.4C65.5 5.6 66 5.8 66.4 6c0.3 0.2 0.5 0.4 0.7 0.7 0.5 0.8 0.9 1.8 1.5 2.6 0.5 0.8 1.1 1.4 1.8 2 -0.7-0.1-1.5-0.2-2.3-0.2 -0.4-0.3-0.8-0.6-1.1-1 -0.4-0.5-0.7-0.9-0.9-1.5 -0.2-0.5-0.4-1.1-0.7-1.6 -0.6-0.9-1.3-1.7-2-2.4C63.9 4.9 64.5 5.1 65.1 5.4zM59.7 3.6c0.7 0.2 1.5 0.3 2.2 0.6 0.2 0.1 0.3 0.1 0.5 0.2 0 0 0 0 0 0 0.4 0.3 0.7 0.7 1.1 1.1 0.8 0.9 1.4 1.8 1.9 2.9 0.2 0.5 0.4 1 0.7 1.4 0.3 0.4 0.7 0.8 1.1 1.1 0 0 0 0 0 0 -0.4-0.3-0.8-0.5-1.3-0.8 -0.3-0.2-0.6-0.5-1-0.7 -0.3-0.3-0.6-0.7-0.9-1.1 -0.7-1-1.5-1.9-2.4-2.8 -0.8-0.8-1.8-1.5-2.8-2.1C59.2 3.5 59.5 3.6 59.7 3.6zM52.9 2.8c0.8 0 1.7 0.1 2.5 0.1C56.3 3 57.2 3.1 58 3.3c0.1 0 0.2 0 0.3 0 0.1 0.1 0.3 0.1 0.4 0.2 1.1 0.7 2.2 1.5 3.1 2.4 0.4 0.5 0.9 0.9 1.3 1.4 0.4 0.5 0.7 0.9 1.1 1.4 0.1 0.1 0.1 0.1 0.2 0.2 -0.8-0.5-1.7-1.1-2.5-1.6 -0.6-0.4-1.1-0.7-1.7-1 -0.3-0.1-0.6-0.3-0.8-0.5 -0.8-0.5-1.7-0.9-2.6-1.3 -0.6-0.3-1.2-0.5-1.8-0.8 -0.6-0.2-1.1-0.4-1.7-0.7C53 3 52.9 2.9 52.7 2.9 52.8 2.8 52.8 2.8 52.9 2.8zM50 3c0.3 0.1 0.6 0.1 0.9 0.2 0.8 0.1 1.6 0.4 2.4 0.7 1.1 0.4 2.2 0.9 3.4 1.4 0.6 0.2 1.1 0.5 1.6 0.8 0.5 0.2 0.9 0.5 1.4 0.8 0.8 0.4 1.6 0.9 2.3 1.4 0.6 0.4 1.1 0.8 1.6 1.1 0.7 0.4 1.3 0.9 1.9 1.3 0.1 0.1 0.2 0.1 0.2 0.2 0 0 0 0.1 0 0.1 -0.1 0-0.1 0-0.2 0 -0.3 0-0.6 0-0.9 0 -0.1 0-0.1 0-0.2 0 -0.2 0-0.3-0.1-0.5-0.2 -0.8-0.3-1.5-0.7-2.3-1 -1.6-0.8-2.9-1.9-4.2-3 -0.6-0.5-1.3-1.1-2-1.5 -0.7-0.4-1.5-0.7-2.2-1 -0.8-0.4-1.6-0.7-2.5-1 -0.3-0.1-0.5-0.2-0.8-0.3C49.9 3 50 3 50 3zM49.3 3c0.4 0.1 0.7 0.2 1 0.3 0.9 0.3 1.7 0.6 2.5 1 0.9 0.4 1.8 0.7 2.5 1.2 0.8 0.5 1.5 1.1 2.2 1.7 1.2 1.1 2.5 2.1 4 2.8 0.7 0.4 1.5 0.7 2.3 1 0 0 0.1 0 0.1 0 -0.9 0-1.8 0-2.7 0.1 -0.1 0-0.3 0-0.4 0 -0.4-0.2-0.8-0.4-1.2-0.6 -0.8-0.5-1.6-1-2.4-1.5 -0.8-0.5-1.5-1.1-2.2-1.8 -0.6-0.6-1.2-1.2-1.9-1.7 -1.3-0.9-2.8-2-4.3-2.5 0 0-0.1 0-0.1 0C49 3 49.2 3 49.3 3zM49.9 3.8c0.7 0.4 1.4 0.9 2.2 1.4 0.4 0.2 0.7 0.5 1.1 0.7 0.4 0.3 0.7 0.6 1 0.9 1.3 1.2 2.7 2.2 4.2 3.2 0.6 0.4 1.3 0.8 1.9 1.1 -0.6 0-1.2 0.1-1.8 0.1 -0.5 0-1 0.1-1.4 0.1 0 0-0.1 0-0.1 0 -0.4-0.2-0.7-0.4-1.1-0.6 -0.6-0.5-1.2-1-1.6-1.6 -0.4-0.6-0.8-1.2-1.2-1.8 -0.4-0.6-0.9-1.2-1.4-1.7 -0.9-1-2.1-1.8-3.3-2.5 0 0-0.1 0-0.1 0C48.9 3.3 49.4 3.5 49.9 3.8zM47.9 3.2c0.7 0.3 1.3 0.7 1.9 1.1 0.7 0.5 1.2 1 1.8 1.6 0.5 0.6 1 1.2 1.5 1.9 0.4 0.6 0.7 1.2 1.1 1.7 0.4 0.5 1 1 1.5 1.4 0.3 0.2 0.6 0.4 0.9 0.6 -0.1 0-0.1 0-0.2 0 -0.6-0.1-1.2-0.1-1.7-0.3 -0.7-0.2-1.3-0.5-1.9-0.9 -0.5-0.4-1-0.9-1.4-1.4 -0.4-0.6-0.6-1.2-0.9-1.8C50 6 49.1 5.3 48 4.8c-0.6-0.3-1.2-0.5-1.8-0.7C46 4 45.7 3.9 45.4 3.8 46.2 3.5 47.1 3.3 47.9 3.2zM44.5 4.2c0.2-0.1 0.5-0.2 0.7-0.3C45.4 4 45.7 4.1 46 4.1c0.8 0.3 1.5 0.5 2.2 0.9 0.7 0.4 1.2 0.8 1.7 1.5 0.3 0.5 0.5 1.1 0.8 1.7 0.6 1.1 1.5 2 2.6 2.6 0.8 0.4 1.6 0.6 2.4 0.7 -0.7 0.1-1.4 0.1-2 0.2 -0.5-0.1-0.9-0.1-1.4-0.4 -0.6-0.3-1.2-0.8-1.8-1.2 -0.6-0.4-1.2-0.9-1.8-1.4 -0.5-0.5-0.9-1-1.4-1.6 -0.9-1-1.9-2.1-3.1-2.6 -0.1 0-0.2-0.1-0.3-0.1C44.1 4.3 44.3 4.2 44.5 4.2zM41.5 5.3c0.7-0.3 1.4-0.5 2-0.8 0.7 0.2 1.5 0.9 1.9 1.3 1 0.9 1.8 2 2.8 2.9 0.9 0.9 2 1.7 3.1 2.4 0.5 0.3 0.9 0.5 1.5 0.7 -0.4 0.1-0.9 0.2-1.3 0.2 -0.1 0-0.1 0-0.2 0 -0.1 0-0.2 0-0.2 0 -0.1 0-0.5 0-0.6 0 -0.2 0-0.4 0-0.6 0 -0.3 0-0.7-0.1-1-0.2 -0.8-0.2-1.4-0.5-2.1-1 -0.6-0.4-1.2-0.9-1.6-1.5 -0.4-0.5-0.7-1.1-1.1-1.5 -0.5-0.5-1-0.8-1.6-1.2 -0.5-0.3-0.9-0.6-1.5-0.7 -0.2-0.1-0.4-0.1-0.5 0C40.8 5.7 41.2 5.5 41.5 5.3zM37.1 7.8c0.7-0.5 1.4-0.9 2.1-1.3 0.2-0.1 0.5-0.2 0.7-0.4 0.1 0 0.1 0 0.2 0 0.8-0.2 1.5 0.1 2.1 0.6 0.6 0.4 1.3 0.8 1.7 1.3 0.4 0.5 0.7 1.1 1.1 1.6 0.8 1 2 1.8 3.2 2.2 0.5 0.2 1.1 0.3 1.6 0.3 0.2 0 0.4 0 0.6 0 -0.1 0-0.2 0-0.3 0 -0.5 0.1-1 0.2-1.5 0.4 -0.7 0.1-1.4 0.2-2.1-0.1 -0.6-0.3-1.1-0.7-1.7-1.1 -0.6-0.4-1.1-0.8-1.6-1.4 -0.4-0.5-0.8-0.9-1.4-1.3C40.9 8.2 39.7 8 38.6 8c-0.6 0-1.2 0-1.7 0.1 -0.1 0-0.2 0-0.3 0.1C36.7 8 36.9 7.9 37.1 7.8zM36.1 8.4C36.1 8.4 36.1 8.4 36.1 8.4 36.1 8.4 36.2 8.4 36.1 8.4c0.4-0.1 0.7-0.2 1-0.3 0.7-0.1 1.3-0.1 2 0 0.7 0.1 1.4 0.2 2 0.4 0.7 0.3 1.3 0.7 1.8 1.3 0.4 0.5 0.8 0.9 1.4 1.3 0.5 0.4 1 0.8 1.6 1.1 0.6 0.4 1.2 0.5 1.9 0.5 -0.1 0-0.2 0-0.3 0 -0.3 0-0.7-0.1-1-0.2 -0.5-0.2-1.1-0.5-1.6-0.7 -0.3-0.1-0.6-0.2-0.8-0.4 -0.8-0.5-1.6-1-2.4-1.5 -0.2-0.2-0.5-0.3-0.8-0.4 -0.6-0.3-1.2-0.4-1.8-0.5 -0.7-0.1-1.4-0.2-2.2-0.3 -0.2 0-0.5 0-0.7 0 -0.2 0-0.3 0-0.5-0.1C35.9 8.6 36 8.5 36.1 8.4zM33.4 10.4c0.3-0.3 0.7-0.4 1-0.6 0.3-0.1 0.6-0.2 0.9-0.2 0.2 0 0.5-0.1 0.7-0.1 0.7-0.1 1.4 0.1 2 0.2 0.5 0.1 0.9 0.2 1.4 0.3 0.3 0.1 0.7 0.2 1 0.3 0.8 0.3 1.5 0.8 2.2 1.3 0.4 0.3 0.9 0.6 1.4 0.8 0.6 0.3 1.3 0.6 1.9 0.8 0.1 0 0.1 0.1 0.1 0.1 -0.1 0-0.1 0.1-0.2 0.1 0 0-0.1 0-0.1 0 0 0 0 0 0 0 -0.1 0-0.1 0-0.2 0.1 -0.3 0-0.6-0.1-0.9-0.1 -0.6-0.1-1.2-0.3-1.8-0.5 -1.3-0.4-2.5-1-3.7-1.5 -1.1-0.5-2.2-0.7-3.4-0.8 -0.6-0.1-1.2-0.1-1.8-0.1 -0.2 0-0.5 0-0.7 0 0 0-0.1 0-0.1 0C33.2 10.5 33.3 10.5 33.4 10.4zM32.9 10.8c0.1 0 0.3 0 0.4-0.1 0.6-0.1 1.3-0.1 1.9 0 1.5 0.1 2.8 0.4 4.2 1 0.7 0.3 1.3 0.6 2 0.9 0.6 0.2 1.2 0.4 1.8 0.6 0.7 0.2 1.4 0.4 2.1 0.5 -0.2 0.1-0.4 0.1-0.7 0.2 -0.2 0-0.4 0-0.6 0.1 -0.7 0.1-1.4 0.2-2.1 0.3 -1.4 0.1-2.9 0.1-4.3-0.3 -0.8-0.2-1.5-0.4-2.2-0.8 -0.6-0.4-1.2-0.8-1.9-1.1 -0.4-0.2-0.8-0.5-1.2-0.6 0 0-0.1 0-0.1 0C32.5 11.2 32.7 11 32.9 10.8zM29.9 13.6c0.5-0.4 0.9-0.9 1.4-1.3 0.2-0.2 0.5-0.5 0.7-0.7 0 0 0 0 0 0 0.1 0.1 0.2 0.1 0.3 0.2 0.2 0.1 0.3 0.2 0.5 0.3 0.7 0.3 1.3 0.8 2 1.2 1.2 0.7 2.5 1.1 3.9 1.3 1.4 0.2 2.8 0.2 4.2 0 0.1 0 0.2 0 0.3-0.1 -0.5 0.2-1.1 0.4-1.6 0.6 -0.6 0.2-1.1 0.5-1.7 0.7 -0.2 0.1-0.5 0.2-0.7 0.3 -1.5 0.3-3 0.3-4.4 0.2 -1.1-0.1-2.2-0.4-3.3-0.9 -0.8-0.4-1.6-0.7-2.4-0.9C29.4 14.1 29.7 13.9 29.9 13.6zM28.4 15.1c0.2-0.1 0.3-0.3 0.5-0.4 0 0 0 0 0 0 1.1 0.2 2.1 0.8 3.1 1.2 1 0.4 2.1 0.6 3.1 0.6 1 0.1 2.1 0.1 3.1 0 -0.1 0.1-0.3 0.1-0.4 0.2 -0.5 0.2-1 0.5-1.5 0.8 -0.3 0.1-0.5 0.3-0.7 0.4C35 18 34.5 18.1 34 18.2c-0.8 0.1-1.6 0-2.4-0.1 -0.8-0.1-1.9-0.3-2.5-1 -0.5-0.5-0.8-1.2-0.7-1.9C28.4 15.2 28.4 15.1 28.4 15.1 28.4 15.1 28.4 15.1 28.4 15.1zM28.1 15.4c0 0.7 0.4 1.4 1 1.9 0.6 0.5 1.5 0.7 2.3 0.9 1 0.2 1.8 0.3 2.8 0.2 0.3 0 0.6-0.1 1-0.2 -0.3 0.2-0.5 0.3-0.8 0.5 -0.7 0.4-1.4 0.9-2.1 1.3 -0.5 0-1.1 0-1.6-0.1 -1-0.1-2-0.6-2.7-1.3 -0.5-0.5-1-1.2-1-2 0 0 0 0 0 0C27.3 16.1 27.7 15.8 28.1 15.4zM26.5 17c0-0.1 0.1-0.1 0.1-0.2 0.1 0.8 0.6 1.4 1.2 1.9 0.7 0.6 1.6 1.1 2.6 1.2 0.5 0.1 1 0.1 1.5 0.1 -0.2 0.1-0.4 0.2-0.6 0.4 0 0-0.1 0.1-0.1 0.1 -0.5 0.2-1 0.2-1.5 0.3 -0.8 0.1-1.5 0-2.2-0.5 -0.5-0.4-1-0.8-1.2-1.5C26.1 18.3 26.2 17.6 26.5 17 26.5 17 26.5 17 26.5 17zM22.4 21.6c0.3-0.3 0.6-0.6 0.8-0.9 0.2-0.2 0.4-0.4 0.5-0.7 0.1-0.1 1.1-1.3 1.1-1.4 0-0.1 0.1-0.1 0.1-0.2 0.2-0.2 0.4-0.4 0.7-0.7 -0.1 0.5 0 1.1 0.2 1.5 0.4 0.6 1 1.2 1.6 1.5 0.7 0.3 1.4 0.4 2.1 0.3 -0.3 0.1-0.6 0.1-0.9 0.2 -0.6 0.1-1.1 0.2-1.7 0.2 -0.6 0-1.3 0-1.9 0 -0.5 0-0.9 0-1.4 0.1 -0.3 0-0.6 0.1-1 0.1 -0.1 0-0.3 0-0.5 0C22.3 21.7 22.4 21.6 22.4 21.6zM21 23c0.1-0.1 0.2-0.1 0.2-0.2 0.6-0.2 1.2-0.4 1.9-0.5 0.3 0 0.5-0.1 0.8-0.1 0.3 0 0.6 0 0.9 0 0.3-0.1 0.7 0 1 0 0.1 0 0.1 0 0.2 0 0.8-0.1 1.6-0.2 2.4-0.2 0.1 0 0.2 0 0.4 0 -0.1 0.1-0.1 0.1-0.1 0.2 -0.4 0.3-0.8 0.5-1.1 0.8 -0.1 0-0.1 0.1-0.2 0.1 -0.2 0.1-0.4 0.1-0.6 0.2 -0.4 0.1-0.8 0.3-1.3 0.4 -0.9 0.3-1.8 0.3-2.7 0.4 -0.9 0.1-1.8 0.2-2.7 0.3 -0.1 0-0.3 0-0.4 0.1C20.1 23.9 20.8 23.2 21 23zM19.1 24.9C19.1 24.9 19.1 24.9 19.1 24.9c0.6-0.3 1.2-0.3 1.9-0.4 0.9-0.1 1.8-0.2 2.7-0.2 0.9-0.1 1.7-0.3 2.6-0.5 0.1 0 0.1 0 0.2-0.1 -0.2 0.1-0.4 0.3-0.6 0.4 -0.5 0.3-1 0.7-1.5 1 -0.1 0.1-0.2 0.1-0.3 0.2 -0.5 0.3-1 0.6-1.4 0.9 -0.3 0.1-0.5 0.1-0.8 0.1 -0.7 0.1-1.4 0.1-2.1-0.1 -0.5-0.2-1-0.4-1.5-0.6C18.5 25.4 18.9 25 19.1 24.9zM16.1 27.6c0.4-0.3 0.7-0.7 1.1-1 0.2-0.1 0.3-0.3 0.5-0.4 0 0 0.2-0.1 0.3-0.3 0 0 0 0 0.1 0 0.3 0.2 0.7 0.3 1.1 0.4 0.5 0.2 1.1 0.4 1.7 0.4 0.5 0 1-0.1 1.4-0.1 -0.1 0.1-0.2 0.2-0.4 0.3 -0.9 0.6-1.7 1.1-2.6 1.7 -0.4 0.3-0.9 0.6-1.4 0.8 -0.3-0.1-0.6-0.3-0.9-0.5 -0.3-0.1-0.6-0.3-0.9-0.4 -0.2-0.1-0.5-0.1-0.6-0.2C15.8 27.9 16 27.7 16.1 27.6zM13.1 30.3c0.5-0.4 1-0.9 1.5-1.3 0.2-0.2 0.5-0.4 0.7-0.7 0.2 0.1 0.4 0.1 0.5 0.2 0.5 0.2 0.9 0.5 1.4 0.7 0.1 0.1 0.3 0.1 0.4 0.2 -0.1 0.1-0.3 0.1-0.4 0.2 -0.4 0.2-0.8 0.4-1.1 0.6 -0.3 0.1-0.5 0.3-0.8 0.4 -0.1 0-0.3 0-0.4 0 -0.3 0-0.7 0-1-0.1 -0.3-0.1-0.6-0.2-0.9-0.2C13 30.4 13.1 30.4 13.1 30.3zM10.9 32c0.6-0.5 1.3-0.9 1.9-1.3 0 0 0 0 0 0 0.5-0.1 1 0.3 1.6 0.3 0.2 0 0.4 0 0.7 0 -1 0.5-1.9 1.1-2.9 1.6 -0.3 0.2-0.6 0.3-1 0.5 -0.1 0-0.2-0.1-0.2-0.1 -0.2-0.1-0.4-0.3-0.6-0.5C10.5 32.3 10.7 32.1 10.9 32zM7.1 34.1c0.6-0.3 1.2-0.5 1.7-0.8 0.4-0.2 0.8-0.4 1.1-0.7 0.3 0.2 0.5 0.4 0.8 0.5 -0.2 0.1-0.3 0.1-0.5 0.2 -0.8 0.2-1.6 0.5-2.4 0.8 -0.3 0.1-0.6 0.1-0.9 0.2 0 0 0 0 0-0.1C7 34.2 7 34.2 7.1 34.1zM3.6 36.4c-0.3-0.1-0.5-0.3-0.7-0.4 0 0 0 0 0 0 0.4 0 0.8-0.1 1.2-0.1 0.8-0.1 1.6-0.2 2.3-0.5 0.6-0.2 1.2-0.3 1.8-0.4 0.4-0.1 0.7-0.2 1.1-0.3 0.3-0.1 0.7-0.3 1-0.4 -0.2 0.2-0.5 0.4-0.7 0.5 -0.6 0.5-1.1 0.9-1.7 1.3 -0.6 0.4-1.3 0.6-2 0.7 -0.4 0.1-0.8 0.2-1.3 0.2C4.3 36.7 3.9 36.6 3.6 36.4zM7.8 38c-0.4-0.1-0.7-0.2-1.1-0.3 -0.4-0.1-0.9-0.3-1.3-0.4 -0.1 0-0.1-0.1-0.2-0.1 0.2 0 0.3 0 0.5-0.1 0.7-0.1 1.5-0.2 2.1-0.5 0.9-0.4 1.6-1.1 2.3-1.7 0.4-0.3 0.9-0.6 1.1-1 0.5-0.2 1.1-0.4 1.6-0.7 -0.4 0.4-0.7 0.9-1 1.4 -0.5 0.8-0.9 1.7-1.6 2.2C9.8 37 9.4 37.3 9 37.6 8.7 37.7 8.2 38 7.8 38zM9.9 38.5c-0.6-0.2-1.1-0.3-1.7-0.5 0.5-0.1 0.9-0.3 1.3-0.5 0.4-0.3 0.8-0.5 1.1-0.8 0.3-0.3 0.6-0.7 0.9-1.1 0.5-0.9 1-1.8 1.8-2.5 0.1-0.1 0.2-0.2 0.3-0.3 0.1-0.1 0.2-0.1 0.3-0.2 0.7-0.4 1.3-0.8 2-1.1 0.3-0.2 0.6-0.4 0.9-0.5 0.2-0.1 0.5-0.3 0.7-0.4 -0.3 0.3-0.6 0.7-0.9 1 -0.7 0.8-1.3 1.7-1.9 2.6 -0.5 0.8-1 1.6-1.5 2.4 -0.5 0.7-1.1 1.3-1.9 1.7C10.8 38.4 10.3 38.5 9.9 38.5zM11.7 39.1c-0.4-0.1-0.8-0.2-1.2-0.4 0.1 0 0.3-0.1 0.4-0.1 0.8-0.2 1.6-0.6 2.2-1.3 0.7-0.7 1.1-1.6 1.7-2.5 0.6-0.9 1.1-1.8 1.8-2.7 0.7-0.9 1.6-1.8 2.4-2.6 0 0 0.1 0 0.1-0.1 0.1 0 0.2-0.1 0.3-0.1 0 0 0.1 0 0-0.1 0.3-0.2 0.5-0.3 0.7-0.5 0.5-0.3 0.9-0.7 1.4-1 0.1-0.1 0.3-0.2 0.4-0.2 -0.5 0.5-1 1.1-1.5 1.7 -0.6 0.8-1.1 1.6-1.5 2.5 -0.4 0.8-0.7 1.7-1.2 2.5 -1.2 2-2.8 4.9-5.5 5C12.1 39.2 11.9 39.2 11.7 39.1zM14.6 40c-0.1 0-0.1 0-0.2 0 -0.3-0.1-0.7-0.2-1-0.3 -0.2-0.1-0.4-0.1-0.7-0.2 2.3-0.3 4-2.6 5.1-4.5 1-1.7 1.6-3.7 2.8-5.2 0.6-0.8 1.3-1.5 2-2.2 0.1-0.1 0.3-0.2 0.4-0.4 0.2-0.1 0.4-0.2 0.5-0.3 0.2-0.1 0.4-0.3 0.7-0.4 0.5-0.3 1-0.6 1.4-0.9 0.2-0.2 0.4-0.3 0.7-0.5 0.3-0.2 0.6-0.4 0.9-0.6 0.2-0.2 0.5-0.3 0.7-0.5 0 0 0 0 0.1 0 0 0.1-0.1 0.1-0.1 0.2 -0.1 0.1-0.2 0.2-0.3 0.3 -0.4 0.5-0.8 1-1.2 1.4 -0.4 0.5-0.7 0.9-1.1 1.4 -0.1 0.1-0.3 0.2-0.4 0.2 -0.3 0.2-0.6 0.4-0.8 0.6 -0.6 0.5-1.2 1-1.7 1.6 -1.1 1.1-2.1 2.4-3 3.7 -0.9 1.3-1.6 2.7-2.4 4C16.4 38.3 15.6 39.4 14.6 40zM15.4 40.1c-0.1 0-0.1 0-0.2 0 -0.1 0-0.2 0-0.3-0.1 0.9-0.5 1.7-1.4 2.2-2.3 0.9-1.4 1.6-2.9 2.5-4.3 0.9-1.4 2-2.7 3.2-3.9 0.6-0.6 1.3-1.2 2-1.7 0.1 0 0.1-0.1 0.2-0.1 -0.2 0.4-0.5 0.8-0.7 1.1 -0.3 0.6-0.7 1.3-1 1.9 -0.2 0.4-0.4 0.9-0.7 1.3 -0.4 0.8-0.9 1.5-1.3 2.2 -0.3 0.5-0.6 1.1-1 1.6 -0.6 0.8-1.2 1.7-2 2.4 -0.2 0.1-0.3 0.3-0.5 0.4C17 39.3 16.2 39.7 15.4 40.1zM19.9 41.4c-0.3-0.1-0.6-0.2-0.9-0.2 -0.8-0.2-1.5-0.4-2.3-0.6 0.1-0.1 0.3-0.2 0.4-0.3 0.2 0 0.4-0.1 0.6-0.2 0.6-0.2 1.2-0.3 1.8-0.6 0.9-0.4 1.8-0.8 2.7-1.4 0 0 0 0 0 0 0.8 0 1.5 0.3 2.2 0.6 0.7 0.2 1.3 0.2 2 0.3 0.7 0 1.5 0.1 2.2-0.1 0.3-0.1 0.6-0.1 1-0.2 -1 0.8-2.2 1.5-3.5 1.8 -1.1 0.3-2.2 0.4-3.3 0.7C21.7 41.5 20.8 41.5 19.9 41.4zM28.1 43.3c-0.7-0.1-1.3-0.3-1.9-0.5 -0.6-0.2-1.2-0.3-1.8-0.4 -0.6-0.1-1.2-0.3-1.8-0.4 -0.5-0.1-1-0.2-1.5-0.3 0.4 0 0.9 0 1.3-0.1 0.6-0.1 1.1-0.3 1.6-0.4 0.6-0.1 1.1-0.2 1.7-0.3 2.1-0.5 3.9-1.6 5.4-3.1 1.7-1.6 3.1-3.5 4.4-5.4 1.5-2.1 2.9-4.3 4.2-6.5 0.7-1.1 1.3-2.2 2-3.3 0.1-0.1 0.1-0.2 0.2-0.3 -0.2 0.4-0.3 0.8-0.5 1.2 -0.3 0.6-0.5 1.3-0.8 1.9 -0.1 0.3-0.2 0.6-0.4 1 -0.2 0.5-0.4 1-0.6 1.5 -0.2 0.6-0.4 1.3-0.7 1.9 -0.2 0.4-0.3 0.7-0.4 1.1 -0.8 1.1-1.6 2.1-2.2 3.3 -0.7 1.3-1.6 2.5-2.5 3.8 -0.9 1.2-1.7 2.5-2.8 3.5 -0.5 0.5-1.1 0.9-1.8 1.3 -0.3 0.2-0.7 0.3-1.1 0.5C28.3 43.2 28.2 43.3 28.1 43.3zM31.4 43.4C31.4 43.4 31.4 43.4 31.4 43.4c-0.1 0.1-0.2 0.1-0.2 0.1 -0.2 0.1-0.4 0.2-0.6 0.2 -0.2 0-0.4-0.1-0.6-0.1 -0.3 0-0.5 0-0.8-0.1 -0.3-0.1-0.6-0.1-0.8-0.2 0.7-0.2 1.3-0.6 1.9-1 1.3-0.9 2.4-2.1 3.3-3.5 0.9-1.4 2-2.8 2.8-4.3 0.5-1 1.2-1.9 1.8-2.8 -0.2 0.4-0.3 0.9-0.5 1.3 -0.2 0.7-0.5 1.4-0.8 2 -0.3 0.6-0.6 1.2-0.9 1.9 -0.4 0.9-0.9 1.7-1.3 2.6 -0.3 0.7-0.7 1.3-1.2 1.8 -0.1 0.1-0.2 0.3-0.3 0.4 -0.3 0.3-0.6 0.6-1 0.9C32 43.1 31.7 43.2 31.4 43.4zM34.5 44c-0.4 0-0.8 0-1.1 0 -0.2 0-0.4-0.1-0.6-0.1 -0.2 0-0.3 0-0.5 0 0 0 0 0 0-0.1 0.1-0.1 0.1-0.1 0.2-0.2 0 0 0 0 0 0 0.7-0.1 1.3-0.2 2-0.4 0.9-0.3 1.8-0.4 2.7-0.7 1.4-0.4 2.9-0.7 4.3-1.1 0.1 0 0.2 0 0.3 0 -0.3 0.2-0.6 0.4-1 0.6 -0.8 0.4-1.6 0.7-2.4 1 -0.7 0.3-1.4 0.6-2.2 0.9 -0.2 0.1-0.4 0.1-0.6 0.2C35.2 44 34.8 44 34.5 44zM43.5 43.4c-0.2 0-0.4 0.1-0.6 0.1 -0.6 0.1-1.2 0.1-1.9 0.2 -0.2 0-0.4 0-0.6 0 -0.5 0-1.1 0.1-1.6 0.1 -0.5 0-0.9 0.1-1.4 0.1 -0.5 0-0.9 0-1.4 0 0.8-0.3 1.6-0.6 2.4-1 0.8-0.3 1.6-0.6 2.4-1 0.4-0.2 0.8-0.5 1.2-0.7 0.2-0.1 0.4-0.2 0.5-0.3 3.5-1.2 6.3-3.6 8.8-6.3 0.5-0.6 1.1-1.2 1.6-1.8 -0.1 0.5-0.2 1-0.3 1.4 -0.2 0.7-0.4 1.4-0.7 2 -0.5 1.4-1.3 2.8-2.3 3.8 -1 1-2.2 1.8-3.5 2.3C45.3 42.8 44.4 43.2 43.5 43.4zM48.3 42c-0.5 0.2-1 0.4-1.5 0.6 -0.2 0.1-0.5 0.2-0.7 0.3 -0.3 0.1-0.7 0.3-1 0.3 -0.2 0-0.3 0-0.5 0 0.6-0.2 1.2-0.5 1.8-0.7 1.3-0.6 2.6-1.3 3.6-2.3 1.1-1.1 1.8-2.4 2.4-3.8 0.3-0.7 0.5-1.4 0.7-2.2 0.2-0.6 0.4-1.2 0.3-1.9 0.9-1.3 1.8-2.6 2.5-4 0.5-1 1-2.1 1.6-3.2 0 0.3 0 0.7-0.1 1 -0.1 1-0.1 2.1-0.2 3.1 -0.1 1-0.2 2-0.4 3 -0.2 1-0.7 1.9-1.1 2.8 -0.9 1.7-2 3.5-3.4 4.9 -0.3 0.2-0.5 0.3-0.8 0.5 -0.6 0.3-1.2 0.7-1.8 1C49.2 41.7 48.7 41.9 48.3 42zM48.7 46c0.1-0.1 0.1-0.2 0.2-0.3 1.1-0.3 2.3-0.3 3.4-0.2 0.2 0 0.5 0.1 0.7 0.1 2 0.7 4 1.7 6 2.5 2 0.7 4 1.1 6.1 0.9 2-0.2 4.1-0.9 5.8-2 0.6-0.4 1.2-0.9 1.6-1.4 -0.2 0.3-0.4 0.6-0.6 0.9 -0.6 0.9-1.4 1.6-2.3 2.2 -0.9 0.7-1.9 1.5-3 2.1 -0.9 0.6-1.8 1.1-2.7 1.5 -1.1 0.4-2.3 0.4-3.4 0 -1.1-0.4-2.1-1-3-1.5 -1.1-0.6-2.1-1.4-3-2.2 -0.9-0.7-1.8-1.5-2.8-2 -0.8-0.4-1.6-0.7-2.5-0.5C49 46 48.8 46 48.7 46 48.7 46 48.7 46 48.7 46zM48.4 46.3c0.4-0.2 0.9-0.3 1.3-0.3 1.1 0 2 0.6 2.9 1.2 1 0.7 1.9 1.5 2.9 2.3 1 0.7 2 1.3 3.1 1.9 1.6 0.9 3.5 1.6 5.4 1 0.9-0.3 1.8-0.8 2.6-1.3 1-0.6 2-1.3 2.9-2 0.9-0.7 1.9-1.5 2.6-2.4 0.6-0.8 1-1.7 1.3-2.6 0.1-0.1 0.2-0.2 0.2-0.3 0 0 0 0.1 0 0.1 0 0.4 0.1 0.8 0.1 1.2 0 0.2 0 0.5 0 0.7 0 0.2 0 0.3-0.1 0.5 0 0.5-0.1 1-0.1 1.4 0 0.1 0 0.1 0 0.2 -1.1 2.1-2.8 3.7-4.9 4.8 -1.9 0.9-4.1 1.5-6.2 1.4 -1.1-0.1-2.3-0.2-3.3-0.8 -1.1-0.6-2-1.4-2.8-2.3 -0.7-0.8-1.3-1.8-2.2-2.5 -0.8-0.6-1.7-1.1-2.7-1.5 -1.1-0.4-2.2-0.5-3.3-0.4C48.2 46.6 48.3 46.4 48.4 46.3zM47.7 47.3c0.1-0.2 0.2-0.3 0.3-0.5 1.8-0.4 3.6 0.3 5.2 1.3 0.5 0.3 1.1 0.7 1.5 1.2 0.4 0.4 0.7 0.9 1 1.3 0.7 0.9 1.4 1.7 2.4 2.3 1.7 1.1 3.7 1.4 5.7 1.3 2-0.1 4-0.7 5.8-1.7 1-0.6 1.9-1.2 2.7-2.1 0.6-0.6 1-1.3 1.4-2 0 0.2 0.1 0.3 0.1 0.5 0 0.2 0 0.4 0 0.6 0 0.4-0.1 0.8-0.1 1.2 0 0.3-0.1 0.6-0.2 0.8 -0.3 0.6-0.6 1.2-1 1.7 -0.2 0.2-0.3 0.5-0.5 0.7 -1 0.9-2.3 1.7-3.5 2.3 -1.7 0.9-3.7 1.5-5.7 1.2 -2.4-0.4-4.5-2.2-6.1-3.9 -0.8-0.9-1.6-1.9-2.4-2.9 -0.7-0.9-1.5-1.6-2.5-2.1 -0.9-0.4-2-0.9-3-0.8 -0.6 0-1.1 0.2-1.7 0.3C47.3 47.8 47.5 47.6 47.7 47.3zM73.9 53.9c0-0.2 0.1-0.3 0.1-0.5 0 0 0 0 0.1 0 0 0.1 0 0.2 0.1 0.3 0.1 0.6 0.3 1.3 0.4 1.9 0.1 0.5 0.3 1 0.4 1.5 0.2 0.5 0.3 1 0.5 1.5 0.1 0.5 0.3 0.9 0.5 1.4 0.2 0.5 0.3 1 0.5 1.5 0.2 0.7 0.5 1.4 0.7 2.1 0.2 0.9 0.4 1.8 0.5 2.7 -0.3-0.3-0.6-0.6-0.9-0.9 -0.7-0.6-1.4-1.3-2-2 -0.6-0.7-1.1-1.6-1.4-2.5 -0.2-0.6-0.5-1.2-0.7-1.8 0.1-0.5 0.3-1 0.4-1.5 0.2-0.6 0.3-1.2 0.5-1.8C73.6 55.2 73.7 54.6 73.9 53.9zM44.8 51.9c0.2-0.5 0.5-1 0.8-1.5 0.1-0.1 0.2-0.3 0.2-0.4 0.3-0.5 0.5-0.9 0.8-1.4 0.1-0.2 0.2-0.3 0.3-0.5 0.8-0.2 1.6-0.4 2.3-0.3 1.3 0.2 2.7 0.8 3.7 1.7 0.9 0.8 1.6 1.8 2.4 2.8 0.8 1 1.6 1.9 2.6 2.7 1.5 1.3 3.3 2.5 5.4 2.6 1.8 0.1 3.6-0.4 5.2-1.2 1-0.5 1.9-1 2.8-1.7 -0.3 0.3-0.6 0.7-0.9 0.9 -0.7 0.6-1.5 1.2-2.4 1.6 -0.3 0.1-0.6 0.3-1 0.5 -0.5 0.2-1 0.5-1.6 0.7 -0.5 0.2-1.1 0.3-1.6 0.4 -0.7 0.2-1.5 0.3-2.2 0.3 -0.7 0-1.5 0.1-2.2 0.1 -0.5 0-1 0-1.5-0.1 -0.2 0-0.5-0.1-0.7-0.1 -0.1-0.1-0.3-0.2-0.4-0.3 -0.3-0.2-0.6-0.4-0.8-0.7 -0.5-0.5-1-1.1-1.6-1.6 -1-1-2.1-1.9-3.4-2.5 -1.1-0.6-2.3-1.1-3.6-1.4 -0.5-0.1-1.1-0.2-1.6-0.2 -0.4 0-0.9 0.1-1.3 0C44.7 52.3 44.8 52.1 44.8 51.9zM44.6 52.6c0.2 0 0.4 0 0.6 0 0.6 0 1.3-0.1 1.9 0 1.5 0.2 3 0.9 4.3 1.6 1.4 0.8 2.6 2 3.8 3.2 0.5 0.5 1 1 1.6 1.5 0 0 0.1 0.1 0.1 0.1 -0.6-0.1-1.2-0.1-1.8-0.2 -0.9-0.1-1.8-0.2-2.7-0.4 -0.1 0-0.1 0-0.2 0 -0.7-0.5-1.2-1-1.8-1.6 -0.6-0.7-1.3-1.2-2-1.6 -0.8-0.4-1.6-0.7-2.4-1 -0.5-0.1-0.9-0.3-1.4-0.4 -0.2-0.1-0.4 0-0.6 0C44.2 53.4 44.4 53 44.6 52.6zM43.2 56.9c0.1-0.4 0.2-0.8 0.3-1.2 0.1-0.4 0.2-0.7 0.3-1.1 0.1-0.2 0.2-0.5 0.3-0.7 0.1 0 0.1 0 0.2 0 0.5 0 1 0.2 1.4 0.4 0.9 0.3 1.9 0.6 2.7 1.1 0.9 0.5 1.5 1.1 2.2 1.8 0.4 0.5 0.9 0.9 1.4 1.2 -0.4-0.1-0.8-0.1-1.2-0.2 -0.8-0.1-1.5-0.2-2.3-0.3 -0.7-0.1-1.4-0.3-2.1-0.4 -0.5-0.1-1-0.2-1.5-0.2 -0.5-0.1-1-0.1-1.4-0.2C43.1 57.1 43.1 57.1 43.2 56.9zM42.9 58.2c0-0.1 0-0.2 0.1-0.3 0.7 0.1 1.4 0.1 2.1 0.2 0.5 0.1 0.9 0.1 1.4 0.2 0.5 0.1 1.1 0.1 1.6 0.3 0.7 0.2 1.4 0.3 2.1 0.3 0.4 0 0.8 0.1 1.1 0.1 -0.5 0.4-1.3 0.6-1.9 0.7 -0.7 0.2-1.4 0.5-2 0.6 -1.5 0.3-3.1 0-4.4-0.8C42.9 59.1 42.9 58.6 42.9 58.2zM42.7 61.3c0-0.4 0.1-0.7 0.1-1.1 0-0.1 0-0.2 0-0.4 1.3 0.7 2.8 1.1 4.2 0.8 0.8-0.1 1.6-0.4 2.5-0.7 0.7-0.2 1.5-0.4 2-0.8 0.2 0 0.5 0.1 0.7 0.1 1 0.1 2 0.3 2.9 0.4 0.5 0.1 1 0.1 1.5 0.2 -0.4 0.3-0.9 0.6-1.3 0.9 -0.5 0.3-1.1 0.6-1.6 0.9 -1.1 0.4-2.3 0.7-3.5 0.9 -1.2 0.2-2.6 0.5-3.8 0.4 -0.7 0-1.3-0.2-2-0.5 -0.5-0.2-1.3-0.4-1.7-0.8 0 0 0 0-0.1 0C42.7 61.4 42.7 61.3 42.7 61.3zM42.7 61.7c0.4 0.3 1 0.4 1.5 0.6 0.6 0.3 1.1 0.4 1.8 0.5 1.4 0.2 2.8-0.1 4.2-0.3 1.3-0.2 2.7-0.5 3.9-1 0.6-0.2 1.1-0.6 1.7-0.9 0.4-0.3 0.9-0.5 1.3-0.9 0 0 0.1 0 0.1 0 0.9 0.2 1.9 0.2 2.8 0.2 0.3 0 0.6 0 0.9 0 0.5 0 1 0 1.5-0.1 -1.2 0.5-2.4 1.1-3.3 2.1 -0.8 0.8-1.4 1.7-2.4 2.3 -0.9 0.6-1.8 1.1-2.8 1.4 -2 0.7-4.2 1.2-6.2 0.8 -2-0.4-3.8-1.3-5.1-2.9C42.6 62.9 42.6 62.3 42.7 61.7zM42.6 63.9c1.2 1.4 2.9 2.2 4.7 2.6 2 0.5 4 0.2 5.9-0.4 2.1-0.7 4-1.6 5.5-3.3 0.8-0.9 1.6-1.6 2.7-2.2 0.7-0.4 1.4-0.6 2.1-0.9 0.4-0.1 0.8-0.2 1.3-0.3 0.7-0.2 1.4-0.4 2.1-0.8 0.6-0.3 1.2-0.6 1.8-0.9 0.5-0.2 1-0.5 1.4-0.9 0.6-0.5 1.2-1 1.7-1.6 0.4-0.5 0.8-1 1.2-1.5 -0.6 1.3-1.2 2.7-1.9 3.9 -0.9 1.5-2.1 2.9-3.4 4.1 -1.8 1.6-3.8 3.2-6.2 3.7 -1.9 0.4-4 0-5.8 0.6 -1 0.3-1.8 1-2.8 1.4 -1.1 0.5-2.4 0.5-3.5 0.2 -1.2-0.3-2.4-0.8-3.6-1.3 -1-0.4-1.8-0.9-2.8-1.2C42.7 64.8 42.7 64.3 42.6 63.9zM42.8 66.3c0-0.2 0-0.5 0-0.7 0-0.1 0-0.1 0-0.2 0.9 0.2 1.7 0.7 2.5 1.1 0.9 0.4 1.7 0.7 2.7 1 1.4 0.5 3.2 0.9 4.6 0.3 1-0.4 1.9-1.2 3-1.5 1-0.3 2-0.3 3.1-0.4 0.9 0 1.9-0.1 2.8-0.3 1.1-0.2 2.1-0.7 3-1.2 1-0.6 1.9-1.3 2.8-2.1 1-0.8 1.9-1.7 2.7-2.7 0.8-1 1.5-2.1 2.1-3.3 0.4-0.8 0.8-1.7 1.1-2.5 -0.2 0.7-0.4 1.5-0.6 2.2 -0.1 0.4-0.2 0.9-0.3 1.3 -0.1 0.5-0.3 1-0.5 1.5 -0.1 0.4-0.2 0.7-0.4 1.1 -0.3 0.7-0.5 1.4-0.8 2.1 -0.1 0.2-0.3 0.3-0.5 0.5 -0.4 0.4-0.9 0.9-1.3 1.3 0 0-0.1 0.1-0.1 0.1 -0.2 0.2-0.5 0.4-0.7 0.5 -0.3 0.2-0.6 0.5-0.9 0.7 -3.1 2.3-6.9 3.8-10.7 4.4 -2.3 0.4-4.6 0.3-6.9-0.1 -2.2-0.4-4.3-1.1-6.5-1.1C43 67.8 42.9 67 42.8 66.3zM43.1 69.4c0-0.2 0-0.4 0-0.6 1.6 0 3.2 0.4 4.7 0.8 2.2 0.5 4.4 0.8 6.7 0.7 2.2-0.1 4.4-0.6 6.4-1.3 1.5-0.5 2.9-1.1 4.3-1.9 -1 0.9-2 1.7-3 2.5 -1.8 1.3-3.8 2.6-5.9 3.5 -2 0.9-4.2 1.5-6.4 1.4 -1.3 0-2.5-0.3-3.7-0.9 -0.6-0.3-1.1-0.7-1.7-1 -0.4-0.2-0.8-0.5-1.2-0.8C43.2 71 43.1 70.2 43.1 69.4zM43.3 72.1c0.5 0.3 1 0.6 1.5 0.9 0.7 0.5 1.5 0.9 2.3 1.2 1.9 0.7 4.1 0.6 6.1 0.1 2-0.5 4-1.4 5.8-2.4 2.1-1.2 4.1-2.6 5.9-4.2 0.5-0.4 0.9-0.8 1.4-1.2 0.2-0.1 0.4-0.3 0.6-0.4 0.9-0.6 1.8-1.3 2.6-2.1 0.1-0.1 0.3-0.2 0.4-0.4 0.1-0.1 0.2-0.1 0.3-0.2 -0.2 0.6-0.5 1.2-0.8 1.9 -0.1 0.2-0.1 0.3-0.2 0.5 -0.1 0.2-0.2 0.5-0.3 0.7 -0.2 0.4-0.4 0.8-0.6 1.2 -0.4 0.7-0.7 1.4-1.2 2.1 -0.2 0.4-0.5 0.8-0.8 1.2 -0.1 0.2-0.2 0.3-0.3 0.5 -0.8 0.1-1.6 0.3-2.4 0.5 -1 0.2-1.9 0.6-2.7 1.1 -1.7 1-3.3 2.1-5.1 2.9 -0.9 0.4-1.9 0.7-2.9 0.8 -1.1 0.1-2.4-0.1-3.4-0.5 -1-0.4-2-0.9-3.1-1.1 -0.8-0.2-1.7-0.3-2.6-0.4 0-0.2-0.1-0.4-0.1-0.6 -0.1-0.5-0.2-1.1-0.3-1.6C43.4 72.4 43.4 72.2 43.3 72.1zM56.5 81.5c-1.4 0.5-2.8 0.7-4.2 1 -1.4 0.3-2.9 0.7-4.3 0.9 -0.8 0.1-1.5 0-2.3 0 -0.4 0-0.8 0-1.2 0 -0.1 0-0.3-0.1-0.4-0.1 0 0-0.1 0-0.1 0 0.1-0.6 0.1-1.2 0.1-1.8 1.6 0.3 3.2 0.3 4.8 0.2 1.7-0.1 3.3-0.5 4.9-0.9 1.6-0.4 3.2-0.9 4.7-1.6 0.8-0.4 1.6-0.8 2.3-1.2 -0.3 0.4-0.7 0.6-0.9 1 0 0 0 0 0 0 -0.3 0.3-0.7 0.6-0.9 0.9 -0.1 0.1-0.2 0.2-0.3 0.4 0 0-0.1 0-0.1 0C58 80.9 57.3 81.2 56.5 81.5zM58.1 81c-0.3 0.2-0.6 0.4-0.9 0.6 -0.6 0.4-1.3 0.8-1.9 1.2 -1.3 0.9-2.7 1.5-4.2 2.1 -1.4 0.5-2.8 0.9-4.3 1.1 -0.7 0.1-1.5 0.2-2.2 0.3 -0.3 0-0.7 0.1-1 0 0 0 0 0 0 0 0.2-0.9 0.3-1.8 0.5-2.7 0-0.1 0-0.1 0-0.2 0.1 0 0.2 0 0.3 0 0.4 0.1 0.7 0.1 1.1 0.1 0.8 0 1.6 0.1 2.4 0 1.6-0.1 3.1-0.5 4.6-0.9 1.6-0.3 3.2-0.6 4.7-1.2C57.4 81.4 57.8 81.2 58.1 81zM58.4 79.1c-1.5 0.7-3 1.2-4.6 1.6 -1.6 0.4-3.2 0.8-4.8 0.9 -1.6 0.1-3.3 0.2-4.8-0.2 0-0.3 0-0.6 0-0.8 0-0.3 0-0.3 0.3-0.3 0.5 0 1.1 0 1.6 0.1 0.3 0 0.6 0 0.9 0 0.7 0 1.4 0 2.1 0 0.4 0 0.9 0 1.3-0.1 0.6-0.1 1.1-0.2 1.7-0.3 0.3-0.1 0.7-0.1 1-0.2 0.5-0.2 1-0.4 1.6-0.6 0.4-0.2 0.9-0.3 1.3-0.5 0.3-0.2 0.7-0.3 1-0.5 0.5-0.3 1.1-0.5 1.6-0.7 0.8-0.3 1.4-0.8 2.2-1.2 0.8-0.4 1.5-0.9 2.2-1.5 0.2-0.2 0.4-0.3 0.6-0.5 0 0 0.1 0 0.2-0.1 0 0.2 0 0.4-0.2 0.5 -0.2 0.2-0.3 0.6-0.6 0.8 0 0 0 0.1 0 0.1 -0.1 0.1-0.1 0.2-0.2 0.3 -0.2 0.3-0.5 0.5-0.7 0.8 -0.1 0.1-0.2 0.3-0.3 0.4 -0.1 0.1-0.2 0.2-0.3 0.4C60.5 78.1 59.5 78.7 58.4 79.1zM63 74c-0.8 0.6-1.5 1.2-2.3 1.6 -0.2 0.1-0.5 0.3-0.7 0.4 -0.4 0.2-0.8 0.5-1.2 0.7 -0.8 0.4-1.6 0.8-2.5 1.1 -0.8 0.3-1.6 0.7-2.4 1 -0.3 0.1-0.6 0.2-0.9 0.3 -0.8 0.1-1.6 0.3-2.4 0.4 -0.6 0.1-1.2 0.1-1.8 0.1 -0.2 0-0.4 0-0.6 0 -0.5 0-1.1 0-1.6 0 -0.7 0-1.4-0.1-2.2-0.2 -0.1 0-0.1 0-0.2 0 0 0 0-0.1 0-0.1 0-0.6 0-1.2-0.1-1.9 0-0.5-0.1-0.9-0.1-1.4 -0.1-0.4-0.1-0.8-0.2-1.1 1 0.1 1.9 0.2 2.9 0.5 1.1 0.3 2.1 0.9 3.2 1.2 1.8 0.5 3.8 0.5 5.5-0.3 1.8-0.7 3.4-1.8 5.1-2.9 0.9-0.6 1.9-1.1 3-1.4 0.8-0.2 1.6-0.3 2.4-0.5 -0.1 0.1-0.1 0.2-0.2 0.2 -0.4 0.4-0.8 0.8-1.2 1.1C64 73.3 63.5 73.6 63 74zM43.1 87.9c0.1-0.4 0.3-0.8 0.4-1.3 0.1 0 0.2 0 0.3 0 0.3 0 0.7 0 1-0.1 0.7-0.1 1.5-0.2 2.2-0.3 1.5-0.2 2.9-0.6 4.4-1.2 0.8-0.3 1.5-0.6 2.3-0.9 0.7-0.3 1.4-0.8 2-1.2 0.4-0.3 0.8-0.5 1.3-0.8 -0.1 0.1-0.2 0.2-0.2 0.3 -0.3 0.3-0.7 0.7-1 1 -0.1 0.1-0.2 0.2-0.3 0.4 -0.1 0-0.1 0.1-0.2 0.1 -0.3 0.3-0.6 0.5-1 0.7 -0.6 0.4-1.3 0.7-2 1 -1.4 0.5-2.7 1.1-4.1 1.6 -1.4 0.5-2.8 0.6-4.2 0.9 -0.4 0.1-0.7 0.1-1.1 0.2C43 88.2 43.1 88.1 43.1 87.9zM42.2 90C42.2 90 42.2 90 42.2 90c0.1-0.2 0.2-0.3 0.3-0.4 0.1-0.3 0.3-0.7 0.4-1 0 0 0.1 0 0.1 0 0.7-0.2 1.5-0.3 2.2-0.5 0.7-0.1 1.4-0.2 2.1-0.4 0.7-0.2 1.3-0.4 2-0.6 1.4-0.5 2.8-1 4.1-1.7 0.3-0.1 0.6-0.3 0.8-0.4 -0.6 0.6-1.2 1.1-1.8 1.6 -0.3 0.2-0.5 0.5-0.7 0.7 -0.1 0.1-0.1 0.1-0.2 0.2 -0.2 0.1-0.4 0.2-0.6 0.3 -0.6 0.3-1.2 0.6-1.8 0.8 -1.2 0.4-2.5 0.7-3.8 1.1 -1.1 0.3-2.3 0.7-3.4 1.3C41.9 90.6 42.2 90.4 42.2 90zM45.4 91.6c-0.2 0.1-0.4 0.3-0.6 0.4 -0.4 0.3-0.8 0.5-1.2 0.8 -1.3 0.4-2.6 0.8-3.8 1.3 -0.1 0-0.2 0.1-0.3 0.1 0.1-0.1 0.2-0.2 0.2-0.4 0 0 0 0 0.1 0 0.1 0 0.1-0.1 0.2-0.2 0-0.1 0.1-0.2 0.2-0.3 0.8-0.3 1.5-0.6 2.3-0.9C43.5 92.2 44.5 91.9 45.4 91.6 45.4 91.6 45.4 91.6 45.4 91.6zM46.8 90.8c-0.3 0.1-0.5 0.3-0.8 0.4 -1.4 0.4-2.8 0.8-4.1 1.3 -0.5 0.2-1.1 0.4-1.6 0.6 0.1-0.1 0.1-0.1 0.2-0.2 0.1-0.2 0.2-0.4 0.3-0.6 0.1-0.2 0.3-0.4 0.4-0.7 0.1-0.2 0.2-0.3 0.3-0.5 1.4-0.8 3-1.3 4.5-1.7 1.2-0.3 2.5-0.6 3.6-1.1 0.2-0.1 0.5-0.2 0.7-0.3 -0.1 0.1-0.1 0.1-0.2 0.2 -0.5 0.3-0.9 0.7-1.4 1 -0.3 0.2-0.5 0.4-0.8 0.6 -0.3 0.2-0.6 0.4-0.9 0.6C47 90.6 46.9 90.7 46.8 90.8zM49.8 90.4c-0.8 0.4-1.6 0.8-2.4 1.2 0 0 0 0 0 0 0.1-0.1 0.2-0.2 0.3-0.2 0.4-0.3 0.8-0.6 1.2-0.9 0.6-0.4 1.2-0.9 1.8-1.3 0.1-0.1 0.3-0.2 0.4-0.3 0.2-0.2 0.4-0.4 0.7-0.5 0.3-0.2 0.5-0.4 0.8-0.6 0.4-0.3 0.7-0.6 1-0.9 0.3-0.3 0.6-0.5 0.9-0.8 -0.5 0.7-0.9 1.3-1.4 2 -0.5 0.7-1 1.3-1.6 1.9C50.9 89.9 50.3 90.1 49.8 90.4zM55.3 88.2c-0.7 0.3-1.5 0.6-2.2 0.8 -0.2 0.1-0.4 0.2-0.7 0.2 0.4-0.4 0.7-0.8 1.1-1.3 0.9-1.3 1.8-2.5 2.7-3.8 0.2-0.2 0.4-0.4 0.6-0.5 0.2-0.2 0.4-0.4 0.6-0.5 0.4-0.4 0.8-0.8 1.2-1.2 0.6-0.6 1.2-1.2 1.7-1.7 0.1-0.1 0.1-0.2 0.2-0.2 0 0-0.1 0.1-0.1 0.1 -0.7 1.2-1.1 2.5-1.8 3.7 -0.7 1.2-1.4 2.4-2.3 3.4C56.1 87.5 55.7 87.9 55.3 88.2zM62.3 84.3c-0.2 0.2-0.3 0.4-0.4 0.6 0 0 0 0.1-0.1 0.1 -0.6 0.4-1.3 0.7-1.9 1.1 -1.2 0.7-2.5 1.3-3.9 1.9 0.2-0.1 0.3-0.3 0.4-0.4 0.9-1 1.6-2.2 2.3-3.4 0.4-0.6 0.7-1.2 1-1.9 0.3-0.7 0.6-1.4 1-2.1 0.3-0.5 0.6-1 1-1.5 0.3-0.3 0.6-0.7 0.9-1 0.9-1.2 1.8-2.4 2.6-3.6 0.2-0.4 0.5-0.7 0.7-1.1 0.2-0.3 0.4-0.6 0.6-0.9 0 0.1 0 0.2 0 0.2 -0.1 0.6-0.2 1.2-0.3 1.8 -0.2 1-0.5 1.9-0.7 2.9 -0.2 0.9-0.5 1.8-0.8 2.7 -0.3 0.6-0.5 1.3-0.9 1.9 -0.3 0.5-0.6 1-0.8 1.6C62.9 83.5 62.6 83.9 62.3 84.3zM65.4 82.7c-0.6 0.5-1.3 0.9-2 1.3 0 0-0.1 0-0.1 0 0 0 0 0-0.1-0.1 0-0.1 0.1-0.2 0.1-0.3 0.2-0.4 0.4-0.7 0.6-1.1 0.5-0.8 0.9-1.6 1.2-2.5 0.1-0.3 0.3-0.7 0.4-1 0.2-0.6 0.4-1.3 0.5-1.9 0.2-0.7 0.4-1.4 0.6-2.2 0-0.2 0.1-0.4 0.1-0.7 0 0.2 0 0.4 0 0.6 0.1 1 0.4 2 0.4 3 0 1-0.1 2.1-0.6 3C66.3 81.6 65.9 82.2 65.4 82.7zM68.3 80.4c-0.2 0.1-0.3 0.2-0.5 0.3 -0.4 0.3-0.8 0.5-1.1 0.8 0.1-0.1 0.2-0.3 0.3-0.4 0.5-0.9 0.6-1.9 0.6-2.9 0-1-0.2-1.9-0.4-2.9 -0.2-1 0-1.9 0.1-2.9 0 0.2 0.1 0.5 0.2 0.7 0.3 0.7 0.6 1.3 1 2 0.4 0.7 0.9 1.4 1.3 2.1 0.2 0.3 0.5 0.9 0.6 1.4C69.6 79.2 69 79.8 68.3 80.4zM71.3 76.2c-0.1 0.7-0.2 1.4-0.6 2 0 0-0.1 0.1-0.1 0.1 -0.1-0.3-0.3-0.7-0.4-0.9 -0.4-0.8-0.9-1.5-1.3-2.3 -0.4-0.7-0.8-1.4-1.1-2.1 -0.1-0.4-0.2-0.9-0.3-1.3 0 0 0.1-0.1 0.1-0.2 0.1-0.2 0.1-0.4 0.2-0.6 0.1-0.3 0.1-0.7 0.3-1 0.3-0.6 0.7-1.2 1.1-1.8 0.2-0.4 0.5-0.8 0.7-1.3 0 0.2 0 0.4 0 0.6 0.1 1.5 0.5 3 0.8 4.4C71 73.3 71.4 74.8 71.3 76.2zM74 75.4c-0.5 0.5-1 1-1.6 1.5 -0.1 0-0.1 0.1-0.2 0.1 -0.2 0.2-0.5 0.3-0.7 0.5 0.1-0.4 0.2-0.7 0.2-1.1 0.1-1.4-0.2-2.8-0.5-4.2 -0.4-1.6-0.8-3.1-0.9-4.8 0-0.2 0-0.4 0-0.7 0.1 0.3 0.3 0.6 0.4 0.9 0.5 0.9 1.1 1.7 1.8 2.4 0.7 0.7 1.6 1.4 2 2.3 0.2 0.4 0.3 0.8 0.3 1.2 0 0.2 0.1 0.5 0.1 0.8C74.7 74.7 74.4 75 74 75.4zM77.5 71.1c0 0.1 0 0.2-0.1 0.3 -0.2 0.2-0.3 0.4-0.5 0.6 -0.1 0.1-0.2 0.2-0.3 0.3 -0.3 0.3-0.5 0.7-0.8 1 -0.1 0.2-0.2 0.4-0.4 0.5 0 0 0 0.1-0.1 0.1 0-0.4-0.2-0.8-0.2-1.1 -0.3-0.9-1-1.6-1.7-2.2 -0.7-0.7-1.6-1.5-2.1-2.4 -0.3-0.5-0.5-1-0.7-1.5 -0.1-0.2-0.2-0.4-0.2-0.7 0-0.1 0-0.2 0-0.3 0.2-0.4 0.4-0.9 0.6-1.3 0.2-0.4 0.3-0.7 0.4-1.1 0.1 0.4 0.2 0.8 0.4 1.2 0.5 0.9 0.9 1.6 1.7 2.2 0.8 0.7 1.6 1.3 2.4 1.9 0.4 0.3 1 0.6 1.4 0.9 0 0 0.2 0.2 0.4 0.4C77.6 70.3 77.5 70.7 77.5 71.1zM77.7 69.6C77.7 69.6 77.7 69.6 77.7 69.6c-0.1 0-0.2-0.1-0.3-0.2 -0.1-0.1-0.3-0.2-0.5-0.3 -0.9-0.6-1.8-1.2-2.7-1.9 -0.4-0.4-0.9-0.7-1.3-1.1 -0.3-0.4-0.6-0.8-0.8-1.3 -0.2-0.4-0.4-0.8-0.5-1.2 -0.1-0.3-0.1-0.5-0.2-0.8 0.1-0.2 0.1-0.4 0.2-0.7 0.1-0.5 0.3-0.9 0.4-1.4 0.1-0.3 0.2-0.7 0.3-1 0.2 0.5 0.4 1 0.6 1.4 0.3 0.8 0.8 1.6 1.3 2.3 0.6 0.7 1.2 1.4 1.9 2 0.4 0.3 0.7 0.6 1 1 0.1 0.1 0.2 0.3 0.3 0.4 0 0.1 0 0.3 0 0.4C77.8 67.9 77.8 68.8 77.7 69.6zM80.8 65.8c-0.1 0.1-0.1 0.3-0.2 0.4 -0.3 0.6-0.6 1.3-0.9 1.9 -0.2 0.4-0.5 0.8-0.7 1.2 0 0 0 0 0 0 -0.2 0.3-0.4 0.5-0.7 0.8 0 0 0 0 0-0.1 0.3-1.1 0.2-2.2 0.1-3.3 -0.1-0.8-0.2-1.5-0.4-2.3 -0.1-0.7-0.3-1.4-0.5-2 -0.3-0.7-0.5-1.5-0.8-2.2 -0.2-0.6-0.4-1.3-0.6-1.9 -0.4-1.1-0.7-2.2-1-3.3 -0.2-0.7-0.3-1.4-0.4-2.1 -0.1-0.6-0.2-1.2-0.2-1.8 0.3 0.7 0.6 1.5 1 2.1 0.6 0.8 1.1 1.6 1.8 2.4 0.7 0.8 1.4 1.6 2.1 2.5 0.6 0.8 1 1.7 1.2 2.7 0.2 1 0.3 2.2 0.3 3.2C80.8 64.6 80.9 65.2 80.8 65.8zM82 62.4c-0.1 0.4-0.3 0.9-0.4 1.3 -0.1 0.5-0.3 0.9-0.5 1.3 0-0.3 0-0.7 0-1 0-1-0.1-2-0.3-3 -0.2-1-0.5-1.9-1.1-2.7 -0.6-0.8-1.3-1.6-1.9-2.3 -0.4-0.4-0.8-0.9-1.1-1.3 -0.3-0.4-0.6-0.8-0.8-1.3 -0.6-0.9-1-1.8-1.3-2.8 0 0 0-0.1 0-0.1 0.1-0.6 0.1-1.3 0.1-2 0 0 0 0 0-0.1 0-0.2 0-0.5 0-0.7 0.3 0.5 0.6 1.1 1 1.5 1 1.5 2.1 2.9 3 4.4 0.9 1.5 1.7 3 2.5 4.5 0.6 1.2 1.4 2.7 0.7 4.1C81.9 62.3 82 62.4 82 62.4zM82.5 59.9c0 0.2-0.1 0.5-0.1 0.7 -0.1-0.7-0.5-1.4-0.8-2.1 -0.8-1.5-1.7-3-2.5-4.5 -0.9-1.5-1.8-2.9-2.9-4.3 -0.5-0.7-1.2-1.6-1.6-2.5 0-0.1 0-0.2 0-0.2 0-0.6 0.1-1.1 0.1-1.7 0-0.2 0-0.4 0-0.6 0.1 0.3 0.2 0.6 0.4 0.9 0.8 1.5 1.7 2.9 2.7 4.3 1.1 1.5 2.4 2.8 3.4 4.3 0.5 0.7 0.9 1.4 1.2 2.2 0.1 0.2 0.2 0.4 0.3 0.7C82.7 57.9 82.6 58.9 82.5 59.9zM82.9 54.2c0 0.6 0.1 1.1 0 1.7 -0.3-0.6-0.6-1.1-0.9-1.6 -1-1.5-2.2-2.8-3.3-4.2 -1.1-1.4-2.1-2.9-2.9-4.5 -0.4-0.8-0.7-1.6-1-2.4 0 0 0-0.1 0-0.1 0-0.2 0-0.4 0-0.6 0.1 0.2 0.3 0.5 0.4 0.7 0.9 1.3 2 2.3 3.1 3.3 1.1 0.9 2.4 1.8 3.3 2.9 0.5 0.6 0.8 1.2 1.1 1.9C82.8 52.3 82.8 53.2 82.9 54.2zM82.2 47.4c0 0.3 0.1 0.6 0.1 0.8 0 0.4 0.1 0.7 0.1 1.1 -0.9-1.1-2.1-1.9-3.2-2.9 -1.2-1-2.3-2-3.2-3.3 -0.4-0.6-0.8-1.3-1.2-2 -0.1-0.2-0.2-0.4-0.3-0.7 0 0 0-0.1 0-0.1 0 0.1 0.1 0.1 0.1 0.2 0.3 0.4 0.7 0.8 1.1 1.2 0.8 0.8 1.6 1.6 2.4 2.4 0.8 0.7 1.6 1.5 2.5 2.1 0.4 0.3 0.9 0.5 1.2 0.8C82 47.3 82.1 47.3 82.2 47.4zM82.1 47.1c-0.3-0.2-0.6-0.4-1-0.6 -0.9-0.7-1.8-1.5-2.7-2.2 -0.8-0.8-1.6-1.6-2.4-2.4 -0.4-0.4-0.8-0.9-1.2-1.3 -0.1-0.2-0.3-0.4-0.4-0.6 0-0.2 0-0.4 0-0.6 0-0.4-0.1-0.8-0.1-1.2 -0.1-0.6-0.1-1.2-0.2-1.7 0-0.3 0-0.5 0-0.8 0 0 0 0 0.1 0 0.1 0.2 0.2 0.4 0.3 0.6 0.4 0.7 0.7 1.4 1.1 2 0.6 1.1 1.4 2 2.3 2.9 0.5 0.6 1.1 1.1 1.6 1.7 0.5 0.5 1 1 1.4 1.6 0.2 0.3 0.5 0.7 0.7 1 0.2 0.4 0.4 0.8 0.5 1.3C82.1 46.8 82.1 46.9 82.1 47.1zM80 39.6c0.3 0.8 0.7 1.5 1 2.3 0.3 0.6 0.5 1.2 0.7 1.8 0 0.1 0 0.2 0.1 0.3 -0.1 0-0.2-0.1-0.3-0.2 -0.3-0.4-0.6-0.8-1-1.1 -0.6-0.6-1.2-1.3-1.8-1.9 -0.8-0.8-1.6-1.7-2.2-2.6 -0.5-0.8-1-1.6-1.4-2.4 -0.2-0.3-0.3-0.7-0.5-1 0.1 0.1 0.2 0.2 0.3 0.3 0.5 0.6 1 1.2 1.5 1.7 1 0.9 2.1 1.6 3.3 2.2C79.8 39.3 79.9 39.5 80 39.6zM78.9 37.1c0.2 0.6 0.5 1.2 0.7 1.8 -1.1-0.6-2.2-1.3-3.1-2.2 -0.5-0.5-1-1.1-1.5-1.7 -0.2-0.2-0.5-0.5-0.6-0.7 -0.1-0.2-0.2-0.5-0.2-0.7 -0.2-0.8-0.4-1.5-0.4-2.3 0 0 0 0 0-0.1 0.3 0.6 0.6 1.1 1 1.6 1 1.2 2.2 2.3 3.6 3C78.6 36.2 78.7 36.6 78.9 37.1zM77.3 32.6c0.3 0.8 0.5 1.6 0.8 2.4 0 0.1 0 0.1 0.1 0.2 -0.4-0.3-0.8-0.6-1.2-0.9 -0.6-0.5-1.2-1.1-1.7-1.7 -0.5-0.7-1-1.4-1.2-2.2 0-0.1-0.1-0.3-0.1-0.4 0.4 0.4 0.8 0.7 1.2 1 0.6 0.4 1.3 0.5 1.9 0.7C77.1 31.9 77.2 32.3 77.3 32.6zM77.5 18.6c-0.2 0.1-0.5 0.2-0.8 0.4 -0.3 0.2-0.6 0.5-0.9 0.7 -0.4 0.3-0.7 0.6-1.1 1 -0.2 0.2-0.4 0.4-0.7 0.6 -0.2 0.2-0.7 0.8-0.7 0.8 -0.1 0.1-1 1.3-1.2 1.5 -0.4 0.6-0.7 1.3-1.1 1.8 -0.1 0.1-0.1 0.2-0.3 0.4 0 0 0 0 0 0 0-0.5-0.1-1-0.1-1.5 0-0.3 0-0.6 0-0.8 0-0.3-0.1-0.6-0.2-0.8 0.5 0 0.8-0.4 1.2-0.7 0.7-0.6 1.3-1.3 2.2-1.8 0.8-0.5 1.7-1 2.6-1.3C76.7 18.7 77.1 18.6 77.5 18.6 77.5 18.6 77.5 18.6 77.5 18.6zM79.1 17.6c-0.4 0.2-0.8 0.5-1.2 0.7 -0.2 0-0.3 0-0.5 0 -0.4 0.1-0.7 0.1-1.1 0.3 -0.8 0.3-1.5 0.7-2.3 1 -0.8 0.4-1.4 0.9-2 1.5 -0.3 0.3-0.6 0.5-0.9 0.8 -0.2 0.1-0.5 0.4-0.7 0.5 0-0.1-0.1-0.2-0.1-0.2 -0.1-0.6-0.3-1.1-0.5-1.7 0 0 0 0 0 0 0.1 0 0.2 0 0.3 0 0.5 0 1-0.1 1.5-0.3 1-0.4 2-0.9 2.9-1.4 0.9-0.5 1.8-1.1 2.8-1.5 0.5-0.2 1-0.3 1.5-0.4 0.5-0.1 0.9 0 1.3 0.3C79.8 17.3 79.4 17.5 79.1 17.6zM78.1 16.8c-1 0.2-2 0.6-2.9 1.1 -1 0.6-1.9 1.1-2.9 1.6 -0.5 0.3-1.1 0.5-1.6 0.7 -0.3 0.1-0.6 0.1-0.9 0.1 -0.1 0-0.1 0-0.2 0 -0.1-0.3-0.2-0.5-0.4-0.8 0 0 0.1 0 0.1-0.1 0.5-0.3 1-0.6 1.5-0.9 1-0.6 1.9-1.1 3-1.5 1.1-0.4 2.2-0.7 3.3-0.8 0.6-0.1 1.2-0.1 1.8-0.1 0.2 0 0.5 0.1 0.7 0.1 0.3 0.2 0.5 0.4 0.7 0.6 0 0 0 0 0 0.1C79.7 16.6 79 16.6 78.1 16.8zM80.7 15.4c0 0 0-0.1 0-0.1 0 0 0.1 0 0.1 0C80.8 15.3 80.8 15.4 80.7 15.4 80.8 15.4 80.8 15.4 80.7 15.4zM80.5 10.8c0.1 0.6 0.1 1.1 0.1 1.7 0 0.4 0 0.8 0 1.1 0 0.5 0 1-0.2 1.5C80.1 15 80 14.9 80 14.6c0-0.1 0-0.2 0-0.3 0-0.6 0-1.2 0-1.8 0-0.3 0-0.6 0-1 0-0.8 0-1.6 0.2-2.4 0.1-0.5 0.2-1 0.3-1.5 0.2-0.6 0.4-1 0.9-1.4 0.1-0.1 0.1-0.1 0.2-0.2 0.2-0.2 0.4-0.4 0.6-0.6 0.4-0.2 0.7-0.4 1.1-0.6 0 0 0 0 0 0 0 0 0 0.1-0.1 0.1 -0.3 0.4-0.6 0.7-0.9 1.1 -0.2 0.4-0.4 0.8-0.7 1.1 -0.3 0.5-0.5 0.9-0.8 1.4C80.6 9.4 80.5 10 80.5 10.8zM81.8 11.1c0.5-0.9 1.1-1.7 1.8-2.5 0.4-0.5 0.8-1 1.3-1.4 0.5-0.5 1.1-0.8 1.7-1.2 0.1-0.1 0.3-0.2 0.5-0.3 0.2-0.1 0.3-0.2 0.5-0.3 0 0.1 0 0.2 0 0.2 -0.2 0.2-0.3 0.3-0.5 0.4 -0.3 0.2-0.6 0.5-1 0.7 -0.1 0-0.1 0.1-0.1 0.2 -0.2 0.2-0.3 0.4-0.5 0.6 -0.4 0.3-0.8 0.7-1.2 1 -0.4 0.3-0.8 0.7-1.1 1.1 -0.3 0.4-0.7 0.9-1 1.4 -0.1 0.2-0.2 0.4-0.5 0.5C81.8 11.2 81.8 11.1 81.8 11.1zM81.3 13.7c-0.1-0.2-0.1-0.4 0-0.6 0.1-0.2 0.1-0.3 0.2-0.5 0.3-0.4 0.5-0.9 0.8-1.3 0.4-0.5 0.7-1.1 1.1-1.6 0.4-0.5 0.8-0.9 1.3-1.3C85 8.3 85.3 8 85.6 7.8c0.4-0.3 0.7-0.7 1.1-1 0.2-0.2 0.5-0.4 0.7-0.6 0 0 0 0 0.1 0 -0.1 0.1-0.2 0.3-0.3 0.4 -0.6 0.7-1.1 1.4-1.8 2 -0.9 0.8-1.7 1.6-2.5 2.5 -0.5 0.5-0.9 1.1-1.1 1.8C81.6 13.2 81.5 13.4 81.3 13.7zM88.4 16.5c0.3-0.1 0.5-0.1 0.8-0.2 0.4-0.1 0.8-0.2 1.2-0.2 0.7-0.1 1.5 0.1 2.2 0.1 0.1 0 0.3 0 0.4 0 0.7 0.2 1.4 0.3 2.1 0.6 0.1 0 0.2 0.1 0.3 0.1 0 0 0 0 0 0.1 -2.3-0.5-4.7-0.6-7-0.5C88.4 16.5 88.4 16.5 88.4 16.5zM95.6 21.4c-1.7-0.6-3.3-1.3-4.9-2C92.5 19.6 94.3 20.1 95.6 21.4zM91.1 20.1c1.1 0.5 2.2 0.9 3.4 1.4 0.5 0.2 1 0.4 1.5 0.6 0.1 0.1 0.2 0.1 0.4 0.2 0 0 0 0 0 0.1 -0.1 0-0.2 0-0.3 0 -0.8-0.1-1.6-0.1-2.4-0.2 -0.7-0.1-1.4-0.1-2-0.3 -0.6-0.1-1.1-0.3-1.6-0.6 -0.4-0.2-0.8-0.4-1.2-0.6 -0.5-0.2-1-0.6-1.5-0.9 -0.4-0.2-0.7-0.5-1.1-0.7L86 18.7c0.1 0 0.1 0 0.2 0 0.5 0.1 1 0.2 1.4 0.3 0.9 0.1 1.7 0.4 2.5 0.7C90.5 19.8 90.8 19.9 91.1 20.1zM88 17.6c-0.6 0-1.1 0.1-1.7 0.1 -0.4 0-0.8-0.1-1.2-0.1 0 0-0.1-0.1-0.2-0.1 0.6-0.1 1.1-0.2 1.6-0.3 0.9-0.1 1.8-0.2 2.7-0.2 0.1 0 0.2 0 0.3 0 0.1 0 0.2 0 0.3 0 0.5-0.1 1.1-0.1 1.6-0.1 1 0 3.4 0.5 3.6 0.5 1.2 0.2 2.3 0.7 3.4 1.3 0.1 0.1 0 0.2-0.1 0.2 -1-0.6-2.1-1.1-3.3-1.3 -0.2 0-0.4 0-0.6-0.1 0 0 0 0 0 0 -0.4 0-0.9 0-1.3 0 -0.3 0-0.5-0.1-0.8-0.1 -0.1 0-0.1 0-0.2 0 -0.2 0-0.4 0-0.6 0C90.3 17.4 89.2 17.5 88 17.6z"/></svg>
