<?xml version="1.0" encoding="utf-8"?>
<!-- Generator: Adobe Illustrator 22.1.0, SVG Export Plug-In . SVG Version: 6.00 Build 0)  -->
<svg version="1.1" id="Слой_1" xmlns="http://www.w3.org/2000/svg" xmlns:xlink="http://www.w3.org/1999/xlink" x="0px" y="0px"
	 viewBox="0 0 191 43" style="enable-background:new 0 0 191 43;" xml:space="preserve">
<style type="text/css">
	.st0{fill:#FFFFFF;}
</style>
<path class="st0" d="M37.8,4.6c0.9,0.1,1.6,0.2,2.3,0.4c0.9,0.3,1.1,0.6,1.2,2c0.1,1.3,0.1,4.9,0.1,8.3c0,4.9,0,8.5-0.1,10.4
	c0,1.5-0.4,2-1.3,2.2c-0.7,0.2-1.8,0.3-3.2,0.5c-0.1,0.2-0.1,1.2,0,1.4c2.2,0,5-0.1,7.5-0.1c4.6,0,8.4,0.2,12.1,0.2
	c2,0,2.2-0.3,2.4-0.7c0.7-1.4,1.7-5.1,1.9-6.2c-0.2-0.3-1.2-0.6-1.5-0.6c-0.7,1.5-1.5,3-2.3,3.9c-0.9,1.1-1.5,1.3-3.4,1.3
	c-2.2,0-4.9-0.1-5.7-0.3c-0.5-0.1-1-0.7-1-1.5c0-2.1,0-5.6,0-8c0-0.1,0.1-0.3,0.3-0.3c1.4,0,4.8,0,5.8,0.1c0.9,0.1,1.3,0.6,1.5,1.2
	c0.2,0.6,0.1,0.6,0.4,1.8c0.2,0.2,1.4,0.1,1.6,0c0-1.1-0.1-2.9-0.1-4.2c0-1.4,0.2-3.2,0.3-4.2c-0.2-0.2-1.4-0.3-1.6-0.1
	c-0.1,0.6-0.2,1.1-0.4,1.6c-0.3,1-0.6,1.4-1.5,1.4c-1.4,0.1-4.6,0.1-5.9,0.1c-0.1,0-0.3-0.2-0.3-0.3c0-2.6,0-6,0-8.7
	c0-0.2,0.2-0.7,0.5-0.8c0.6-0.1,5.2-0.1,6.2,0c0.9,0.1,1.5,0.4,1.9,1.3c0.3,0.7,0.5,1.5,0.7,3c0.2,0.1,1.3,0.1,1.6-0.1
	c0.1-2.2,0.4-5,0.7-6.3c0-0.1-0.1-0.2-0.2-0.2c-1.3,0.2-3.7,0.2-5.3,0.2h-8.7c-2.2,0-4.8-0.1-6.3-0.1C37.8,3.3,37.7,4.4,37.8,4.6"/>
<path class="st0" d="M116.6,4.6c0.9,0.1,1.6,0.2,2.3,0.4c0.9,0.3,1.1,0.6,1.2,2c0.1,1.3,0.1,4.9,0.1,8.3c0,4.9,0,8.5-0.1,10.4
	c0,1.5-0.4,2-1.3,2.2c-0.7,0.2-1.8,0.3-3.2,0.5c-0.1,0.2-0.1,1.2,0,1.4c2.2,0,5-0.1,7.5-0.1c4.6,0,8.4,0.2,12.1,0.2
	c2,0,2.2-0.3,2.4-0.7c0.7-1.4,1.7-5.1,1.9-6.2c-0.2-0.3-1.2-0.6-1.5-0.6c-0.7,1.5-1.5,3-2.3,3.9c-0.9,1.1-1.5,1.3-3.4,1.3
	c-2.2,0-4.9-0.1-5.7-0.3c-0.5-0.1-1-0.7-1-1.5c0-2.1,0-5.6,0-8c0-0.1,0.1-0.3,0.3-0.3c1.4,0,4.8,0,5.8,0.1c0.9,0.1,1.3,0.6,1.5,1.2
	c0.2,0.6,0.1,0.6,0.4,1.8c0.2,0.2,1.4,0.1,1.6,0c0-1.1-0.1-2.9-0.1-4.2c0-1.4,0.2-3.2,0.3-4.2c-0.2-0.2-1.4-0.3-1.6-0.1
	c-0.1,0.6-0.2,1.1-0.4,1.6c-0.3,1-0.6,1.4-1.5,1.4c-1.4,0.1-4.6,0.1-5.9,0.1c-0.1,0-0.3-0.2-0.3-0.3c0-2.6,0-6,0-8.7
	c0-0.2,0.2-0.7,0.5-0.8c0.6-0.1,5.2-0.1,6.2,0c0.9,0.1,1.5,0.4,1.9,1.3c0.3,0.7,0.5,1.5,0.7,3c0.2,0.1,1.3,0.1,1.6-0.1
	c0.1-2.2,0.4-5,0.7-6.3c0-0.1-0.1-0.2-0.2-0.2c-1.3,0.2-3.7,0.2-5.3,0.2H123c-2.2,0-4.8-0.1-6.3-0.1C116.5,3.3,116.4,4.4,116.6,4.6"
	/>
<path class="st0" d="M75,19.2c0.5,0.1,1.1,0.2,2,0.2c1.7,0,3.6-0.4,5.2-1.3c2.1-1.2,4.1-3.6,4.1-7.2c0-2.9-1.3-4.9-2.9-6
	c-1.8-1.3-4.4-1.5-5.7-1.5c-3,0-5,0-8,0.1c-2.2,0-4.6-0.1-5.7-0.1c-0.1,0.2-0.2,1.1-0.1,1.4c0.9,0.1,1.6,0.2,2.2,0.3
	c1.1,0.3,1.3,0.9,1.4,2.4c0.1,1.3,0.1,3.9,0.1,8.5c0,5.1,0,8.2-0.1,9.8c0,1.4-0.2,2.1-1.3,2.4c-0.7,0.2-1.4,0.3-2.3,0.4
	c-0.2,0.2-0.2,1.1,0,1.4c1.8,0,4.3-0.1,6.5-0.1c2.2,0,5.1,0.1,6.7,0.1c0.2-0.2,0.3-1.2,0.1-1.4c-1.1-0.1-2-0.2-2.7-0.4
	c-1.1-0.3-1.3-1-1.4-2.2c-0.1-2.3-0.1-7-0.1-10.2c0-6.2,0-8.6,0.1-9.8c0-0.3,0.2-0.6,0.3-0.6C73.6,5,74.4,5,74.6,5
	c3.9,0,5.9,2.7,6,6.7c0,2.7-0.7,4.4-2.3,5.3c-0.7,0.4-1.4,0.6-2.4,0.6c-0.7,0-1.1-0.1-1.4-0.1c-0.1,0-0.2,0.3-0.2,0.4
	C74.4,18.2,74.7,19,75,19.2"/>
<path class="st0" d="M101.3,19.2c0.5,0.1,1.1,0.2,2,0.2c1.7,0,3.6-0.4,5.2-1.3c2.1-1.2,4.1-3.6,4.1-7.2c0-2.9-1.3-4.9-2.9-6
	c-1.8-1.3-4.4-1.5-5.7-1.5c-3,0-5,0-8,0.1c-2.2,0-4.6-0.1-5.7-0.1c-0.1,0.2-0.2,1.1-0.1,1.4c0.9,0.1,1.6,0.2,2.2,0.3
	c1.1,0.3,1.3,0.9,1.4,2.4c0.1,1.3,0.1,3.9,0.1,8.5c0,5.1,0,8.2-0.1,9.8c0,1.4-0.2,2.1-1.3,2.4c-0.7,0.2-1.4,0.3-2.3,0.4
	c-0.2,0.2-0.2,1.1,0,1.4c1.8,0,4.3-0.1,6.5-0.1c2.2,0,5.1,0.1,6.7,0.1c0.2-0.2,0.3-1.2,0.1-1.4c-1.1-0.1-2-0.2-2.7-0.4
	c-1.1-0.3-1.3-1-1.4-2.2c-0.1-2.3-0.1-7-0.1-10.2c0-6.2,0-8.6,0.1-9.8c0-0.3,0.2-0.6,0.3-0.6C99.9,5,100.7,5,100.9,5
	c3.9,0,5.9,2.7,6,6.7c0,2.7-0.7,4.4-2.3,5.3c-0.7,0.4-1.4,0.6-2.4,0.6c-0.7,0-1.1-0.1-1.4-0.1c-0.1,0-0.2,0.3-0.2,0.4
	C100.7,18.2,101,19,101.3,19.2"/>
<path class="st0" d="M142.6,4.6c0.8,0.1,1.8,0.2,2.3,0.4c1.1,0.3,1.3,0.9,1.3,2c0.1,1.5,0.1,3.9,0.1,8.8c0,4.8,0,9.4-0.2,10.4
	c-0.1,1-0.3,1.5-1.2,1.8c-0.8,0.2-1.3,0.3-2.6,0.4c-0.2,0.2-0.2,1.2,0,1.4c1.3,0,3.6-0.1,6.5-0.1c3,0,8.6,0.2,11.9,0.2
	c1.7,0,2.2-0.2,2.3-0.6c1-1.6,2.3-6.4,2.6-7.7c-0.1-0.3-1.3-0.7-1.5-0.6c-0.7,1.7-2,3.9-2.8,5.1c-0.9,1.1-1.6,1.5-2.5,1.5
	c-2,0-5,0-6.1-0.3c-0.3-0.1-0.8-0.5-0.8-1.3c-0.1-1.4-0.2-6.2-0.1-10.8c0-4.3,0-7.4,0.1-8.4c0-1,0.2-1.5,1.2-1.8
	c0.5-0.1,1-0.2,2.1-0.4c0.2-0.2,0.2-1.2,0-1.4c-1.4,0-3,0.1-6.1,0.1c-3.3,0-4.6-0.1-6.2-0.1C142.5,3.3,142.4,4.3,142.6,4.6"/>
<path class="st0" d="M168.1,4.6c0.8,0.1,1.8,0.2,2.3,0.4c1.1,0.3,1.3,0.9,1.3,2c0.1,1.5,0.1,3.9,0.1,8.8c0,4.8,0,9.4-0.2,10.4
	c-0.1,1-0.3,1.5-1.2,1.8c-0.8,0.2-1.3,0.3-2.6,0.4c-0.2,0.2-0.2,1.2,0,1.4c1.3,0,3.6-0.1,6.5-0.1c3,0,8.6,0.2,11.9,0.2
	c1.7,0,2.2-0.2,2.3-0.6c1-1.6,2.3-6.4,2.6-7.7c-0.1-0.3-1.3-0.7-1.5-0.6c-0.7,1.7-2,3.9-2.8,5.1c-0.9,1.1-1.6,1.5-2.5,1.5
	c-2,0-5,0-6.1-0.3c-0.3-0.1-0.8-0.5-0.8-1.3c-0.1-1.4-0.2-6.2-0.1-10.8c0-4.3,0-7.4,0.1-8.4c0-1,0.2-1.5,1.2-1.8
	c0.5-0.1,1-0.2,2.1-0.4c0.2-0.2,0.2-1.2,0-1.4c-1.4,0-3,0.1-6.1,0.1c-3.3,0-4.6-0.1-6.2-0.1C168.1,3.3,168,4.3,168.1,4.6"/>
<path class="st0" d="M16.4,23.3c0.8,0.1,1.6,0.3,2.8,0.3c2.5,0,5.2-0.6,7.5-2c3.1-1.8,5.9-5.2,5.9-10.6c0-4.3-2-7.1-4.2-8.8
	c-2.7-2-6.4-2.2-8.3-2.2c-4.4,0-7.3,0.1-11.7,0.1C5.3,0.2,1.8,0,0.3,0C0.1,0.3-0.1,1.6,0.1,2c1.3,0.1,2.3,0.3,3.2,0.5
	c1.6,0.4,2,1.3,2.1,3.5c0.1,1.9,0.1,5.6,0.1,12.4c0,7.4-0.1,11.9-0.2,14.2c-0.1,2-0.3,3.1-1.8,3.5c-0.9,0.3-2,0.4-3.3,0.6
	c-0.3,0.3-0.3,1.6,0,2c2.7,0,6.2-0.2,9.4-0.2c3.2,0,7.4,0.2,9.7,0.2c0.3-0.3,0.4-1.7,0.1-2.1c-1.6-0.1-2.9-0.3-4-0.6
	c-1.6-0.4-2-1.5-2.1-3.2c-0.1-3.4-0.1-10.2-0.1-14.8c0-9,0.1-12.6,0.1-14.3c0.1-0.4,0.3-0.8,0.4-0.9c0.5-0.3,1.6-0.3,2-0.3
	c5.8,0,8.7,4,8.7,9.8c0,4-1.1,6.4-3.3,7.8c-1,0.6-2.1,0.9-3.5,0.9c-0.9,0-1.6-0.1-2-0.1c-0.1,0.1-0.3,0.4-0.3,0.6
	C15.5,21.9,16,23,16.4,23.3"/>
<rect x="27.1" y="36.4" class="st0" width="70" height="2.1"/>
<polygon class="st0" points="102.4,37.3 104.1,37.3 104.1,36.3 99.4,36.3 99.4,37.3 101.2,37.3 101.2,42.1 102.4,42.1 "/>
<path class="st0" d="M106.1,39.2c0-1.6,0.9-2,1.6-2c0.7,0,1.6,0.4,1.6,2c0,1.6-0.9,2-1.6,2C107,41.3,106.1,40.8,106.1,39.2
	 M104.9,39.2c0,2.7,2,3.1,2.8,3.1c0.8,0,2.8-0.3,2.8-3.1c0-2.7-2-3.1-2.8-3.1C106.9,36.2,104.9,36.5,104.9,39.2z"/>
<path class="st0" d="M112.8,37.3h1.4c0.6,0,0.9,0.2,0.9,0.6c0,0.5-0.4,0.6-0.9,0.6h-1.4V37.3z M112.8,39.6h1.5
	c0.4,0,0.9,0.2,0.9,0.7c0,0.6-0.3,0.9-0.9,0.9h-1.5V39.6z M111.6,42.1h2.5c2.1,0,2.3-1.2,2.3-1.7c0-0.6-0.2-1.1-0.9-1.4
	c0.2-0.1,0.7-0.4,0.7-1.2c0-0.6-0.4-1.5-1.8-1.5h-2.9V42.1z"/>
<path class="st0" d="M120,37.6L120,37.6l0.8,2.3h-1.6L120,37.6z M119.3,36.3l-2.1,5.8h1.3l0.4-1.2h2.1l0.4,1.2h1.3l-2-5.8H119.3z"/>
<path class="st0" d="M128.5,38.2c-0.1-0.9-0.8-2.1-2.5-2.1c-1.5,0-2.7,1-2.7,3.1c0,2,1.1,3,2.6,3c1.5,0,2.3-0.9,2.5-2.1h-1.2
	c-0.1,0.7-0.6,1.1-1.3,1.1c-1,0-1.5-1-1.5-2c0-1.6,0.9-2.1,1.5-2.1c1,0,1.2,0.7,1.3,1H128.5z"/>
<path class="st0" d="M134.6,38.2c-0.1-0.9-0.8-2.1-2.5-2.1c-1.5,0-2.7,1-2.7,3.1c0,2,1.1,3,2.6,3c1.5,0,2.3-0.9,2.5-2.1h-1.2
	c-0.1,0.7-0.6,1.1-1.3,1.1c-1,0-1.5-1-1.5-2c0-1.6,0.9-2.1,1.5-2.1c1,0,1.2,0.7,1.3,1H134.6z"/>
<path class="st0" d="M136.8,39.2c0-1.6,0.9-2,1.6-2c0.7,0,1.6,0.4,1.6,2c0,1.6-0.9,2-1.6,2C137.7,41.3,136.8,40.8,136.8,39.2
	 M135.6,39.2c0,2.7,2,3.1,2.8,3.1c0.8,0,2.8-0.3,2.8-3.1c0-2.7-2-3.1-2.8-3.1C137.6,36.2,135.6,36.5,135.6,39.2z"/>
<path class="st0" d="M150.7,38.2c-0.1-0.9-0.8-2.1-2.5-2.1c-1.5,0-2.7,1-2.7,3.1c0,2,1.1,3,2.6,3c1.5,0,2.3-0.9,2.5-2.1h-1.2
	c-0.1,0.7-0.6,1.1-1.3,1.1c-1,0-1.5-1-1.5-2c0-1.6,0.9-2.1,1.5-2.1c1,0,1.2,0.7,1.3,1H150.7z"/>
<path class="st0" d="M152.9,39.2c0-1.6,0.9-2,1.6-2c0.7,0,1.6,0.4,1.6,2c0,1.6-0.9,2-1.6,2C153.8,41.3,152.9,40.8,152.9,39.2
	 M151.6,39.2c0,2.7,2,3.1,2.8,3.1c0.8,0,2.8-0.3,2.8-3.1c0-2.7-2-3.1-2.8-3.1C153.7,36.2,151.6,36.5,151.6,39.2z"/>
<polygon class="st0" points="158.4,36.3 158.4,42.1 159.5,42.1 159.5,37.3 159.5,37.3 160.6,42.1 161.8,42.1 162.9,37.3 162.9,37.3 
	162.9,42.1 164,42.1 164,36.3 162.3,36.3 161.2,40.9 161.2,40.9 160.2,36.3 "/>
<path class="st0" d="M166.6,37.3h1c0.8,0,1.1,0.2,1.1,0.8c0,0.4-0.1,0.9-0.9,0.9h-1.1V37.3z M166.6,40h1.4c1.6,0,1.8-1.3,1.8-1.9
	c0-1.1-0.7-1.9-1.8-1.9h-2.7v5.8h1.2V40z"/>
<path class="st0" d="M173,37.6L173,37.6l0.8,2.3h-1.6L173,37.6z M172.3,36.3l-2.1,5.8h1.3l0.4-1.2h2.1l0.4,1.2h1.3l-2-5.8H172.3z"/>
<polygon class="st0" points="176.7,36.3 176.7,42.1 177.8,42.1 177.8,38 177.9,38 180.2,42.1 181.4,42.1 181.4,36.3 180.3,36.3 
	180.3,40.4 180.3,40.4 178,36.3 "/>
<polygon class="st0" points="182.4,36.3 184.4,39.9 184.4,42.1 185.6,42.1 185.6,39.9 187.5,36.3 186.2,36.3 185,38.8 183.8,36.3 
	"/>
</svg>
