<?xml version="1.0" encoding="utf-8"?>
<!-- Generator: Adobe Illustrator 22.1.0, SVG Export Plug-In . SVG Version: 6.00 Build 0)  -->
<svg version="1.1" id="Capa_1" xmlns="http://www.w3.org/2000/svg" xmlns:xlink="http://www.w3.org/1999/xlink" x="0px" y="0px"
	 viewBox="0 0 97.7 97.7" style="enable-background:new 0 0 97.7 97.7;" xml:space="preserve">
<style type="text/css">
	.st0{fill:#431B11;}
	.st1{fill:#FFFFFF;}
</style>
<g>
	<path class="st0" d="M48.9,0c-19.8,0-36,16.1-36,36c0,5.2,1.1,10.1,3.1,14.7C25,70.3,42.3,91.1,47.3,97c0.4,0.4,0.9,0.7,1.5,0.7
		s1.1-0.3,1.5-0.7c5.1-5.9,22.3-26.7,31.3-46.4c2.1-4.6,3.1-9.5,3.1-14.7C84.8,16.1,68.7,0,48.9,0z M48.9,54.7
		c-10.3,0-18.7-8.4-18.7-18.7c0-10.3,8.4-18.7,18.7-18.7S67.5,25.7,67.5,36C67.5,46.3,59.2,54.7,48.9,54.7z"/>
</g>
<circle class="st1" cx="48.9" cy="36" r="28.3"/>
<path class="st0" d="M50.8,40.2c0.8,0.1,1.6,0.3,3,0.3c2.6,0,5.4-0.7,7.8-2c3.2-1.8,6.2-5.5,6.2-11c0-4.5-2-7.4-4.4-9.2
	c-2.8-2-6.7-2.3-8.7-2.3c-4.6,0-7.6,0.1-12.2,0.1c-3.4,0-7.1-0.2-8.6-0.2c-0.2,0.3-0.3,1.7-0.1,2.1c1.3,0.1,2.4,0.3,3.3,0.5
	c1.7,0.4,2,1.4,2.2,3.6c0.1,2,0.1,5.9,0.1,13c0,7.7-0.1,12.5-0.2,14.8c-0.1,2.1-0.3,3.2-1.9,3.6c-1,0.3-2.1,0.4-3.4,0.6
	c-0.3,0.3-0.3,1.7,0,2.1c2.8,0,6.5-0.2,9.8-0.2c3.3,0,7.7,0.2,10.2,0.2c0.3-0.3,0.4-1.8,0.1-2.2c-1.6-0.1-3-0.3-4.2-0.6
	c-1.7-0.5-2-1.5-2.2-3.4c-0.1-3.6-0.1-10.7-0.1-15.4c0-9.4,0.1-13.1,0.1-15c0.1-0.4,0.3-0.9,0.5-0.9c0.5-0.3,1.7-0.3,2.1-0.3
	c6,0,9,4.2,9.1,10.2c0,4.2-1.1,6.7-3.5,8.1c-1.1,0.6-2.2,0.9-3.7,0.9c-1,0-1.7-0.1-2.1-0.1c-0.1,0.1-0.3,0.4-0.3,0.7
	C49.9,38.7,50.4,39.9,50.8,40.2"/>
</svg>
