<svg xmlns="http://www.w3.org/2000/svg" viewBox="0 0 1166 650"><path d="M980.3 438.1l-2.1-8.8 -4.7 5.5c0.7 0.5 0.2 2-0.2 2.7L980.3 438.1z"/><path d="M969.7 438.8l0.3-4.3c-1.3 1.1-2.1 2.2-3 3.7C968.2 437.9 969.4 438.4 969.7 438.8z"/><path d="M605.7 104.9c1.2 0.1 1.3-1.1 2.1-1.4 -0.7-0.8-1.8-2.1-1.8-2.1 -1.2-0.1-2.3-0.2-2.4 1C603.4 103.9 604.1 104.8 605.7 104.9z"/><path d="M607.8 123.5c-1.6-0.1-1.2 0.7-2 0.6 -0.5 1.1-0.1 1.6-0.2 2.3 -0.1 1.2 1 2.8 3.3 3 -0.1 1.2 0.7 1.6 1.4 1.7 0.8 0.1 3-3.7 3-3.7C613.5 125.1 609.3 123.6 607.8 123.5z"/><path d="M606.6 117.9c-0.1 1.6 2.2 1.7 3 2.2 1.5 1.3 1.2 4.4 3.6 4.6 3.1 0.2 3.7-2.4 6.1-3 1.6-0.3 5.9-0.3 6.1-2.7 0.1-1.6-2.6-2.2-2.4-4.1 0.1-1.6 2.9-1.7 3-4.1 0.2-1.9-1.3-3.2-2.9-3.4 -1.6-0.1-1.9-6-3.8-6.2 -1.2-0.1-1.3 1.1-1.3 1.5 0 0-2.5 1.8-2.9 2.1 -1.2-0.1-4.4 1.6-4.6 3.2 -0.1 1.6 1.8 2.1 1.7 2.9 -0.2 1.9-1.9 4.5-3.9 4.4 -0.1 0.8-0.1 1.2-0.1 1.6C607.5 117.2 606.7 117.5 606.6 117.9z"/><path d="M616.2 125.7c-0.5 1.9-0.2 2.7-1.1 3.8 -0.5 1.1-3.3 2.1-3.4 3.3 -0.2 1.9 3.7 2.2 3.5 4.6 -0.2 2.3 0.8 4.4 2.8 4.5 3.9 0.3 5.5 4.7 9.8 5.1 2.7 0.2 4.8-0.8 5-3.5 0.2-2.3-1.7-2.9-1.6-4.8 0-0.4 0.9-1.9 0.9-1.9 0.4-4.7 0.4-5.4 0.6-7.8 0.2-2.3-0.8-4.8-2.8-4.9 -1.2-0.1-0.9 1.1-0.9 1.9 -0.9 1.9-2.3 3.7-3.5 4.4 -0.3-0.8-0.7-1.2-0.6-2 0.1-1.6 1.8-2.6 1.9-4.2 0.2-1.9-0.7-1.6-2.2-1.7C624.3 122.4 617.1 124.2 616.2 125.7z"/><path d="M634.1 161.9c1.6 0.1 2.5-1.4 3.3-2.1 2.1-1.8 4.9-2.7 7.7-3.3 3.2-0.9 6.9-3 7.2-7.3 0.2-2.7-4-8.5-6-8.7 -2.7-0.2-3.7 2.1-3.9 4.4l-1.2-0.1 0.2-2.3 1.5-4.6c0 0 0.1-0.8 0.1-1.2 0.1-0.8-0.7-1.6-1.4-1.7 -0.4 0-3 2.9-3.4 3.7l-0.3 3.9c-1.1 3.8-1.7 6.9-3.1 9.5l-0.3 3.5c-0.8 0.7-1.8 3.4-1.9 4.5C632.6 161.4 633.3 161.8 634.1 161.9z"/><path d="M1142.4 516.4c-0.1 1.6 0.2 2 0.6 2.8 0.9 4 0.1 9 5.1 9.4l0.1-1.2c-0.7-0.8-2.1-3.3-2-4.8 0.2-2.7 0.2-2.7 0.4-5.4 0.1-1.2 1.5-3.8 1.9-4.5l0.2-2.7C1145.6 510.4 1142.7 512.5 1142.4 516.4z"/><path d="M1154 488.4c0.2-2.3 1.8-2.6 2-5.3 0.1-0.8-0.6-2.4-1.4-2.5 -3.1-0.2-1.3 6.9-6 6.6 0 0.4-0.1 0.8-0.1 1.2 -0.1 1.6 0.6 2.4 0.5 3.6 -0.1 1.6-0.3 3.9-0.5 6.2 0.3 0.8-0.7 3.5 0.4 4.7 0.4 0.4 1.6 0.1 1.5 1.3 -0.2 1.9-0.7 3.5 0.8 4.4 0.2-1.9 1.4-2.6 1.6-5 0.1-1.9-1.3-3.6-1.1-5.6 0.1-1.6 2.5-1.8 2.6-3.7C1154.5 491.9 1153.8 491.1 1154 488.4z"/><path d="M1156.3 514.4c-1.2-0.1-1.7 1.8-1.8 3.4 -0.1 0.8 0.7 0.8 1.1 1.3 0.4-0.8 2.2-3.4 1.8-3.4C1156.6 515.6 1156.7 514.4 1156.3 514.4z"/><path d="M1157.8 459.7c-0.2 2.3-0.7 3.9-0.9 6.2 -0.3 3.5 1.1 5.6 2.1 8 0.4 0 1.9-4.5 1.9-4.9 0.1-1.2 0.3-4.3 0.6-7C1161.8 459.2 1158 457 1157.8 459.7z"/><path d="M1160.9 435.3c-0.2 1.9 1.7 2.9 1.6 4l-0.2 2.3c0 0 0.7 0.8 1.1 0.9 0.8 0.1 0.8-0.7 0.9-1.9 0.3-3.5-1.2-4.8-2.2-6.8C1161.8 433.8 1161 434.5 1160.9 435.3z"/><path d="M1160.9 430.2c-0.1 0.8 0.3 1.2 1.1 1.3l0.4-0.4c0-0.4 0.1-1.2 0.2-1.9l-1.1-0.9C1161 429.1 1161 429.1 1160.9 430.2z"/><path d="M1162.8 421c-0.8-0.1-1.1-1.3-1.8-1.3 0 0.4-0.1 1.2-0.1 1.6 0 0.4 0.3 1.2 0.7 1.2 0.4 0 1.2-0.7 1.6-1L1162.8 421z"/><path d="M1160.8 416.1c-0.3-0.8-1-1.6-2.2-1.7l-0.1 1.6c0.4 0 0.7 0.8 1.1 0.9C1160 416.9 1160.4 416.1 1160.8 416.1z"/><path d="M1155.3 401.6c-0.1 1.6 0.6 2 1.4 2.1 0.8 0.1 1.3-1.5 1.3-1.9 0.1-1.2 0.1-1.2 0.1-1.6 -0.4-0.4-0.7-0.8-1.1-0.9C1155.5 399.3 1155.4 400.9 1155.3 401.6z"/><path d="M1154.7 394.5c-0.1 0.8 1.5 0.9 1.9 0.9 0.4 0 0.4-0.4 0.5-0.7l-1.1-1.3C1155.5 393.4 1154.7 393.8 1154.7 394.5z"/><path d="M1151.8 386.1c0.7 1.2-0.2 3.1 1.3 3.2 -0.1 1.9 0.6 2 1.8 2.1 1.2 0.1 1.6-0.7 1.7-1.8 -0.7-1.2-2.4-3.7-4-3.8C1152.2 385.7 1151.8 386.1 1151.8 386.1z"/><path d="M1149.6 378.9c1.2 0.1 1.6-1 1.7-1.4 0.1-1.2 0.3-3.9 0.5-6.2 -1.4-2.5 0.4-5.4-1.9-5.6 0 0-1.9-0.9-2.3-1 0 0.4-0.2 2.7-0.2 2.7 -0.2 1.9 1 1.6 0.9 4 -0.1 1.6-1.3 1.9-1.5 3.8C1146.7 376.3 1148.9 378.8 1149.6 378.9z"/><path d="M1149.3 363.6c1.6 0.1 2-0.2 2.5-1.4l-2.2-1.7c-1.2-0.1-1.1-0.5-1.9-0.9 -0.1 1.2-0.2 1.9-0.2 2.3C1147.4 362.7 1148.1 363.5 1149.3 363.6z"/><path d="M1144.1 369.1c0.1-1.2 0.1-1.2 0.2-2.7 -0.8-0.1-1.5-0.5-1.9-0.5 -0.4 0-1.7 1-1.7 1.8 0 0.4 1.9 1.3 2.2 1.3C1143.4 369 1143.8 369 1144.1 369.1z"/><path d="M1154.8 242c-0.8-0.1-1.6-0.1-2.3-0.2 -1.9-0.2-4.3-0.3-5.4-1.6 -1.2 0.3-0.8 0.7-1.7 1.4l-0.2 2.3c1.9 0.5 3.1 0.2 6.6 0.5C1154.2 244.7 1154.3 243.5 1154.8 242z"/><path d="M1161.5 236.2l2.4-0.6c0.1-1.2 0.8-0.7 2.1-1.4 -0.3-1.2-1.5-1.3-2.6-1.4 -2.3-0.2-4.4 0.8-4.5 2.4 0 0 0.7 0.8 0.7 1.2L1161.5 236.2z"/><path d="M968.5 42l1.8-22.9c-6 2.3-9.9 7-10.6 14.8C959.2 40.9 963.5 41.2 968.5 42z"/><path d="M486.4 64.3c0.4 0 0.8 0.1 1.6 0.1 -0.1 0.8 0.7 1.6 1.8 1.7 0.8 0.1 0.3-3.5 0.3-3.5 -0.4-0.4-1.9-1.3-1.9-1.3l-5-0.4c-0.8-0.5-1.5-0.5-1.9-0.9 -0.8 0.7-0.4 0.7-0.5 1.5C480.5 65 483.7 64.1 486.4 64.3z"/><path d="M486.2 67.4c-0.8-0.1-1.3 1.1-2.4 1 -1.2-0.1-1.6-0.1-1.9-0.9 -0.8 0.7-0.9 1.9-1 2.7 -0.2 2.3-0.2 3.1 1.3 3.2 2.3 0.2 3.3-2.1 4.1-2 0.4 0 1.1 0.9 1.5 0.9 0.8 0.1 1.3-1.5 2.5-1.4 0.8 0.1 2.7 0.2 3.1 0.2 2.7 0.2 2.3 0.6 3.7-1.7l0.1-0.8c-0.8-0.1-1.9-0.2-1.9-0.9 0.2-2.3 0.5-1.1 0.2-3.1 -0.4 0-0.8-0.1-1.2-0.1 -2.3-0.2-3.1 4.8-5.4 4.7C487.6 69.1 487.3 67.5 486.2 67.4z"/><path d="M494.1 80.6c-0.1 1.6 1 1.6 1.8 2.1l0.8 0.1c0.2-1.9 1.9-3.8 2-4.9 -0.4 0-0.8-0.5-1.1-0.5 0 0-0.8 0.3-1.2 0.7C495.1 78.3 494.3 79 494.1 80.6z"/><path d="M525.7 86.6c-0.2 2.3 1.3 2.8 2.9 3 4.3 0.3 5.6-1.5 5.9-5 0.1-1.6-1.4-1.7-2.6-1.8l-0.2 1.9C531.2 86.6 525.9 84.2 525.7 86.6z"/><path d="M519.3 83.3c-0.8-0.1-1.1-0.9-1.9-0.9 -1.2-0.1-3.1 4.1-3.1 5.2 -0.2 1.9 1.7 3.3 4 3.4 3.9 0.3 6-1.9 5.2-6.6C522 84.3 519.6 85.3 519.3 83.3z"/><path d="M512.3 88.2c0.1-0.8 0.1-1.6 0.1-1.9 -0.4 0-0.8-0.1-0.8-0.1 -0.8-0.1-0.7-1.2-1.5-1.3 -1.9-0.2-4.5 3.2-4.6 4.3 -0.1 0.8 0.2 2 1 2 1.9 0.2 2.9-2.1 4.8-2C511.8 89.4 512.3 88.6 512.3 88.2z"/><path d="M502.4 89.4c0.4 0 6.6-4.6 3.9-4.8 -1.5-0.5-4.8 1.6-4.9 3.1C501.3 88.6 502.1 89.4 502.4 89.4z"/><path d="M509 95c-0.1 1.2 0.6 1.6 1 1.6 1.2 0.1 1.6-0.7 1.7-1.4 0-0.4-0.7-0.8-0.7-1.2C509.9 93.9 509.1 93.9 509 95z"/><path d="M511 80.3c0 0 0.4 0 1.2 0.1 0.1-1.2 0.9-1.1 1-2.3 0-0.4-0.7-1.6-0.6-2 0-0.4 0.5-1.1 0.5-1.5 0.1-1.2-1.5-1.3-1.5-1.3 -3.1-0.2-2.1-2.9-4.1-3.1 -0.8-0.1-0.5 0.7-0.5 1.1C506.8 74.1 508.2 80.1 511 80.3z"/><path d="M514.4 72c1.6 0.1 1.3-1.9 2.1-1.8 0.8 0.1 1.6 0.1 2.3 0.2 0.4 0 1.2 0.1 1.3-1.5 0.1-1.2-0.6-2-1.4-2.1 -0.8-0.1-1.3 1.1-1.4 2.2 -0.4 0-1.1-0.5-1.5-0.9l-3.9-0.3 -0.1 0.8C511.8 70.2 512.8 71.9 514.4 72z"/><path d="M523.4 82.1c1.2 0.1 2-0.6 2.1-1.4 0-0.4-0.3-0.8 0.1-1.2 -1.2-0.1-2.3-0.2-4.3-0.3 -0.4 0-0.1 0.8-0.1 0.8C521.1 80.7 521.4 81.9 523.4 82.1z"/><path d="M533.7 75c1.6 0.1 1.8-2.6 1.8-3l-1.9-1.3 -0.8-0.1c-0.1 0.8-0.1 1.2-0.1 1.6C532.6 73.4 532.9 75 533.7 75z"/><path d="M524.9 66.5c0.8 0.1 1.6-0.3 1.7-1 0-0.4-0.3-1.2-0.7-1.2 -0.4 0-0.8-0.4-1.1-0.5 -1.2-0.1-1.6 0.3-1.7 1.4C523.1 65.6 524.6 66.5 524.9 66.5z"/><path d="M1023 417.1c-1.4-1.7-3.4-2.2-4.4-4.3 -3.2 0.9-3.6 0.9-3.9 4.4C1019.4 418.4 1020.1 419.6 1023 417.1z"/><path d="M1088.5 219.2c-0.4 0-1.2 0.7-1.3 1.5 -0.1 0.8-0.1 1.6 0.3 1.6l0.4 4.7c-0.1 1.6 2.5 2.5 2.8 4.5 0.3 0.8 0.7 1.6 1 1.6 0.5-1.5-0.7-5.9-0.5-8.3 0.1-1.2 0.1-1.9 0.3-3.9L1088.5 219.2z"/><path d="M411.3 210.3c-1.1 3.4-0.1 1.6-0.4 4.7 -0.2 2.3-3.3 2.1-3.5 4.4 -0.5 6.6 8.6 10.4 12.6 13.5l2.3 0.2c-0.4-5.1-1.3-7.9-0.9-14.2 1.1-14 7-15.1 13.7-20.8 -0.7-0.4-1.1-0.9-1.1-1.3 1.6-0.3 4-0.9 4.4-1.2 -1.7-2.9-3.6-3.8-4.1-7.4 -1.9-0.1-5-1.6-4.9-1.9 -1.1-0.9-1.5-0.9-2.6-1.4 -0.9 1.9-1.5 3.8-2.4 5.3 -1.5-0.5-2.2-1.7-3.8-1.9l-2.7-0.2 -0.2 1.9c0.7 1.6 1.4 2.5 2.5 3.7 -0.8-0.1-4.3 0.1-4.8 1.2 -1.3 1.5-0.7 3.9-3 3.7 -1.6-0.1-1.8-2.5-2.9-2.6 -3.1-0.2-5 3.5-5.2 6.6C404.1 207 409.3 209.7 411.3 210.3z"/><path d="M436.1 187.5c1.5 0.9 1 2.4 1.2 4 0.3 1.6 4.1 2.7 6 2.8 2.3 0.2 1.4-3.4 1.6-5.4 1.5 0.5 2.2 1.3 3.4 1.4 0.5-1.9-0.9-3.6-0.4-4.7 0.7 1.2 1.3 2.8 2.5 2.9 1.6 0.1 1.7-1.4 1.7-2.2 0.2-1.9-1-2 0.2-3.1 0.3 0.8 1.4 2.1 1.8 2.1 1.9 0.1 4.3-5.1 5.5-5.8 0.7 0.8 1 1.6 2.2 1.7 1.2 0.1 0.9-1.9 2.1-1.8 0.8 0.1 4.3 0.3 5.9-0.3 1.2-0.7 0.6-2.7 2.2-3 6-2.3 9.2-2 17.1-3l12.8 1c5.6-1.9 13.1-2.9 13.8-11.1 0.4-5.4-7.3-6.4-7.4-5.7 -2.8 1-3.5 4.4-5.1 4.7 -1.2 0.3-3.1-0.6-3.9-0.7 -3.1-0.2-5.2 1.5-7.9 1.3 -4.3-0.3-5.9-4.4-10.2-4.7l-0.2 1.9 -8.9-0.7c-2.8 1-4.5 2.4-6.9 3 -0.8 0.3-1 2.7-2.2 2.6 -0.4 0-2.2-1.7-2.2-1.7 -1.7 1.4-2.1 1.8-3.7 2.1 -0.3-1.6-1.1-1.3-2.6-1.4l-0.2 2.7c0.7 0.4 1.1 0.9 1.4 1.7 -1.2-0.1-2.3-0.2-3.5-0.3 0.2 2 1 2.4 1.6 4.4 -1.6-0.1-2.3-1-2.6-1.8l-1.9-0.2c-0.1 1.9 0.2 2.4-0.3 3.5 -0.8 0.3-1.9-0.1-1.9-0.1 -2.3-0.2-1.4 3-2.7 4.9 -1.1-1.3-2.1-2.5-3.3-2.6 -2.7-0.2-7.5 1.4-7.7 3.3 -0.1 0.8 4.4 3.9 5.1 4.7 -1.2-0.1-2.7-0.2-2.7-0.2 -0.8-0.1-2.7-0.6-2.8 1.3C433 187.3 435 186.7 436.1 187.5z"/><path d="M365.3 232.9c2.3 0.2 3.6-0.9 5.1-0.8 2.3 0.2 3.1 0.2 4.3 0.3 0.4 0 1.9 0.2 2.1-1.4 0.1-1.2-1-2.8-1.7-2.9 -0.8-0.1-2.3-5.3-2.7-6.1 -3.5 0.1-8.4 2.1-8.8 7.1C363.4 231.6 363.3 232.7 365.3 232.9z"/><path d="M68 232.4l0.8-0.7c2.1-1.8 7.1-1.4 7.5-6.5 -0.1-3.5-1.1-6.3-2.1-8.8 -0.4-0.8-0.7-1.5-1-2.2 1-0.8 1.8-1.6 2.2-2.4 -1.2-0.1-3.5-0.3-3.5-0.3 -1.8-0.1-3.1-0.5-4.1-0.8 -0.3-0.2-0.6-0.4-0.9-0.7 0 0.1 0 0.2 0 0.4 -2.6-1.2-3-2.6-5.8-1.2 -2 1-4.3 0.4-3.1 4.5C60.3 220.9 65.3 226.7 68 232.4z"/><path d="M426 241.9c-0.5 1.5-4.1 2.4-4.3 4.4 -0.1 0.8 5.2 9 5.6 9 1.9 0.2 3.7-1.7 3.8-3.6 0.1-0.8-1.3-4-2.4-4.1 -0.8-0.1 0.2-2.7 0.2-2.7C429 243.7 426.7 242.8 426 241.9z"/><path d="M404.9 216.8c0.4 0 1.6 0.1 1.6-0.7 0.2-1.9 0.2-1.9 0.3-3.9 0.2-1.9-0.1-3.5-2.1-3.7 -1.6-0.1-1.6-0.1-1.7 1.4 -0.2 1.9 1.3 3.2 1.2 4.8C404.2 216 403.3 216.7 404.9 216.8z"/><path d="M504.9 223l0.2-1.9c-1.6-0.1-1.6-0.1-2.3-0.2 -1.9-0.1-5.2 1.2-5.4 3.9 -0.1 1.2 1.8 2.1 2.6 2.2 2.3 0.2 3.6-0.5 5.8 0.5l0.1-1.9c-1.2-0.1-1.9-0.9-2.3-1C504.5 224.2 504.9 223.4 504.9 223z"/><path d="M516.2 234.5c0.7 0.8 3 1 4-0.9 -1.9-0.2-2.3-1-3.8-1.5L516.2 234.5z"/><path d="M525.6 248.9c-0.1 1.2 1 1.6 1.8 1.7 1.2 0.1 6-1.9 6.1-3 0.1-0.8-2.2-1.7-3.4-1.8C529.6 247.6 525.8 246.9 525.6 248.9z"/><path d="M1076.6 493.3c-3.2-3.4-2.1-8.8-5.7-12.6l1.1-8.5c2.5-6.5 10.7 3.6 17.9 1.8 -9.4-5-9.2-7.8-15.6-11 -10.2-5.1-21.4-11.8-27.8-19.8 -9.2-12.1-9.2-17.1-22.8-23.7 -1.1 4.2 5.1 9.8-3.4 8.7 -5.8-0.4 7.6 7.6 8.6 15.5 2.1 3.3 2 4.8 4.1 8.1l1.9 0.1c11.2 2 25.1 23.9 29.8 38.7 15.5 7.5 14.8 25.8 29.7 35.2 -0.1-4.3-5.3-11.8-3.6-13.6 2.1-1.8 3.8-3.2 6.5-3 2.7 0.2 3.7 2.2 7.9 3.7C1101.9 500 1081.8 507 1076.6 493.3z"/><path d="M1146.2 332.5c-1.8-6.8-4.8-3.1-9.4-9.3 -1.8-2.5 0.4-10.5 2.8-11.1 12-3.8-7.7-1.8-10.1-16.4 -0.7-5.9-1.9-6 1.1-8.5 13.3-10.3-8.7-13.2-11.1-18.5 -11.7-25.2 5.2 3.9 3-13.8 -1.8-1.7-4.5-3.1-9.6-2.7 -4.6-1.1-7.3-1.7-9-4.6 -0.7-1.2-1.3-3.2-1.5-6.4 0 0-2.4-4.1-6 1.5 -1.7 1.8 3.3 8.1-2.1 6.9 -4.9-2-12.3-22.5-18.8-30.4 -3.9-5 0.2-7.4 5.3-7.8 1-2.3 0.3-3.5-2.6-6.1l0.7-8.9c1.8-3.4 5.4 5.9 7.7 6.1 4.8-0.8-4.4-9.3-4-13.6 2.1-22.1 20.6-12.9 18.8-15.7 -3.9-5.8-8.5-21.4-12.5-45.2 -2.7-0.2-4 1.6-6.4 1.5 2.3 0.2 3.3-1.7 6-1.5 -1.1-6.3-1.7-13.8-2.6-21.3 -0.9-3.6 9.5-6.7 10-12.5 0.3-3.5-2.5-8.4-10.3-7.8 -12.6 1.4-20.7-5.5-27.6 8 -5.1 5.1-11.3-0.9-6.8-3.7 4.6-3.6 10.5-3.5 9.9-11.7 -0.8-20.4-16-11-19.2-19.1 -0.1-9.4 18.1 4.1 15.3-10.5 -0.5-8.6 3.7-6.8 6.3-6.2 12.3 2.9 7.6-6.8 12.7-7.2 7.9-0.6 11.4-10.5 8.8-12.6 -12.2 5.3-7.9-9.2-19.3-3.8 -6.1 2.7 10.9-9.7-4-19.1 -10.2 5.1-19.7 6.3-21.2 21.4 0 0 6.8-1.4 11.2 2 -0.8 5.4-0.5 6.6-6.3 6.2 -3.5-0.3-6.6-6.4-17.4-2.9 -14.3 13.4-33.4 17-45.9 32 -3.5 4.4-6.8 12-10.7 17.2 -6.1 8.1-11.6 13.6-9.8 15.3 5.9 5.2 6 2.8 11.8 4.1 5.3-2.3 5.4 6.3 5.4 6.3 -2.5 1.8 0.3 6.7-8 2.9 -3.5 4.8-7.7 3.3-11.8 0.3 -3.3-2.2-0.1 6.3-2.5 12.3 -2.4 6.5-13.1 7.2-13.8 16.5 0 0.4-0.1 1.2 0.2 2 0.8 4.8 4.7 10.1 6.9 12.3 5 10.9-10.9-10.2-16.9-4.1 -4.7 4.3-0.5-3.6-12.8-6.9 -11.5-2.9-20.3 10.1-20.8 15.6 -0.2 3.1-3 18.5-15 11.4 -9.9 1.2-13.8 6.7-13.6 3.6 0.3-3.1 4.7-10.2-9-5.4 -11.2 2.6-0.6 18.3-6.2 19.9 -0.9 1.5-0.3-11-2.4-9.2 -1.7 1.4-3.7 2.5-5.8 3.9 -3-2.2 5.4-3.9 3.7-7.5 -7.5 1-16.6 12-25.4 9.8 8.4 8.1-0.8 5.4-2.4 15.9 7.4 1 5.5-9.7 8.2 4.9 9.1 3.8 4.1 7.4-3.1 4.5 -6.2 4.6 8.8 12.8-3.4 8.3 -11.3-0.9-6.5-2.5-13.9 7.5 -6.7 5-9.7-5.5-10.2 0 -0.4 4.7 8.1 21.4-3.3 17.3 -7.6-2.6-12.8-6.9-12-16.2 -0.5-3.2-7.7-1-6.5-6.4 -3.2-3.8 1.5-8.5-14.2-8.2 -1.4 8.5-13.6-0.7-17.6 4.5 -2.8 1.3 2.5 7.6 3.2 9.6 2.9 8-8.3 6-15.1 8.2 -12.1 4.1-6.4-8.7-10-6.7l-12.7 1.8c-2.5 1.8-8.7 6-10 3.1 -2.3-5.3-2.2 3-10.2 0.4l-1.2-0.1c-0.8-0.4-1.5-0.9-2.6-1.8 -11.9 2.6 2.6 7.2-1.5 9.3 -4.6 8.3-14.4 8.7-18.2 13.1 0.3-9.4 25.8-29.3 27.2-48 0.5-7-10.1-20.7-16.7-21.3 -2.3-0.2-7-0.5-9.5 0.8 -1.3 6.9-4.7 5.5-7.1 5.3 -2.3-0.2 12.7-11.9-9-10.1 -2.2-1.7 9.1-1.6 3.4-8 -4.9-2.7-8-2.2-8.6-0.3 -2.5 2.2-5 8.2-7.9 11.1 -3 3.3 4.8 8.6-3.6 11.5 0 0-11-4.4-1.3 6.2 -4.1-2.3-4.6-1.5-5.7-1.6 -0.4 0-5.2 5.9-7.5 5.3 -2.3-0.6 4.4-6.3 0.1-6.6 -5.4 3.9-8.4 2.9-11.6 3.4 -7.8-0.6 0.5 3.6-2.4 5.3 -2.1 1.4-9.5 1.2-13.6 4 -7.4 4.1-11.6 8.9-15.5 13.6 -4.3 4.4 8.7 24.5-2.6 13.9 -11.1 1.5-15.3 0-21.9-0.5 -9.3-0.7-11.2 3-7.2 12 1.3 2.8-5.4 9 2.1 12.7 2.9-1.7 1.3 8.3 4.6 6.2 3.1 4.9 4.5 7-1.4 12.4 0 0 3.5 10.1 2.1 12.7 -5.7 8.6-5.5 5.4-6.5 3 7.3-13.1 2.1-17.4-2.9-3 0.2-2.3 3.4-13 5.1-15.2 9.3-13.4-2.8-3.7-4.7-9.8 -2.2-6.4-4.6-6.6-9.2-12.5 0 0.4-0.8 0.7-2 0.6 -2.4 0.2-5.5 0.4-6 1.9 6.4 7.9 0.2 7.4-6.7 0.3 -1.7 2.2-8.3 6 4.4 13.3 0 0 5.2 8.2 1.6 9.9 -2.2-1.3-2.4-4.9-4.5-7 -5.4-0.4-8.9-5.8-9.2-7.8 0.1-5.9 3.4-9.1 5.8-13.6 0 0 1.6-5 0.8-10.9 -4.7-4.7-3.5 14.6-7.7 13.5 -9.1 1.2-9.3 4.4-10.4 8.2 -2.1 6.5 3.8 17.1-1.9 19 -2.4 5.3-4.6 9.4-4.9 13.3 -0.5 7-2.3 10 10.8 7.5 5.4 1.6 7.7 7.2 8.3 13.9 0.7 6.7-4.6 4.3-5.8 8.6 -0.8 5 7.9 8.4 7.5 9.6 -4.7 0-9.5-3.5-9.2-7 0.3-3.5 1.7-6.1 4.4-11.4 -3.7-3.4-1.9-10.7-10.6-10.2 -7.1 0.2-8.2 4.5-7.3 19 -8.1 3.3-6.1 3.4-8.4 7.2 -6.6 9.7-12.2 1.4-15.3 10.2 -5.3-6.7-13.8-4.2-13.3-9.6 0.2-2.7-6.5-6.4 1.6-5.4 4.6 0.8 1.2 9.1 8.2 9.6 5.5 0 9.2-12.2 18.2-17.4 2.9-11.9 10.5 1.2 3.3-17 -3.3-7.7 6.1-22.6 10.1-29.3 4.1-7.1-3.4-6.1-0.4-14.9 2.9-7.6 6-1.5 9.6-12.6 1.6-5.7 0.2-7.4-6.6-10.7 -6.4-3.6-6-7.9-10.9-0.8 -1.7 2.2-6.5 18.7-19.8 18 -8.3 6.8 4 9.3-3.4 13.4 -1.8 8.5-12.9 9.9-5.1 15.2 4.8 3.1 1.7 8 4.2 11.3 0 0 0.9 7.9-3.8 7.9 -5.5 0.3-8.3-13.6-13.1-22.9 -0.3-0.8-1-2.4-1.3-3.2 -3.1-5.7-12.6-8.4-16.5-14.6 0 0-1.5-0.5-5.1 0.8 -2.4 1 0.4 5.1-1 7.4 1.4 12.6-6.1 2.7-8.3 5.6 1.1 5.6-6.6 9.7-5.2 1.5 0.3-3.9 7.2-2.6 4.2-8.7 -11.9 2.2-13.8 1.7-20.8-4.7 -9.1 5.9-6.8 1.4-9 0.5 -6.1-2.4-9-4.6-1.5-5.2 -0.4-4.3 15.6-4.3 3.2-6.4 -2.3-0.2-4.3-0.3-6.2-0.5 -1.9 3.8-4.9 7.4-6.6-0.5 -2.4 0.2-9 0.1-12.1-0.2 -11.3-0.9-13.6-6.1-24.3 5.5 -2.2 2.6-4.5-2.7-7.1-4.9 1.6-5-0.7-11.4-0.7-11.4 3.2-0.5 2-4.9 12.1 0.2 5.7 2.4 5-9 3.8-13 -4.8-3.5-8.4-12.4-8.7-9.3 -0.9 6.6 2.5 7.6-9.7 13.7 -11.8 6.1 4 8.5-6.2 14.4 0 0.4-1.1-0.9-4 1.3 -0.9 1.1-2.6 2.9-4.3 5.5 1.6-6.1-10.6-4 0.9-7 -1.3-3.6-3.7-8.1-6-7.9 -8.2 4.4-14-0.7-18.3-1 -10.5-0.8-5.7 12.9-10.2 15.6 -4.4-3.5-8.7-13.6-7.4-20.9 0.5-1.9-9.9-8.2-11.4 5.8 7.7 6.1 1.6 9.1-1.1 9.3 -4.1-0.7-5.9-2.7-6.2-5.3 0.1-0.1 0.2-0.1 0.3-0.2 -0.4-4.3 0.8-9.7 1-12.4 -0.4-4.7 1.7-6.5 6.6-14.7 11.2-3.4 9.3-9.1 9.9-21.5l0 0c0.1-1 0.2-2 0.2-2.7 4.1-17.7 1.9 5.2 6.1 12.6 1.9 15.4 9.1 28.5 22 29.5 12.8 1 19.1-8.7 18.1-21.7 -0.2-7.1-5.3-11.8-2.9-28.4 -4.6-5.8-1.8-6.4-5.7-12.6 -21.2-4 4-1.3-4.2-6.6 0.1-16.4 3.7 2.6 5.9-0.7 -2-4.5-0.4-9.8-6.3-9.9 -3.3 1.7-8.6-4.6-11.7-5.6 -13.1-3-18.1 1.7-18.6 13 0 10.6-9 5.6-14.7 8.2 -1.7 1.4-3 3.7-4 5.9 -3.6 6-6.8 12.4-13.7 10.7 -1.5-0.5-1.2 5.4-6.3 5 -0.2 7.4-2.2 8-5.3 7.8 -0.7 9.3-3.4 8.7-9.3 8.3 0.4 14.5-3.4 18.1-4.9 18 0 0-15 1.6-27.8 0.6l-0.4 0c-4.7-0.4-8.5-1.1-11.9-2.5 -1.4 3.4-3.3 6.8-3.5 9.9 -1.6 5 5.7 6.7 2.1 12.7 -3.1 4.8-2.3-5.3-3.7-7.7 -3.4-1.8-5.3-2-6.4-2.8 -4-4.2-5.1 0.4-6.2-0.5l-0.3 3.5c-3.9-0.3-5-0.8-5.3 3.1 0.1-1.6 0.2-2.3 0.6-2.7l-0.4 0 -6.6-0.5c-2.2 3.7-5 3.9-7.2 6.5 -1.3 1.5-1.4 3.4-3.1 4.8 -1.2 0.7-4.2-0.7-5.9 0.3 -2.1 1.4 0.1 3.9-0.5 6.2 -0.4 0.4-4.8 1.6-4.8 1.6 -2.9 2.1-3.3 7.2-5.1 9.8 -0.9 1.5-2.8 1.3-3 3.7 -0.3 3.9 3.2 4.6 3 7.3 -0.2 1.9-2.9 2.1-3.1 4.1 -0.1 0.8 5.6 3.2 5.9 4.8 0.6 2.4-0.5 6.2 1.8 6.4 -0.9 1.9-2.1 1.8-4.1 2.4 -2.8 1.3-1.6 5.7-7.8 5.3 -1.1 4.2-2.5 6.5-3.5 9.9 -0.6 2.3 0.9 3.2 0 5.1 -0.9 1.1-2.8 0.6-3.6 0.5 -0.2 2.7 2.9 3.4 2.6 6.5 -0.1 1.2-0.9 1.9-1 3.1l-0.5 1.1c-1.2 0.3-0.9 1.9-2.1 1.8 -5.1-0.4-5.7-7.5-9.6-7.8 -1.9-0.2-1.4 3-1.5 3.8 -0.3 3.9-8.1 3.7-8.5 9.1 -0.2 2.7 0.9 3.6 2.8 3.7 1.6 0.1 2.4-0.6 2.8-1.3 1.4 2.1 2.4 4.9 3.4 6.5 2.2 2.1 7.3 1.4 7 5.6 -0.1 1.9-1.9 3.8-2.3 4.9l0.1 3.5c0.5-0.8 1.3-1.5 2.5-2.1 -1.6 1-3 3.7-4.2 3.6 -0.4 0-1.1-1.3-1.1-1.3 -2 0.6-5.3 3.1-5.5 5 -0.2 3.1 2.4 4.1 3.5 5.7 1.4 1.7 0.1 3.9 0.4 5.1 0 0 0 0 0 0 -1.2 1.1-1.5 2.7-2.3 3.7 -0.9 1.5-3.7 1.7-3.8 3.6 -0.3 3.9 2.9 3 3.9 4.6 1.3 2.8-0.4 5.1 1.4 6.8 1.5 1.3 6.5 1.7 6.4 3.6 -0.1 1.2-0.3 3.5-0.3 4.3 -0.2 1.9-1 3 0 5.1 0.6 2 3.1 1 3.7 3 1.3 3.2 3.6 8.9 3.6 8.9 -0.1 1.1 1.2 6.9 1.9 8.5 0 0.6 0.2 1.6-0.1 2.6 -1.7 2.2-4.8 1.6-7.9 1.3 -0.1 1.9 1 2.4 0.9 4 -3.1 0.1-3.4-1.4-5.4-0.4 -0.1 1.6-0.1 1.6-0.2 2.3 -0.2 2.7-3.3 7.2-7.2 6.9 -3.1-0.2-4.2-6.6-8.1-6.9 -0.4 0-0.9 1.1-1.6 1 -1.9-0.1-2.5-2.5-4.5-2.7 -2.3-0.2-5.3 2.7-6.6 4.2 2.9 3 6.4 3.2 7.5 4.1 3.6 3.4 1.6 4.8-5.3 3.1 -0.4 0-1.1-0.5-1.5-0.5 -3-1-5.7-2.4-6.8-3.7 -3.9-5.4-2.9 1.7-4.8 2 2.5 2.9 4.7 5.5 2.1 8.8 0 0-8.5-6.5-10.7-2.8 -3.1 5.2-5.4 3.9-6.8 2.2l-4.2-7 -3.7 2.1c1.8 1.7 1.5 6.4 1.2 9.5 -0.3 4.3 4.6 10.9 1.7 13 -1 2.3 1 1.6 2.3 5.3 1.6 5.2 0.1 9 0.8 15.3 0.3 1.6 0.5 3.2 1.2 5.2 0.8-0.7 1.6-0.7 2.7 0.2 0.4 0.4 2.4 4.5 3.9 5 -0.4 5.3 6.3 14.1 10.1 16.6 0 0.1-0.1 0.1-0.1 0.2 -0.1 0.8 1.8 2.1 1.8 2.1 1 1.7 2.4 10 4.2 10.9 -0.2 1.9 2.1 2.9 2 4.5 -0.1 0.8-1.3 1.1-1.3 1.9 -0.2 3.1 6.8 3.6 9.5 3.9l0 0c-0.3 0.5 0 0.4-0.1 1.6 -0.2 2.3 3.3 2.2 5.1 5.1 1 1.6 0.5 4.5 1.7 6.6 -2.3 1-4 2.7-4.2 5.4 -0.3 4.3 3.6 3.8 3.8 6.6 0.9 3.2 0.7 6.3 2.4 8.8l-0.7 8.6c0.3 1.6 2 4.5 3.9 4.6 2.3 0.2 2.9-1.7 4.8-1.6 2.3 0.2 3.1 0.2 5.1 0.4 1.6 0.1 2.7 0.6 3.9-0.5 0.6-3.1 0.5-6.2 0-10.2 2.1-6.5-3.3-12.8 3.8-18.5 1-2.3 9.5-5.9 6.7-10.8 -2.4-4.1-2.6-6.8 0-10.6 0.5-1.1 1.6-1 3.2-1.3 2.4-0.2 5.9-0.7 8.9-4 1.7-2.2 3.4-2.9 5.3-3.1 2.7 0.2 4.9 1.9 7.7 2.2 4.3-0.4 8.6-0.1 12.5 0.6 -1.1-1.3-0.7-1.2-1.8-2.5l0.6-7.4c2.7 1 2.5 2.5 4.8 3.5 1.4-3.4 1.2-5 1.5-9.3 0.3-4.3 1.4-8.5-1.5-11.5 -1.8-1.7-6.2-0.9-5.9-4.8 0.2-3.1 3-3.3 4.4-5.9l-1.1-1.3c-0.7-0.8-2.6-1.8-2.4-4.1 0.2-2.3 1.8-3.4 3.5-4.4 3.2-1.3 7.5-1.4 8.8-7.1 1.1-4.2 7.7-4.1 11.3-5 1.6-0.3 1.7-2.2 3.7-2.1l1.9 0.2c-1.3 2.2-0.3 4.3-0.8 10.9 0.7 0.4 2.6 1.8 4.2 1.9 5.8 0.5 3.4-8.7 10.4-8.2 3.1 0.2 4.8-1.6 7.5-1.4 1.2 0.1 2.2 1.3 3.8 1.5 3.9 0.3 6-1.5 10.3-1.2 0.4 0 1.6-0.3 2-0.2l-0.8 0.7c3.8 1.1 2.2 6.4 7.3 6.8 1.9 0.1 3.2-0.5 4.7 0.4 1.5 1.3 0.1 4.3 0.3 5.9 0.6 2.4 6.9 1.7 6.6 5.6 -0.2 3.1 1.1 11.4 4.1 13.2 3.1 0.6 3 2.2 3.2 4.2 0.1 3.1 2.7 5.7 5.8 5.9 3.1 0.2 5.6-1.9 9.1-1.6 5.4 0.4 3.9 5.4 7.3 7.2l6.6 0.5c4 3.8 1.6 14.2 9 14.8 1.6 0.1 2.5-1.4 4.4-1.2 3.5 0.3 3 6.1 6.9 6.4 6.6 0.5 9.5-1.6 11.4-6.2 0.3-4.3-3.3-3.4-4.3-5.4 -0.3-0.8 0.5-1.9-0.2-2.8 -0.3-1.2-3.4-1.4-3.3-2.6 0.1-0.8 1.3-1.5 1.4-2.2 0.2-2.3-2.2-2.1-2-4.1l0.6-2.7 -0.1 1.6 -0.5 1.1c0.2-3.1 9 0.3 9 0.3 1.8-3.4 1.6-10 5.8-9.7 3.9 0.3 5.2 3.9 9.1 4.2 1.2 0.1 1.6-0.7 1.7-1.8 0.1-1.6-4.8-4.3-5.4-5.9l0.2-1.9c1.9 0.2 2.7 0.2 3.6-0.5 -0.7-1.2-3.4-1.8-3.3-3.4 0.2-1.9 2.3-4.1 4.6-3.9 1.2 0.1 7.5 4.1 8.6 5.4 5 0.4 6.6 0.5 9.3 0.7 4.7 0.4 7.9 4.5 12.6 3.3l3.1 0.2c0 0.4 0.3 0.8 0.7 0.8 1.9 0.2 3.3-2.1 5.2-1.9 2.3 0.2 2.9 2.6 3.6 3.4 0.4-0.4 1.3-1.1 2.8-1 1.2 0.1 14.8 1.1 14.8 1.1 1.5 0.1 2.4-0.6 2.9-2.1 2.3 1 3.5 0.3 5.5-0.4l0-0.5c0.1 0.1 0.2 0.1 0.4 0.1 3.1 0.2 4.7 0.4 7.6 2.6 2.2 1.4 2.7 4.9 5.9 5.2 0.9 0.1 1.6-0.2 2.2-0.8 0.6 1.2 2.6 9.4 2.6 10.1 -0.3 3.5-1.6 5-4 6.3l-0.2 2.3c1.9 0.2 3 1.4 4.2 1.5 1.6 0.1 2.4-1.4 4-1.3 3.1 0.2 1.5 6 3.8 6.2 1.2 0.1 1.6-0.3 2.5-1.4 0 0 2.5 3.7 2.8 3.8 0.8 0.1 3.5-0.1 3.4 1 -0.2 2.7-4 0.9-4.2 4 -0.1 1.6 1.4 1.7 1.8 1.7 1.6 0.1 0 0 1.6 0.1 1.9 0.2 2.6 2.2 4.1 2.3 2.7 0.2 4.1-2 6.8-2.2 3.2-0.9 4.8-1.2 6.1-2 4.5-0.2 7-2 11.4-1.7 1.2 0.1 2.3 0.2 2.7 0.2 -0.2 2.7-1.8 3.4-4.2 3.2l-0.2 2.7c2.8 4.5 6.5 7.5 8.4 12.8l10.7 43.1c-0.1 0.8 0.6 2 1.4 2.1 3.9 0.3 3.6-6.4 7.1-6.1 1.2 0.1 4.2 1.9 4.1 3.1 -0.3 3.5 2.1 2.9 1.8 7.6 1.2-0.3 3.9 0.3 5.8 0.5 5.1 0.4 8.3-1.7 12.2-1.4 4.3 0.3 7 4.9 8 8.1l1.1 0.1c0 0 0 0 0 0 0 0 0 0 0 0l0 0c-0.1 0.1-0.2 0.2-0.4 0.4l0.4-0.4c0 0.4-0.9 1.1-0.9 1.5 -0.3 4.3 3.5 5 6.2 6.4 1.9 1.3 0.5 3.6 0.4 5.5 0.1 3.5 4.8 4.3 7.9 4.5 -0.2 1.9 0.9 2.8 2.5 2.9 3.5 0.3 3.8-4 7.8-4.1 -0.2 1.9-0.2 3.1-0.4 4.7 -0.2 2.3 2.1 3.3 2.7 5.3 0 0 6.1 1.7 9.1-1.6 1.7-6.1 8.8-2.5 12.5-4.1 2-1 4.1-2.4 5.7-3.5 -0.7-0.8-2.5-2.9-2.3-5.3 -0.2 2.3 1.6 4 2.3 5.3l0 0.4c8.6-5.2 14.9-10.6 21.7-12 9.2-2.4 26 2.4 24.9 6.2 -1.3 6.9 8.8 7.3 17 8 14 1.1 22.2 1 23-9.5 0.2-2.3-5.5-4.7-5.1-9.4 0.6-7.4 7.2-12.3 9.9-16.8 9.5 3.1 21.8 6 30.9 9.4 6.5 2.5 2.7 15.5 13.6 16.3 13.2 1 13.6-8.3 29.1-7.1 5.8 0.5 9.8 5.5 13 4.5 0.8-0.3 1.6-0.3 2-0.2l0.4-0.4 0 0.4c1.1-4.6 6.7-5.7 7.4-10 -0.7 4.2-6.3 5.8-7.4 10 0 0 1.3 8.3 14.9 9 24.6 1.1 41.9-20.6 45.7-28.9 2.3-4.1 10 2 15.2 1.2 2.8-0.2 5.8-3.9 8.1-3.7 4.3 0.3 5.7 2.4 11.1 3.6 10.3 2.8 10.8-8.5 17.4-12.3 3.3-1.7-3.5-5-2.9-12.7 0.7-8.9 0.8-10.5 3.9-19.6 5.6-17.2-8.6-5.4-9.3-10.9 1.4-8.5 7.4-15.1 13.6-18.9 5.4-3.5 10.6-5 12.9-5.2 15.6 0.4 16.2-2.6 18.5-2.1 17 3.3 34.7 36.4 44.5 41.4 6 3.2 10.5-4.7 17.5-4.1 6.6 0.5 11.2 1.3 14 1.5l1.8-3.4 0.6-2.7c0 0.2 0 0.4-0.1 0.8 -0.2 2.3-0.7 3.5-2.4 5.3 5 1.2 3.3 2.6 7 10.7 3 7.3 14.5 0 20.7-9.7 4-5.9 6.6-14 11.1-17.1 1.2 0.1 1.9 0.9 2.2 1.7 1.8 2.1 2.3 5.7 6.5 6.4 -2.1 7.3-1.4 13.2 0.1 19.2l0 0.4c0 0 0.1 0 0.1 0l0 0c0 0 0 0 0 0 0 0 0 0 0 0 2.1 7.9 5.2 16.3 5 29 -3.6 0.9-10.6 0.3-14.2 1.2 -0.4 5.4-3.7 12.2-3.3 12.6 3.9 5 7 4.9 13.1 18.2 0.3 0.8 2.2 6.8 2 9.2 -7.3 3.4-4.1 7.5 0.7 11.4 -3.9-5.8-3.9-5.8 3-8 1.1-9.3 0.2-12.1 3.5-14.2 5.4-3.5 2.9 3.4 7.5 3.7 11.3 0.9 17.8-17 19.8-22.7 3.2-10.7 3-38.9 4.9-62.6 -2.6-7.2-3.7-13.2-3.7-17.5 0 0 0 0-0.1 0 -1.2-12.7 3.6-16.3 0.8-24.2 -4.4-13.3-14.8-21.5-19.6-34 -3.6-9.7-4.4-23.4-15.9-26.3 -7.4-1 12.8-8.8-8-7.7 -3.9-0.3-9-9.7-20.4 1.1 -0.7 8.6 4.5 12.5 0 14.5 -7.8 10.3-9.3-10.9-10.2-4.7 -1.7 2.2 1 7.5-1.5 9.3 -4.3-4.6 1.2-20.6-17.1-6 -9.4 0.4 1.7-17.1 3.5-29.9 2.3-15.1 0-25.4 0.9-26.5 5-9.4 1.7-22.2 2.9-36.9 0.8-10.5 7.5-6.1 11.3-14.4 0 0 6-7.4 13-6 -2.1-3.7-0.7-5.5 2.2-7.7l0 0.4c3.3-2.5 8.6-4.8 13.3-9.5 0 0-5.4-5.9-3.2-9.2 3.1-4.1 13.4-6 19.6-11 3.5 0.7-4.9 12.1 1.2 9.9 3.3-7.6 9.7-8.6 8.4-17.7 3.5-4.4 7.2-6.5 8-12.3 0.3-3.9-9.3 8.3-10.9 5 -3-6.5-2.8-28.8-6-32.9 -5.8-6.3 1.5-14 4.4-21.6 7.6 2.9 3.4-8.3 5.6-7 2.6 2.2 6.2 15.3 8.5 12 4.1-7.1 4.4 3.1 7.3 1.7 5.7-2.3-6-13.8-2.3-21.3 1.4-2.2 1.1-4.6 0.9-6.6 -1.8-6.8-10.9-11-10.9-11.4 0.2-3.1 5.4-13.7 10.4-12.5 -9.5 16.1 9.4 19.5 11.3 25.1 4.1 12.4-2 15.9 4.7 34.8 2 4.8 4.4 14 5.8 21.6 4.1 17.9-7.9 15.8 2.4 24.1 5.9 4.8-2 10.4 11.4 24.8 0 0 10.7 13.4 24.2 20.3 10.5 5.5 29.9 17.6 41.2 23.9C1150.2 346.9 1148.8 338.9 1146.2 332.5zM1018.5 565.6c0.3-0.3 0.4-0.7 0.5-1.3C1019 564.9 1018.8 565.3 1018.5 565.6zM1050.2 527.8c-0.3 0.1-0.6 0.2-1 0.2C1049.6 528 1049.9 527.8 1050.2 527.8zM1018.1 565.9c-0.2 0.1-0.4 0.3-0.7 0.4C1017.7 566.2 1017.9 566 1018.1 565.9zM1016.7 566.3c-0.2 0-0.4 0.1-0.6 0.1C1016.3 566.4 1016.5 566.3 1016.7 566.3zM214.7 457.8c0.3 0.8 0.6 1.6 1 2.3C215.3 459.4 215 458.7 214.7 457.8zM75.9 531.9L75.9 531.9c0.4 0.4 1.1 1.2 1.9 1.3C76.9 533.2 76.3 532.6 75.9 531.9zM125.1 517.2c0.7 0.5 1.5 0.8 2 1.2C126.4 518 125.7 517.7 125.1 517.2zM213.2 452.3c0.4 1.5 0.7 2.9 1.1 4.3C214 455.2 213.6 453.8 213.2 452.3zM212.4 449.1c0.2 0.5 0.3 1 0.4 1.5C212.6 450 212.5 449.5 212.4 449.1zM215.7 461.9c-0.3 0.2-0.5 0.3-0.7 0.5C215.2 462.2 215.5 462.1 215.7 461.9zM216.1 461.7c0.1 0 0.1-0.1 0.1-0.1 2.5-1 6.3-0.6 8.6-1.8C222.3 461.3 218.4 460.6 216.1 461.7zM511.5 607.6c0 0 0.1-0.1 0.1-0.1C511.6 607.5 511.6 607.5 511.5 607.6zM511 608C511.1 607.9 511.1 607.9 511 608 511.1 607.9 511.1 607.9 511 608zM512 607c0-0.1 0.1-0.1 0.1-0.2C512.1 606.8 512 606.9 512 607zM970.6 545.3l1.1-1.2c-0.2 0 0.1-0.4 0.4-0.7C971.7 544.5 971.1 544.9 970.6 545.3zM972.2 543.1c-0.2 0-0.3-0.2-0.4-0.2 0.3 0.1 0.5 0.2 0.8 0.2L972.2 543.1z"/><path d="M541.9 245.9l0.2-2.3c-0.4 0-0.3-1.2-0.7-1.2 -1.2-0.1-0.7-1.6-0.6-2.8 -1.2 0.3-4 1.6-4.2 3.2C536.5 245.1 539.6 245.7 541.9 245.9z"/><path d="M811.7 162c-0.4 0-1.2 0.3-1.3 1.1 -0.1 1.2 0.8 4.4 2.4 4.5 0.8 0.1 1.3-1.5 1.3-1.9 0.1-1.2-0.3-1.6-0.6-2.4l0.1-1.2C812.5 162.1 812.1 162.1 811.7 162z"/><path d="M781.8 159.7c1.2 0.1 1.3-1.1 1.3-1.5 0-0.4-0.2-2.4-0.6-2.4 -0.4 0 0.1-0.8-0.3-1.2 -0.3-0.8-2.2-1.7-3.4-2.2 0 0.4-0.1 0.8-0.1 1.2C778.6 154.8 781 159.6 781.8 159.7z"/><path d="M783.7 150.1c-0.2 2.7 2.2 2.1 3.6 3.4 0.7 0.8 0.2 2.4 0.5 3.2 1.7 3.3 5.2 3.9 8.7 4.2 0.3 1.2 1.9 1.3 3 1.4 1.9 0.2 2-1 2.2-2.6 0.1-1.6-0.2-2.4-0.1-3.1l0.1-1.2c3.1 0.2 4.2-3.2 5.1-5.1 1.8-3 6.7-0.6 6.9-3.8 0.1-1.2-0.3-1.6 0.2-2.3 -1.6-0.1-1.2-0.1-1.9-0.2 -0.8-0.1-1.2 0.7-2.4 0.6 -3.1-0.2-6.7-4-6.6-6.4 0.1-1.6 0.1-1.9 0.2-2.7 0.8 0.1 1.6 0.1 1.9 0.2 0.1 3.1 1.4 6.8 4.5 7 3.1 0.2 4.4-0.8 5.7-2.3 0.4-0.4-0.5-3.9-0.4-4.7 -1.9-0.2-1.2-4.4-3.2-4.6 -2.3-0.2-4.3-0.3-6.3-0.1 -2 0.6-3 3.3-6.1 3 -1.5-0.1-1.9-0.9-2.7-1 -1.2-0.1-1.7 1-1.7 1.8 -0.3 3.5 1.2 4.8 2.7 6.1l-0.1 1.2c-1.6 0.3-2.3-1-3.4-1.1 -0.4 0-0.8-0.1-1.2-0.1 -2.3-0.2-4.5-1.9-6.9-2.1 -1.2-0.1-2.7 4.5-2.8 5.6 -0.1 1.6 1.4 2.1 1.3 3.6C784.6 149 783.7 149.3 783.7 150.1z"/><path d="M821.3 133.8c3.1 0.2 3.6-0.9 6.3-0.7 0.8 0.1 1.2 0.1 1.6 0.1 0.1-0.8 2.1-2.2 3.3-2.1 2.7 0.2 5.9-5.8 6.1-8.1 0.1-0.8 0.1-0.8 0.1-1.6 -0.8-0.1-1.5-0.9-2.3-1 -0.8-0.1-5.9 0.7-6.8 1.8 -0.9 1.1-1.4 2.6-2.2 3l-1.2-0.1c0.1-1.2-1-1.7-1.8-1.7 -2.3-0.2-2.7 4.5-3.6 5.6 -1.5-0.5-1.9-1.3-2.5-2.5l-0.8-0.1c-0.1 0.8-0.1 1.6-0.2 1.9C817.2 131.2 818.6 133.6 821.3 133.8z"/><path d="M816.5 175.7l0.7 0.4c0.4 0 1.7-2.2 1.7-2.2 0.5-1.5 4.4-1.2 5.2-1.6 3.2-0.9 6.8-1.4 7-4.9 0.4-4.7-7.1-4.5-11-4.8 -0.8-0.1-3.4 4-3.5 5.2 -0.1 1.9 1.7 2.9 1.6 4.8C818.2 174.7 816.6 174.2 816.5 175.7z"/><path d="M35.5 435.2c0.1 0.1 0.1 0.4 0.1 0.4s0.1 0.3 0.1 0.5c0 0.2 0.2 0.3 0.3 0.5 0.1 0.1 0.2 0.2 0.4 0.2 0.2 0 0.2-0.2 0.3-0.4 0.1-0.1 0.3-0.2 0.3-0.2s0.3-0.1 0.4-0.1c0.1-0.1-0.3-0.4-0.4-0.5 -0.1-0.1-0.3-0.1-0.3-0.2 -0.1-0.1-0.2-0.3-0.3-0.4 0-0.1 0-0.2-0.1-0.5 -0.1-0.3-0.2-0.1-0.3-0.2 -0.1-0.1-0.1-0.2-0.2-0.4 -0.1-0.2-0.1-0.2-0.1-0.4 0-0.2 0-0.4-0.2-0.4 -0.2-0.1-0.2-0.2-0.3-0.4 0-0.2-0.1-0.2-0.2-0.3 -0.1-0.1-0.2-0.1-0.3-0.1 -0.1 0-0.3-0.3-0.3-0.4 -0.1 0-0.3-0.3-0.5-0.4 -0.2-0.1-0.4-0.2-0.5-0.3 -0.2-0.1-0.3 0-0.3 0s-0.1 0-0.3-0.1c-0.2 0-0.1 0.1-0.3 0.2 -0.1 0.1-0.2 0.1-0.2 0.1l-0.3 0c0 0-0.4-0.1-0.5-0.2 -0.1-0.1-0.1-0.2-0.1-0.2 -0.1-0.1-0.2-0.3-0.2-0.4 -0.1-0.1-0.1-0.2-0.1-0.3 0-0.1-0.1-0.2 0.1-0.6 0.1-0.3 0-0.2-0.1-0.3 -0.1-0.1-0.1-0.1-0.1-0.3 0-0.2 0.2-0.1 0.4-0.2 0.3-0.1 0 0 0.2-0.1 0.2-0.1 0-0.1-0.1-0.2 -0.1-0.1-0.2-0.1-0.4-0.1 -0.2 0-0.3 0.1-0.4 0.2 -0.1 0.1-0.2 0.1-0.4 0.1 -0.2 0-0.3 0-0.5-0.1 -0.2 0-0.2 0.1-0.3 0.2 -0.1 0.2-0.1 0-0.3 0.1 -0.1 0-0.4 0-0.6 0 -0.2-0.1-0.5-0.3-0.7-0.5 -0.2-0.2-0.7-0.2-0.9-0.4 -0.2-0.2 0 0-0.4-0.1 -0.4-0.1-0.2-0.1-0.4-0.2 -0.2-0.2-0.1-0.1-0.2-0.3 -0.1-0.2 0-0.2 0-0.4 0-0.2 0-0.2 0-0.4 0-0.2 0.1-0.2 0.1-0.6 0-0.4 0.1-0.2 0.1-0.5 0-0.3 0-0.5 0-0.7 0-0.2 0.1-0.8 0.2-1.1 0.1-0.3 0-0.4 0-0.6 0-0.2 0-0.3 0.1-0.6 0.1-0.2 0.1-0.2 0.3-0.6 0.2-0.4 0.1-0.3 0.2-0.5 0.1-0.2 0.2-0.9 0.2-1 0-0.2 0-0.3 0-0.5 0-0.2 0.1-0.2 0.1-0.3 0-0.1 0-0.2 0.1-0.4 0.1-0.2 0.1-0.2 0.1-0.5 0-0.3 0.1-0.2 0.1-0.4 0.1-0.2 0-0.1 0.1-0.3 0.1-0.2 0.1-0.3 0.2-0.5 0.1-0.2 0.1-0.3 0.2-0.5 0.1-0.2 0.2-0.4 0.3-0.6 0.1-0.2 0.1-0.2 0.2-0.5 0.1-0.2 0.2-0.4 0.3-0.7 0.1-0.2 0.1-0.3 0.2-0.4 0.1-0.1 0.1-0.2 0.2-0.5 0.2-0.3 0.2-0.2 0.4-0.5 0.2-0.3 0.4-0.2 0.4-0.2s0.2-0.4 0.3-0.5c0.1-0.1 0.4-0.5 0.6-0.7 0.2-0.3 0.3-0.3 0.6-0.5 0.2-0.2 0.1-0.2 0-0.5 0-0.3-0.3 0.1-0.6 0.3 -0.3 0.2-0.3 0.3-0.7 0.6 -0.3 0.3-0.3 0.5-0.4 0.7 -0.1 0.2-0.4 0.4-0.6 0.6 -0.1 0.2-0.2 0.2-0.3 0.3 -0.1 0.1-0.1 0.2-0.3 0.4 -0.2 0.2-0.2 0.2-0.4 0.3 -0.2 0.1-0.4 0.1-0.7 0.4 -0.3 0.3-0.1 0.3 0.2 0.4 0.3 0.1 0.3 0 0.5 0 0.2 0 0 0.2-0.1 0.7 -0.1 0.5-0.2 0.4-0.5 0.8 -0.3 0.4-0.6 1.2-0.6 1.4 0 0.3-0.1 0.3-0.1 0.6 0 0.2 0 0.1-0.2 0.4 -0.2 0.2-0.1 0.5-0.2 1 -0.1 0.5-0.1 0.4-0.1 0.7 -0.1 0.3-0.2 0.7-0.3 1.2 -0.1 0.5-0.3 0.9-0.4 1.3 -0.2 0.4-0.1 1-0.2 1.6 -0.1 0.5 0 0.6-0.1 0.9 -0.1 0.3-0.1 0.6-0.1 1 0 0.4-0.2 0.3-0.3 0.3 -0.1 0-0.2-0.1-0.3-0.3 -0.2-0.1-0.3 0-0.6-0.2 -0.3-0.1 0-0.3 0.2-0.4 0.1-0.1 0.2 0 0.2-0.1 0.1-0.1-0.2-0.2-0.1-0.4 0-0.2-0.2-0.6-0.3-0.8 -0.1-0.2 0-0.3-0.1-0.5 0-0.1-0.1-0.2-0.1-0.5 0-0.2-0.1-0.2-0.2-0.2 -0.2 0-0.4 0-0.4-0.2 0-0.1 0-0.2 0.1-0.3 0.1-0.2 0-0.2 0-0.4 -0.1-0.2 0-0.2 0.1-0.3 0.1-0.1 0.1-0.2 0.1-0.4 0-0.1 0.2-0.3 0.2-0.5 0.1-0.2 0.1-0.3 0.2-0.5 0.1-0.2 0.1 0.1 0.4 0.1 0.3 0 0.2 0.1 0.5 0.2 0.2 0.1 0.2 0 0.3-0.1 0.1-0.1 0.2-0.2 0.3-0.3 0.1-0.1 0.2-0.4 0.2-0.5 0-0.1 0.2-0.3 0.3-0.4 0.2-0.1 0-0.2 0-0.3 0-0.1 0.1-0.2 0.3-0.4 0.2-0.2 0.1-0.2 0.2-0.4 0.1-0.1-0.2 0 0.1-0.3 0.3-0.3 0.1-0.2 0-0.4 0-0.2-0.2-0.3-0.3-0.4 -0.1-0.2 0-0.1 0-0.3 0-0.2 0-0.1-0.1-0.3 0-0.2 0.1-0.2 0.2-0.4 0.1-0.2-0.1-0.1-0.4-0.1 -0.2 0 0-0.2 0-0.3 0.1-0.1 0.1-0.1 0.6-0.1 0.5-0.1 0.1-0.1 0-0.2 -0.1 0-0.2-0.1-0.4-0.2 -0.2-0.1-0.4-0.3-0.5-0.5 -0.2-0.2-0.3-0.2-0.5-0.3 -0.2-0.1-0.3-0.3-0.3-0.5 0-0.3 0 0 0.2 0 0.2 0 0.2 0.1 0.3 0.2 0.1 0.1 0.1 0.1 0.4 0.2 0.3 0 0.3 0 0.5 0 0.2 0 0.2-0.3 0.2-0.3s0 0 0.1-0.1c0.1-0.1 0-0.2 0-0.4 0-0.2-0.1-0.2-0.2-0.2 -0.1 0-0.3 0-0.4-0.1 -0.2-0.1-0.2-0.2-0.1-0.4 0.1-0.2 0.1-0.1 0.2-0.1 0.1-0.1 0.3-0.1 0.4 0 0.2 0 0.2 0 0.4 0.1 0.2 0.1 0.2-0.1 0.1-0.2 -0.1-0.1-0.3-0.2-0.5-0.3 -0.2-0.1-0.4-0.1-0.6-0.1 -0.3 0-0.4 0-0.7 0 -0.3 0-0.3-0.1-0.5-0.2 -0.2-0.1-0.2 0-0.3-0.2 0-0.2 0.1-0.1 0.4-0.2 0.3-0.1 0.2 0 0.6 0 0.2 0 0.2 0 0.5 0 0.3 0 0.1 0 0.3 0.1 0.2 0.1 0.3 0.1 0.4 0.2 0.2 0.1 0.3-0.2 0.5-0.3 0.2-0.1 0.2-0.1 0.4-0.2 0.2-0.1 0-0.3-0.1-0.4 -0.1-0.1 0-0.3 0-0.5 0-0.2-0.2-0.2-0.2-0.2s-0.2 0.1-0.3 0.2c-0.1 0.1 0 0.2-0.1 0.4 -0.1 0.2-0.3 0.1-0.3-0.1 -0.1-0.1-0.3-0.2-0.5-0.2 -0.1 0-0.4 0.1-0.5 0.1 -0.2 0-0.1-0.2 0-0.4 0.1-0.2 0.2-0.3 0.5-0.5 0.3-0.2 0.1-0.4 0.1-0.6 0-0.1 0-0.4 0-0.5 -0.1-0.1 0.1-0.4 0.2-0.5 0.1-0.2 0.1-0.4 0-0.6 -0.1-0.2-0.1-0.3-0.1-0.5 0-0.2-0.2-0.2-0.4-0.3 -0.2-0.1-0.1-0.2-0.2-0.4 -0.1-0.2-0.2-0.2-0.3-0.4 -0.1-0.3-0.2-0.5-0.2-1.2 0-0.6 0-0.4-0.2-0.6 -0.1-0.2-0.3-0.4-0.5-0.7 -0.2-0.2-0.2-0.2-0.1-0.5 0-0.3 0-0.3 0-0.4 0-0.1 0-0.2-0.1-0.4 -0.1-0.1 0-0.2 0-0.4 0-0.2 0.1-0.3 0.2-0.4 0.1-0.2-0.1-0.1-0.2-0.2 -0.1-0.1-0.1-0.2-0.1-0.4 0-0.2 0-0.1-0.1-0.4 0-0.3-0.2-0.2-0.4-0.2 -0.3 0-0.6-0.1-0.9-0.3 -0.3-0.2-0.3-0.1-0.6-0.2 -0.3-0.1-0.1 0.1-0.2 0.2 -0.1 0.1-0.2 0.3-0.3 0.5 -0.1 0.2 0 0.1-0.2 0.4 -0.2 0.3 0 0-0.3 0 -0.3 0-0.2 0-0.3 0.2 -0.2 0.2 0 0.1 0.2 0.5 0.2 0.4 0 0.3-0.3 0.4 0 0-0.2 0-0.2-0.1 -0.1-0.1-0.2-0.1-0.3 0 -0.1 0.1-0.1 0-0.3 0.1 -0.2 0.1-0.2 0.1-0.3 0.4 -0.1 0.3 0 0 0.2 0.1 0.2 0.1 0.3 0.2 0.5 0.3 0.2 0.1 0.2 0.2 0.3 0.3 0.1 0.1 0 0.2 0 0.4 0 0.2 0 0.4-0.1 0.6 -0.1 0.3-0.1 0.1-0.3 0.3 -0.2 0.2-0.1 0-0.3 0.2 -0.2 0.2 0 0-0.2 0.1 -0.2 0.1-0.2 0.1-0.5 0 -0.3 0-0.1-0.3 0.2-0.4 0.3-0.1 0.2-0.1 0.3-0.2 0.1-0.2 0-0.1 0.1-0.2 0.1-0.1 0.2-0.2 0.1-0.4 -0.1-0.1-0.1 0-0.3 0.1 -0.2 0.1-0.1-0.2-0.1-0.3 0-0.1-0.2 0.1-0.4 0.1 -0.2 0.1-0.2 0.2-0.5 0.5 -0.2 0.3-0.3 0.1-0.5 0 -0.2-0.1 0.1-0.2 0.3-0.2 0.2 0 0.1-0.2 0.2-0.5 0.1-0.3-0.1-0.6-0.2-0.6 -0.1 0-0.1 0-0.2 0 -0.1 0-0.2 0-0.4 0 -0.2 0-0.2 0.2-0.5 0.1 -0.3 0 0 0-0.1-0.2 -0.1-0.2 0-0.2-0.1-0.5 -0.1-0.3-0.1-0.1-0.3-0.1 -0.2 0-0.1 0.2-0.3 0.2 -0.2 0-0.2-0.1-0.2-0.3 -0.1-0.2 0-0.2-0.1-0.3 -0.1-0.1-0.3 0.1-0.5 0 -0.2 0-0.4-0.1-0.5-0.1 -0.2 0-0.4-0.1-0.8-0.3 -0.4-0.1-0.4-0.1-0.5-0.5 -0.2-0.4-0.5-0.2-0.5-0.2s0 0-0.2 0c-0.2-0.1-0.1-0.1-0.4-0.2 -0.3-0.2-0.2-0.2-0.2-0.2 -0.1-0.1-0.3-0.1-0.5-0.2 -0.2-0.1-0.4-0.1-0.7-0.1 -0.2-0.1-0.4-0.2-0.6-0.2 -0.2-0.1-0.6-0.2-0.9-0.2 -0.2 0-0.4 0-0.9-0.2 -0.5-0.1-0.3 0-0.2 0.2 0.1 0.2 0.1 0.4 0 0.5 -0.1 0-0.3-0.2-0.5-0.3 -0.2-0.2-0.3 0-0.6 0 -0.4 0-0.1-0.4-0.1-0.4s0.3-0.1 0-0.2c-0.2-0.1-0.4-0.1-0.4-0.1 -0.3 0-0.2 0-0.5-0.2 -0.3-0.2-0.1-0.1-0.4-0.2 -0.3-0.1-0.3-0.1-0.5-0.2 -0.2-0.1-0.3-0.1-0.5-0.2 -0.2-0.1-0.5-0.1-0.7-0.1 -0.1 0-0.9 0.1-1.3 0.1 -0.3 0.1 0 0.2 0.1 0.5 0 0.1-0.2 0.1-0.4 0.1 -0.1 0-0.5 0.1-0.3 0.3 0.2 0.2 0.1 0.2 0.3 0.3 0.2 0.1 0.1 0.3 0.2 0.6 0.1 0.2 0.1 0.2 0.1 0.4 0 0.3 0.2 0.2 0.3 0.3 0.1 0.1 0.2 0 0.4 0 0.2 0 0.3 0.1 0.5 0.2 0.2 0.1 0.4 0.3 0.5 0.3 0.1 0.1 0.4 0.6 0.6 0.8 0.2 0.2 0.2 0.3 0.3 0.5 0.1 0.3 0.2 0.4 0.4 0.6 0.2 0.2 0.1 0.1 0.3 0.2 0.2 0.1 0.2 0.1 0.4 0.2 0.2 0.1 0.4 0.2 0.5 0.3 0.1 0 0.4 0.1 0.5 0.1 0.1 0 0.5 0.1 0.6 0.1 0.1 0 0.4 0 0.6 0.2 0.2 0.2-0.1 0.2-0.1 0.2s-0.9-0.1-1-0.1c-0.2 0-0.5-0.1-0.9-0.2 -0.4-0.1-0.5 0.1-0.5 0.1l-0.4-0.2c-0.1 0-0.2 0.1-0.4 0.1 -0.2 0.1-0.1 0.2-0.1 0.4 0 0.2 0 0 0.2 0 0.2 0 0 0 0.2 0.1 0.2 0.1 0 0.2-0.1 0.4 0 0.2-0.3 0.2-0.3 0.3 0 0.1-0.3 0.4-0.3 0.4l0 0.4c0 0 0 0.5 0 0.6 0 0.1-0.1 0.3 0 0.3 0 0.1 0.2 0.3 0.2 0.3s-0.1 0.4-0.1 0.6c0 0.1-0.1 0.2-0.1 0.4 0 0.2 0.2 0.2 0.2 0.2l0.5-0.1c0.1 0 0.1 0.1 0.2 0.1 0.1 0.1 0.1 0 0.4 0l0.2-0.1 0.2-0.1c0 0 0.2 0 0.3 0 0.1 0 0.1 0 0.2 0.1 0 0.1 0.1 0.3 0.1 0.3 0 0.1 0.1 0.2 0.1 0.2s0.2 0.2 0.3 0.2c0.1 0.1 0.2 0.1 0.3 0.1 0.2 0 0.3 0.1 0.4 0.1 0.1 0 0.1 0.2 0.3 0.3 0.2 0.1 0.2 0.2 0.1 0.3 0 0.1-0.1 0.2-0.1 0.2s-0.1 0-0.4 0c-0.2 0 0 0-0.1 0.1 -0.1 0.1 0 0.3 0 0.3l-0.1 0.1 -0.2-0.1c0 0-0.1 0.1-0.2 0.1 -0.1 0-0.3 0-0.3 0l-0.2-0.1c0 0-0.1 0.1-0.2 0.1 -0.1 0.1-0.1 0.2 0 0.3 0 0.1 0.1 0.1 0.1 0.1s0.3 0.1 0.4 0.2c0.1 0 0.1 0.1 0.1 0.1s0.2 0.2 0.2 0.3c0.1 0.1-0.2 0.3-0.2 0.3l-0.2-0.3c0 0-0.2-0.2-0.3-0.2 -0.1 0-0.2 0.2-0.2 0.2l0 0.2c0 0-0.1 0.1-0.1 0.2 -0.1 0 0 0.2 0 0.2 0.1 0.1 0.1 0.2 0.2 0.3 0.1 0.1 0.1 0.2 0.1 0.5 0 0.2-0.3 0-0.4-0.2 -0.1-0.2-0.1-0.3-0.2-0.3 -0.1 0-0.1 0.1-0.1 0.3 0 0.1-0.1 0.3-0.1 0.3s-0.1 0.1-0.4 0.1c-0.3 0.1-0.2 0.1-0.3 0.2 -0.1 0.1-0.2 0.3-0.3 0.4 -0.1 0.1-0.3 0.2-0.4 0.4 -0.1 0.1-0.6 0.5-0.6 0.5l-0.2 0.1c0 0-0.1 0-0.2-0.1 -0.1-0.1-0.1-0.2-0.2-0.2 -0.1 0 0 0-0.3 0 -0.1 0-0.3 0.1-0.3 0.2 -0.1 0.1-0.1 0.1-0.2 0.2 -0.1 0.1-0.2 0.2-0.3 0.3 -0.1 0.1-0.3 0.3-0.3 0.3s-0.2 0.1-0.3 0.2c-0.1 0-0.2 0.2-0.3 0.3 -0.1 0.1-0.2 0.2-0.3 0.3 -0.1 0.1-0.2 0.2-0.3 0.1 -0.1 0-0.2 0-0.2 0s-0.3 0-0.4 0.1l0.1 0.1c0 0 0.1 0.3 0.2 0.3 0.1 0.1 0 0.2 0.1 0.3 0 0.1-0.1 0.2-0.1 0.2s-0.1 0-0.2 0c-0.1 0 0-0.3 0-0.3s-0.1-0.1-0.2-0.1c-0.1-0.1-0.1-0.2-0.1-0.2s0-0.2-0.1-0.3c-0.1-0.1-0.1-0.1-0.2-0.2 -0.1-0.1-0.1-0.1-0.4-0.2 -0.2-0.1-0.2 0-0.3 0 -0.1 0-0.2 0-0.2-0.2 0-0.2-0.3-0.1-0.3-0.1L0 416.2c0 0 0.1 0.6 0.1 0.8 0 0.1 0.2 0.2 0 0.4 -0.1 0.2-0.2 0.2 0.1 0.4 0.1 0 0.1 0.2 0.1 0.2s-0.1 0.2-0.1 0.4c0 0.1 0.2 0.2 0.3 0.2 0.1 0 0.1 0.1 0.1 0.2 0.1 0.1 0 0.1 0.1 0.2 0.1 0.1 0 0.3 0 0.3 0 0.1 0 0.2 0 0.3 0 0.1 0 0.2 0 0.2s-0.1 0.1-0.3 0.2c-0.2 0.1 0 0-0.1 0.1 -0.1 0.1 0 0.1 0.1 0.3 0 0.1 0 0.2 0 0.3 0 0.1 0 0.1-0.1 0.4 0 0.1 0 0.2 0 0.4 0 0.2 0.2 0.2 0.4 0.4 0.2 0.2 0 0 0.2 0.1 0.2 0.1 0.3 0.1 0.5 0.1 0.2 0 0.2 0.1 0.2 0.2 0.1 0.1 0.1 0.2 0.1 0.4 0.1 0.2 0.2 0.3 0.2 0.4 0.1 0.1 0.7 0.7 0.7 0.7l0.3 0.1c0 0 0.2 0 0.3 0 0.1 0 0.2 0.1 0.3 0.2 0.1 0.1 0.1 0.1 0.3 0.3 0.1 0 0.2 0 0.3 0 0.2 0 0.2 0 0.2-0.1 0.1-0.1 0.2-0.1 0.4-0.2 0.3-0.2 0.2 0 0.5-0.2 0 0 0.1 0.2 0.2 0.4 0.1 0.1 0.3 0.4 0.4 0.5 0.1 0.1 0.2 0 0.3 0 0.1 0 0.2 0 0.3 0 0.1 0 0.3 0 0.4 0 0.2 0 0 0 0.1 0.1 0.1 0.1 0.2 0.1 0.3 0.2 0.1 0 0.2-0.1 0.4-0.2 0 0 0.2 0 0.3-0.1 0.1 0 0.2 0 0.3-0.1 0.1-0.1 0.2-0.1 0.2-0.1s0.3-0.1 0.4-0.1c0.1 0 0.7 0 0.7 0s0.3 0 0.5 0c0.2 0 0.4 0 0.4 0l0.5 0.2 0.4 0.2 0.7 0.2c0 0 1 0.4 1.1 0.5 0.1 0 0.3 0.1 0.3 0.1s0.3 0 0.3 0.1c0.1 0 0.2 0.1 0.2 0.1 0.1 0 0.1 0.2 0.2 0.2 0.1 0 0.1 0.1 0.3 0.2 0.2 0.1 0 0 0.1 0.1 0.1 0.1 0 0 0 0.2l0.2 0.1 0.1 0.2c0 0 0.1 0.1 0.2 0.3 0.1 0.1 0.1 0.1 0.2 0 0.1 0 0.2 0 0.3 0 0.1 0 0.1 0.1 0.2 0.1 0.1 0 0.1 0 0.2 0.1 0.1 0 0.2 0.1 0.2 0.1l0.1 0.3c0 0 0 0.1-0.1 0.2 0 0.1-0.1 0.2-0.1 0.2 0 0.1 0 0.2 0.1 0.3 0.1 0.1-0.1 0.2-0.1 0.4 0 0.2 0.2 0.2 0.2 0.2s0.3 0 0.5 0.1c0.2 0 0.4-0.1 0.8-0.3 0.4-0.2 1.2 0 1.2 0l0.3 0.2c0 0 0 0 0.1 0 0.1 0 0 0 0.2-0.1 0.1-0.1-0.1-0.1 0-0.2 0-0.1 0-0.1 0.2-0.2 0.2-0.1 0.1 0.1 0.3 0 0.1 0 0.2 0 0.2 0.1 0.1 0 0 0.3 0 0.3l0.2 0.3 0.3 0.4 0 0.4c0 0 0.2 0.2 0.2 0 0-0.1 0.1-0.3 0.1-0.3l0.3-0.2c0 0 0.3 0.1 0.5 0.2 0.3 0.1 0.1-0.2 0-0.3 -0.1-0.1-0.1-0.4-0.1-0.4 0-0.1 0.1-0.2 0.2-0.3 0.1 0 0.2 0 0.4 0 0.1 0 0.5 0.1 0.6 0.1 0.1 0 0.6 0.1 0.8 0.1 0.1 0 0.5 0.2 0.6 0.3 0.1 0.1 0.9 1 1 1.1 0 0.1 0.3 0.8 0.3 0.9 0.1 0.1 0 1.1 0.1 1.2 0.1 0.1-0.1 0.5-0.2 0.6 0 0.1 0 0.1-0.1 0.3 -0.1 0.2 0 0.1 0 0.4 0 0.3 0 0 0.1 0.1 0.1 0.1 0 0 0.1 0.1 0.1 0.1 0.1 0.1 0.3 0.2 0.2 0.1 0 0 0.3 0.1 0.2 0.1 0 0 0.1 0.2 0.1 0.2 0 0 0 0.2 0 0.2 0.1 0.1 0.2 0.2 0.1 0.1 0 0 0.2 0.1 0.2 0 0 0 0.2-0.1 0.2-0.1 0 0 0.2 0 0.2 0 0.1 0.1 0.3 0.1 0.1 0 0.1 0.1 0.2 0.2 0.1 0.1 0.1 0.1 0.4 0.4 0 0 0.1 0 0.2-0.2 0.1-0.1 0.1-0.1 0.1-0.2 0-0.1 0.2-0.2 0.4-0.1 0.2 0.1-0.1 0.2-0.1 0.2s-0.1 0.1-0.2 0.2c-0.1 0.1 0 0 0 0.2 0 0.2 0 0 0.1 0.1 0.1 0.1 0 0 0 0.1 0 0.1 0 0-0.1 0.3 -0.1 0.3 0 0 0.1 0.1 0.1 0.1 0 0.3 0.1 0.6 0.1 0.3 0.2 0.2 0.4 0.2 0.2 0 0.4 0.1 0.6 0.1 0.2 0.1 0.2 0.3 0.4 0.5 0.2 0.2 0.4 0.3 0.4 0.3s0.1 0 0.2 0c0.1 0 0.3 0 0.3 0s0.3 0.2 0.3 0.2c0.1 0 0.2 0.1 0.4 0.1 0.2 0 0-0.1 0.1-0.5 0-0.1 0.1-0.2 0.1-0.2s0.1-0.1 0.1-0.2c0-0.1 0.2-0.2 0.2-0.2l0-0.2c-0.1 0-0.2 0-0.2-0.1 -0.1-0.1 0-0.1-0.1-0.3l-0.1-0.1c0 0-0.2-0.2-0.2-0.3 0-0.1-0.1-0.1-0.1-0.3 0-0.2 0-0.2 0.2-0.2 0.1 0 0.2 0.1 0.2 0.1 0.1 0 0.1 0.5 0.2 0.6 0.1 0.1 0.3 0.1 0.3 0.1l0.1 0c0 0 0 0 0.1-0.1 0.1 0 0.3-0.1 0.5-0.3 0.2-0.2 0 0 0.1 0 0.1 0 0.2 0 0.2 0s0.2-0.1 0.2-0.2c0.1-0.1 0.2-0.1 0.4-0.1 0.1 0 0.2 0.1 0.5 0.1 0.1 0 0.3 0 0.3 0l0.1-0.2c0 0 0-0.2 0-0.5 0-0.1 0-0.2 0-0.2s0.1-0.2 0.1-0.2c0.1-0.1 0.2-0.1 0.3-0.1C35.3 435.1 35.4 435.1 35.5 435.2z"/></svg>
