<?xml version="1.0" encoding="utf-8"?>
<!-- Generator: Adobe Illustrator 22.1.0, SVG Export Plug-In . SVG Version: 6.00 Build 0)  -->
<svg version="1.1" id="Слой_1" xmlns="http://www.w3.org/2000/svg" xmlns:xlink="http://www.w3.org/1999/xlink" x="0px" y="0px"
	 viewBox="0 0 95 16" style="enable-background:new 0 0 95 16;" xml:space="preserve">
<g>
	<path d="M87.3,1.2c-0.3-0.3-0.8-0.3-1.1,0s-0.3,0.8,0,1.1l5.9,5.9l-5.9,5.9c-0.3,0.3-0.3,0.8,0,1.1c0.1,0.1,0.3,0.2,0.5,0.2
		s0.4-0.1,0.5-0.2l7-7L87.3,1.2z"/>
	<path d="M24.8,6.8c-0.8,0-1.4,0.6-1.4,1.4c0,0.8,0.6,1.4,1.4,1.4c0.8,0,1.4-0.6,1.4-1.4C26.2,7.4,25.6,6.8,24.8,6.8z"/>
	<path d="M29.4,6.8c-0.8,0-1.4,0.6-1.4,1.4c0,0.8,0.6,1.4,1.4,1.4c0.8,0,1.4-0.6,1.4-1.4C30.8,7.4,30.2,6.8,29.4,6.8z"/>
	<path d="M38.7,6.8c-0.8,0-1.4,0.6-1.4,1.4c0,0.8,0.6,1.4,1.4,1.4c0.8,0,1.4-0.6,1.4-1.4C40,7.4,39.4,6.8,38.7,6.8z"/>
	<path d="M20.2,6.8c-0.8,0-1.4,0.6-1.4,1.4c0,0.8,0.6,1.4,1.4,1.4c0.8,0,1.4-0.6,1.4-1.4C21.6,7.4,21,6.8,20.2,6.8z"/>
	<path d="M34,6.8c-0.8,0-1.4,0.6-1.4,1.4c0,0.8,0.6,1.4,1.4,1.4c0.8,0,1.4-0.6,1.4-1.4C35.4,7.4,34.8,6.8,34,6.8z"/>
	<path d="M6.4,6.8C5.6,6.8,5,7.4,5,8.2c0,0.8,0.6,1.4,1.4,1.4s1.4-0.6,1.4-1.4C7.8,7.4,7.1,6.8,6.4,6.8z"/>
	<path d="M15.6,6.8c-0.8,0-1.4,0.6-1.4,1.4c0,0.8,0.6,1.4,1.4,1.4c0.8,0,1.4-0.6,1.4-1.4C17,7.4,16.4,6.8,15.6,6.8z"/>
	<path d="M1.8,6.8C1,6.8,0.4,7.4,0.4,8.2c0,0.8,0.6,1.4,1.4,1.4c0.8,0,1.4-0.6,1.4-1.4C3.1,7.4,2.5,6.8,1.8,6.8z"/>
	<path d="M11,6.8c-0.8,0-1.4,0.6-1.4,1.4c0,0.8,0.6,1.4,1.4,1.4c0.8,0,1.4-0.6,1.4-1.4C12.4,7.4,11.8,6.8,11,6.8z"/>
	<path d="M43.3,6.8c-0.8,0-1.4,0.6-1.4,1.4c0,0.8,0.6,1.4,1.4,1.4c0.8,0,1.4-0.6,1.4-1.4C44.7,7.4,44,6.8,43.3,6.8z"/>
	<path d="M75.6,6.8c-0.8,0-1.4,0.6-1.4,1.4c0,0.8,0.6,1.4,1.4,1.4c0.8,0,1.4-0.6,1.4-1.4C77,7.4,76.3,6.8,75.6,6.8z"/>
	<path d="M47.9,6.8c-0.8,0-1.4,0.6-1.4,1.4c0,0.8,0.6,1.4,1.4,1.4s1.4-0.6,1.4-1.4C49.3,7.4,48.6,6.8,47.9,6.8z"/>
	<path d="M80.2,6.8c-0.8,0-1.4,0.6-1.4,1.4c0,0.8,0.6,1.4,1.4,1.4c0.8,0,1.4-0.6,1.4-1.4C81.6,7.4,80.9,6.8,80.2,6.8z"/>
	<path d="M84.8,6.8c-0.8,0-1.4,0.6-1.4,1.4c0,0.8,0.6,1.4,1.4,1.4c0.8,0,1.4-0.6,1.4-1.4C86.2,7.4,85.5,6.8,84.8,6.8z"/>
	<path d="M71,6.8c-0.8,0-1.4,0.6-1.4,1.4c0,0.8,0.6,1.4,1.4,1.4c0.8,0,1.4-0.6,1.4-1.4C72.3,7.4,71.7,6.8,71,6.8z"/>
	<path d="M57.1,6.8c-0.8,0-1.4,0.6-1.4,1.4c0,0.8,0.6,1.4,1.4,1.4c0.8,0,1.4-0.6,1.4-1.4C58.5,7.4,57.9,6.8,57.1,6.8z"/>
	<path d="M66.3,6.8c-0.8,0-1.4,0.6-1.4,1.4c0,0.8,0.6,1.4,1.4,1.4c0.8,0,1.4-0.6,1.4-1.4C67.7,7.4,67.1,6.8,66.3,6.8z"/>
	<path d="M52.5,6.8c-0.8,0-1.4,0.6-1.4,1.4c0,0.8,0.6,1.4,1.4,1.4c0.8,0,1.4-0.6,1.4-1.4C53.9,7.4,53.3,6.8,52.5,6.8z"/>
	<path d="M61.7,6.8c-0.8,0-1.4,0.6-1.4,1.4c0,0.8,0.6,1.4,1.4,1.4c0.8,0,1.4-0.6,1.4-1.4C63.1,7.4,62.5,6.8,61.7,6.8z"/>
</g>
</svg>
