<?xml version="1.0" encoding="utf-8"?>
<!-- Generator: Adobe Illustrator 22.1.0, SVG Export Plug-In . SVG Version: 6.00 Build 0)  -->
<svg version="1.1" id="Слой_1" xmlns="http://www.w3.org/2000/svg" xmlns:xlink="http://www.w3.org/1999/xlink" x="0px" y="0px"
	 viewBox="0 0 24 24" style="enable-background:new 0 0 24 24;" xml:space="preserve">
<path d="M20.3,10.6V7.7c0,0,0,0,0,0V4.2c0-0.8-0.6-1.4-1.4-1.4h-4.5V1.4c0-0.8-0.6-1.4-1.4-1.4H7.3C6.5,0,5.9,0.6,5.9,1.4v1.4H1.4
	C0.6,2.8,0,3.4,0,4.2v3.5v0v9C0,18,1.1,19,2.3,19H17v4.5c0,0.2,0.1,0.3,0.3,0.4c0.2,0.1,0.4,0.1,0.5-0.1l2.1-1.6l2.1,1.6
	C22,24,22.2,24,22.3,24c0.2-0.1,0.3-0.2,0.3-0.4V18c0.9-0.8,1.4-1.9,1.4-3.1C24,12.6,22.4,10.9,20.3,10.6z M6.8,1.4
	c0-0.3,0.2-0.5,0.5-0.5h5.6c0.3,0,0.5,0.2,0.5,0.5v1.4H6.8V1.4z M1.4,3.8h17.4c0.3,0,0.5,0.2,0.5,0.5v3.2L12,10.6
	c-0.4-0.6-1.1-1-1.9-1s-1.5,0.4-1.9,1L0.9,7.4V4.2C0.9,4,1.1,3.8,1.4,3.8z M8.8,11.4c0.2-0.5,0.7-0.8,1.3-0.8s1.1,0.3,1.3,0.8
	c0.1,0.2,0.1,0.4,0.1,0.6c0,0.8-0.6,1.4-1.4,1.4S8.7,12.8,8.7,12C8.7,11.8,8.8,11.6,8.8,11.4z M2.3,18.1c-0.8,0-1.4-0.6-1.4-1.4V8.5
	l6.9,3c0,0.2-0.1,0.3-0.1,0.5c0,1.3,1.1,2.3,2.3,2.3s2.3-1.1,2.3-2.3c0-0.2,0-0.3-0.1-0.5l6.9-3v2.2c-2.1,0.2-3.8,2-3.8,4.2
	c0,1.2,0.5,2.3,1.4,3.1v0.1H2.3z M20.1,21.3c-0.2-0.1-0.4-0.1-0.6,0l-1.6,1.3v-4c0.6,0.3,1.2,0.4,1.9,0.4c0.7,0,1.3-0.2,1.9-0.4v4
	L20.1,21.3z M19.8,18.1c-1.8,0-3.3-1.5-3.3-3.3c0-1.8,1.5-3.3,3.3-3.3s3.3,1.5,3.3,3.3C23.1,16.6,21.6,18.1,19.8,18.1z"/>
<path d="M19.8,12.5c-1.3,0-2.3,1.1-2.3,2.3s1.1,2.3,2.3,2.3s2.3-1.1,2.3-2.3S21.1,12.5,19.8,12.5z M19.8,16.2
	c-0.8,0-1.4-0.6-1.4-1.4s0.6-1.4,1.4-1.4s1.4,0.6,1.4,1.4S20.6,16.2,19.8,16.2z"/>
</svg>
