<?xml version="1.0" encoding="utf-8"?>
<!-- Generator: Adobe Illustrator 22.1.0, SVG Export Plug-In . SVG Version: 6.00 Build 0)  -->
<svg version="1.1" id="Слой_1" xmlns="http://www.w3.org/2000/svg" xmlns:xlink="http://www.w3.org/1999/xlink" x="0px" y="0px"
	 viewBox="0 0 24 24" style="enable-background:new 0 0 24 24;" xml:space="preserve">
<g>
	<path d="M23.5,6.9L18.6,2c-0.3-0.3-0.7-0.5-1.2-0.5S16.6,1.7,16.3,2l-1.1,1.1c-0.2,0.2-0.3,0.4-0.4,0.6l-5.4-1c0,0,0,0,0,0
		C7,2.3,4.6,3.9,4.2,6.3L3.9,7.5c-0.3,1.4,0.6,2.7,2,3c1.4,0.3,2.7-0.6,3-2L9,7.7L11.4,8l6.3,6.3l1.1,1.1c0.2,0.2,0.2,0.6,0,0.8
		c-0.2,0.2-0.6,0.2-0.8,0l-3.1-3.1c-0.2-0.2-0.6-0.2-0.8,0c-0.2,0.2-0.2,0.6,0,0.8l3.1,3.1c0.1,0.1,0.2,0.3,0.2,0.4
		s-0.1,0.3-0.2,0.4c-0.2,0.2-0.6,0.2-0.8,0l-3.1-3.1c-0.2-0.2-0.6-0.2-0.8,0c-0.2,0.2-0.2,0.6,0,0.8l3.1,3.1c0.2,0.2,0.2,0.6,0,0.8
		c-0.1,0.1-0.3,0.2-0.4,0.2c-0.2,0-0.3-0.1-0.4-0.2l-3.1-3.1c-0.2-0.2-0.6-0.2-0.8,0c-0.2,0.2-0.2,0.6,0,0.8l3.1,3.1
		c0.2,0.2,0.2,0.6,0,0.8c-0.2,0.2-0.6,0.2-0.8,0L2.4,10.2L0.9,8.8c-0.2-0.2-0.6-0.2-0.8,0c-0.2,0.2-0.2,0.6,0,0.8L1.6,11l1.6,1.6
		l-0.9,0.9c-0.3,0.3-0.4,0.7-0.4,1c0,0.4,0.2,0.8,0.4,1l0.3,0.3c0.2,0.2,0.6,0.4,0.9,0.4c0,0.3,0.2,0.7,0.4,0.9l0.3,0.3
		c0.3,0.3,0.6,0.4,0.9,0.4c0,0.3,0.2,0.7,0.4,0.9L5.8,19c0.2,0.2,0.6,0.4,0.9,0.4c0,0.3,0.2,0.7,0.4,0.9l0.3,0.3
		c0.3,0.3,0.7,0.4,1,0.4c0.4,0,0.8-0.1,1-0.4l0.9-0.9l2.1,2.1c0.3,0.3,0.7,0.5,1.2,0.5s0.9-0.2,1.2-0.5c0.3-0.3,0.5-0.7,0.5-1.1
		c0.4,0,0.8-0.2,1.1-0.5c0.3-0.3,0.5-0.7,0.5-1.1c0.4,0,0.8-0.2,1.1-0.5c0.3-0.3,0.5-0.7,0.5-1.1c0.4,0,0.8-0.2,1.1-0.5
		c0.7-0.7,0.7-1.7,0-2.4l-0.8-0.8l2.8-2.8l1.9-1.9C24.2,8.5,24.2,7.5,23.5,6.9L23.5,6.9z M3.1,14.8c-0.2-0.2-0.2-0.4,0-0.6l0.8-0.8
		l0.8,0.8L3.9,15c-0.2,0.2-0.4,0.2-0.6,0L3.1,14.8z M4.7,16.4c-0.2-0.2-0.2-0.4,0-0.6L5.5,15l0.8,0.8l-0.8,0.8
		c-0.2,0.2-0.4,0.2-0.6,0C4.9,16.6,4.7,16.4,4.7,16.4z M6.3,18c-0.1-0.1-0.1-0.2-0.1-0.3c0-0.1,0-0.2,0.1-0.3l0.8-0.8l0.8,0.8
		l-0.8,0.8c-0.2,0.2-0.4,0.2-0.6,0L6.3,18L6.3,18z M8.7,19.9c-0.2,0.2-0.4,0.2-0.6,0l-0.3-0.3c-0.2-0.2-0.2-0.4,0-0.6l0.8-0.8
		l0.8,0.8C9.5,19.1,8.7,19.9,8.7,19.9z M18.1,13.1l-6-6c-0.1-0.1-0.2-0.1-0.3-0.2L8.6,6.6c0,0,0,0,0,0C8.3,6.6,8.1,6.8,8,7.1
		L7.8,8.3C7.6,9.1,6.9,9.6,6.1,9.4C5.7,9.3,5.4,9.1,5.2,8.8C5,8.5,4.9,8.1,5,7.7l0.2-1.2c0.4-1.8,2.2-3,4-2.7c0,0,0,0,0,0l5.3,0.9
		l0.7,0.7l5.3,5.3L18.1,13.1z M22.8,8.4l-1.5,1.5l-5.3-5.3c-0.1-0.1-0.2-0.2-0.2-0.4s0.1-0.3,0.2-0.4l1.1-1.1
		c0.1-0.1,0.2-0.2,0.4-0.2s0.3,0.1,0.4,0.2l4.9,4.9c0.1,0.1,0.2,0.2,0.2,0.4S22.9,8.3,22.8,8.4L22.8,8.4z"/>
	<circle cx="21.4" cy="8.2" r="0.5"/>
</g>
</svg>
