<?xml version="1.0" encoding="utf-8"?>
<!-- Generator: Adobe Illustrator 22.1.0, SVG Export Plug-In . SVG Version: 6.00 Build 0)  -->
<svg version="1.1" id="Слой_1" xmlns="http://www.w3.org/2000/svg" xmlns:xlink="http://www.w3.org/1999/xlink" x="0px" y="0px"
	 viewBox="0 0 100 100" style="enable-background:new 0 0 100 100;" xml:space="preserve">
<style type="text/css">
	.st0{fill-rule:evenodd;clip-rule:evenodd;}
</style>
<path class="st0" d="M90.4,18.2c0.9-0.1,1.7-0.3,2.6-0.2c0.4,0,0.8,0.1,1.2,0.2c0.5,0.1,1,0.2,1.5,0.2c0.1,0,0.3,0,0.4,0.1
	c0.3,0,0.6,0.1,0.8,0.2c0.4,0.2,0.9,0.4,1.3,0.5c0.5,0.2,1,0.4,1.5,0.5c0.1,0,0.2,0.1,0.2,0.1c0-0.1,0-0.2-0.1-0.3
	c-0.1-0.1-0.2-0.2-0.3-0.3c-0.4-0.4-0.8-0.8-1.2-1.2c-0.7-0.7-1.5-1.3-2.4-1.7c-0.5-0.3-1.1-0.5-1.6-0.7c-0.4-0.1-0.7-0.1-1.1-0.2
	c-0.5-0.1-1-0.1-1.5-0.2c-0.8,0-1.6-0.1-2.5,0.2c-0.6,0.2-1.2,0.2-1.8,0.3c-0.8,0.1-1.5,0.3-2.3,0.4c-0.8,0.1-1.5,0.3-2.3,0.3
	c-0.2,0-0.5,0-0.7,0c-0.2,0-0.4-0.1-0.4-0.4c0-0.3,0-0.7,0-1c0-0.1,0-0.1,0-0.2c0-0.5,0.1-1,0.3-1.5c0.3-0.6,0.6-1.2,1.1-1.7
	c0.2-0.3,0.5-0.5,0.8-0.8c0.3-0.3,0.6-0.6,0.9-0.9c0.3-0.3,0.5-0.5,0.8-0.7c0.5-0.4,0.9-0.9,1.3-1.4c0.5-0.5,0.9-1.1,1.3-1.7
	c0.3-0.5,0.6-1,0.9-1.4C89.5,4.5,89.9,3.2,90,3c0-0.2-0.1-0.8-0.1-0.9c-0.1,0.2-0.3,0.3-0.4,0.5c-0.2,0.4-0.6,0.7-0.9,1
	c-0.5,0.6-1.2,0.9-1.9,1.4c-0.6,0.4-1.3,0.8-1.8,1.3c-0.6,0.5-1.1,1-1.6,1.6C83,8.1,82.6,8.5,82.3,9c-0.2,0.3-0.4,0.6-0.6,0.9
	c-0.2,0.3-0.3,0.5-0.5,0.8c0-0.1-0.1-0.2,0-0.2c0-0.3,0.1-0.5,0.2-0.7c0.2-0.4,0.4-0.8,0.6-1.2c0.2-0.2,0.3-0.5,0.4-0.7
	c0.3-0.6,0.7-1.2,1.1-1.7c0.2-0.2,0.4-0.4,0.5-0.6c0.2-0.3,0.5-0.6,0.7-0.9c0.1-0.2,0.2-0.3,0.3-0.5c0.2-0.3,0.5-2.5,0.4-2.5
	c-0.1,0-0.1,0.1-0.2,0.2c-0.2,0.3-0.4,0.5-0.6,0.7c-0.5,0.5-1.1,0.8-1.7,1.2c-0.4,0.3-0.8,0.7-1.3,1c-0.1,0.1-0.2,0.2-0.3,0.3
	c-0.7,0.7-1.3,1.4-1.9,2.2c-0.6,0.8-0.9,1.6-1,2.6c-0.1,0.9-0.2,1.7-0.2,2.6c0,0.3,0.1,0.7,0.1,1c0,0.1,0,0.1,0,0.2c0,0,0,0-0.1,0
	c-0.2-0.2-0.5-0.3-0.7-0.5c-0.8-0.6-1.5-1.2-2.2-1.8c-0.4-0.4-0.8-0.7-1.2-1.1c-0.5-0.4-1-0.9-1.5-1.2c-0.4-0.3-0.8-0.6-1.2-0.9
	c-0.4-0.3-0.8-0.5-1.1-0.8c-0.6-0.4-1.2-0.8-1.8-1.2c-0.5-0.3-1-0.6-1.4-0.9c-0.7-0.5-1.5-0.8-2.2-1.2c-0.4-0.2-0.9-0.4-1.3-0.6
	c-0.6-0.3-1.3-0.5-1.9-0.8c-0.4-0.2-0.9-0.3-1.3-0.4c-0.7-0.2-1.4-0.3-2.1-0.4c-0.5-0.1-0.9-0.1-1.4-0.2c-0.4,0-0.8-0.1-1.2-0.1
	c-0.9-0.1-1.8-0.2-2.7-0.1c-0.4,0-0.9,0-1.3,0c-0.8,0-1.6,0.1-2.4,0.2c-0.2,0-0.4,0.1-0.6,0.1c-0.1,0-0.2,0-0.3,0
	c0,0-0.9,0.2-1.3,0.3c-0.4,0.1-0.8,0.2-1.2,0.3c-0.1,0-0.2,0.1-0.3,0.1c-0.1,0-0.2,0-0.2,0.1c-0.1,0-0.1,0-0.2,0.1
	C44.6,3,44,3.2,43.4,3.5c-0.3,0.1-0.7,0.3-1,0.4c-0.3,0.2-0.7,0.3-1,0.5c-0.2,0.1-0.4,0.2-0.6,0.3C40.1,5,39.5,5.3,39,5.6
	c-0.3,0.2-0.7,0.4-1,0.6c-0.7,0.5-1.4,1-2.1,1.5c-0.7,0.5-1.3,0.9-2,1.4c-0.4,0.3-0.7,0.6-1,0.9c-0.5,0.4-1,0.9-1.5,1.3
	c-0.3,0.2-0.5,0.5-0.8,0.8c-0.2,0.2-0.5,0.4-0.7,0.7c-0.4,0.4-0.8,0.8-1.2,1.2c-0.3,0.3-0.6,0.6-0.9,0.9c-0.5,0.5-1,1-1.4,1.5
	c-0.6,0.6-1.1,1.1-1.7,1.7c-0.8,0.8-1.6,1.5-2.4,2.3c-0.8,0.8-1.6,1.6-2.4,2.4c-0.4,0.4-0.7,0.7-1.1,1c-0.3,0.3-0.7,0.7-1,1
	c-0.3,0.3-0.5,0.5-0.8,0.8c0,0-0.1,0-0.1,0c0,0,0,0,0,0.1c-0.2,0.2-0.5,0.5-0.7,0.7c-0.7,0.7-1.5,1.4-2.2,2
	c-0.7,0.6-1.5,1.3-2.2,1.8c-0.9,0.7-1.8,1.3-2.8,1.8c-0.7,0.4-1.5,0.8-2.2,1.1c-0.4,0.2-0.9,0.4-1.3,0.6c-0.8,0.4-2.7,0.9-2.8,1
	c0,0-1.9,0.4-2.2,0.7C0,35.6,0,35.7,0,35.8c0.1,0.2,2.2,0.9,2.4,1c0.4,0.2,0.8,0.3,1.2,0.5c0.3,0.1,0.6,0.3,1,0.4
	c0.4,0.2,0.8,0.3,1.1,0.5c0.2,0.1,0.5,0.2,0.7,0.3C7,38.8,7.5,39,8,39.2c0.2,0.1,0.4,0.2,0.6,0.3c0.3,0.1,0.7,0.2,1,0.3
	c0.1,0,0.2,0.1,0.3,0.2c0.1,0,0.2,0.1,0.3,0.1c0.1,0,0.2,0.1,0.4,0.1c0.5,0.2,1.1,0.3,1.6,0.5c0.4,0.1,0.8,0.3,1.2,0.3
	c0.4,0.1,0.8,0.3,1.3,0.3c0.2,0,0.4,0.1,0.6,0.1c0.1,0,0.6,0.2,0.8,0.2c0.3,0.1,0.6,0.2,0.8,0.2c0.3,0.1,0.6,0.2,0.9,0.2
	c0.1,0,0.5,0.2,0.8,0.2c0.2,0,0.3,0.1,0.5,0.1c0.4,0.1,0.9,0.2,1.3,0.3c0.3,0.1,0.5,0.1,0.8,0.2c0.2,0,0.4,0.1,0.5,0.2
	c0.4,0.1,0.9,0.2,1.4,0.3c0.3,0.1,1.8,0.2,2,0.3c0.1,0,0.2,0.1,0.3,0.1c0.2,0,0.3,0,0.5,0.1c0.7,0.2,1.4,0.3,2.2,0.5
	c0.6,0.1,1.2,0.3,1.7,0.4c0.2,0.1,0.5,0.1,0.8,0.1c0.4,0.1,0.9,0.1,1.3,0.1c0.3,0,0.5,0,0.8,0c0.5,0,0.9,0,1.3,0c0.4,0,0.9,0,1.3,0
	c0.4,0,0.8,0,1.2,0c0.6,0,1.2-0.1,1.8-0.1c0.1,0,0.1,0,0.2,0c0.4,0,0.8,0,1.3-0.1c0.9-0.1,1.8-0.1,2.7-0.2c0.3,0,0.6-0.1,0.9-0.1
	c0.4,0,0.8-0.1,1.2-0.1c0.5-0.1,1.1-0.2,1.6-0.3c0.2,0,0.5,0,0.7-0.2c0.1,0,0.2,0,0.2,0c0.2,0,0.5-0.1,0.7-0.1
	c0.3-0.1,0.5-0.2,0.8-0.2c0,0,0.1,0,0.2,0c-0.1,0.1-0.2,0.3-0.2,0.3c-0.5,0.6-1.1,1.1-1.6,1.7c-0.4,0.5-0.8,1-1.2,1.6
	c-0.2,0.3-0.4,0.6-0.6,0.9c-0.3,0.6-0.7,1.2-1,1.8c-0.3,0.6-0.6,1.3-0.8,1.9c-0.2,0.5-0.3,0.9-0.5,1.4c-0.2,0.5-0.3,0.9-0.4,1.4
	c-0.2,0.8-0.4,1.7-0.6,2.5c-0.1,0.4-0.1,0.8-0.2,1.2c0,0.3-0.1,0.5-0.1,0.8c-0.1,0.6-0.2,1.2-0.2,1.8c-0.1,0.6-0.1,1.3,0,1.9
	c0,0.8,0,1.6,0.1,2.3c0,0.9,0.2,1.8,0.3,2.7c0.1,0.7,0.3,1.5,0.4,2.2c0.1,0.5,0.2,1,0.3,1.5c0.1,0.6,0.2,1.3,0.2,1.9
	c0.1,1,0.2,2,0.3,3.1c0.1,0.6,0.1,1.2,0.1,1.8c0.1,0.8,0.1,1.6,0.2,2.4c0,0.4,0,0.8-0.2,1.2c-0.2,0.6-0.3,1.3-0.5,1.9
	c-0.1,0.4-0.2,0.8-0.3,1.3c-0.1,0.3-0.2,0.6-0.3,1c-0.1,0.5-0.4,0.9-0.6,1.4c-0.5,0.9-0.9,1.7-1.3,2.6c-0.3,0.5-0.6,0.9-0.9,1.4
	c-0.2,0.3-0.4,0.6-0.6,1c-0.1,0.2-0.3,0.4-0.5,0.7c-0.3,0.4-0.6,0.8-0.9,1.2c-0.5,0.6-0.9,1.2-1.4,1.7c-0.4,0.1-0.7,0.3-1.1,0.5
	c-0.5,0.3-0.8,0.8-1.3,1.1c-0.3,0.2,0.5,0.5,0.8,0.3c0.6-0.4,1-1,1.6-1.3c0.7-0.3,1.3-0.5,2-0.8c0.8-0.4,1.5-0.8,2.3-1.2
	c0.9-0.3,1.9-0.6,2.8-0.9c0.6-0.2,1.2-0.5,1.8-0.8c0.3-0.1,0.7-0.2,1-0.3c1.4-0.4,2.6-1.1,3.9-1.7c2.2-1.1,4.6-1.8,6.9-2.7
	c2.3-1,4.4-2.2,6.6-3.5c1.1-0.7,2.2-1.3,3.2-2c0.9-0.6,1.7-1.3,2.5-2.1c0.6-0.4,1.2-1,1.9-1.4c1-0.7,1.8-1.5,2.7-2.3
	c0.4-0.3,0.9-0.7,1.2-1.1c0,0,0-0.1,0-0.1c0.4-0.4,0.8-0.7,1.2-1.1c0.5-0.5,0.8-1.1,1.2-1.6c0.1-0.1,0.1-0.2,0.2-0.3
	c0.1-0.1,0.2-0.2,0.2-0.3c0.6-0.7,1.2-1.5,1.7-2.2c0.3-0.4,0.6-0.8,0.8-1.3c0.3-0.4,0.5-0.8,0.8-1.2c0.3-0.5,0.6-1.1,0.8-1.6
	c0.2-0.5,0.4-1.1,0.6-1.7c0.1-0.4,0.2-0.8,0.3-1.2c0.1-0.3,0.2-0.6,0.3-0.8c0.2-0.4,0.4-0.9,0.5-1.3c0.3-0.9,0.6-1.8,0.8-2.8
	c0.1-0.7,0.2-1.4,0.3-2.1c0.1-0.8,0.2-1.6,0.2-2.5c0.1-1.1,0.1-2.2-0.1-3.3c-0.1-0.7-0.2-1.4-0.3-2.1c-0.1-0.6-0.2-1.1-0.4-1.7
	c-0.2-0.6-0.4-1.2-0.5-1.8c-0.1-0.6-0.3-1.2-0.6-1.8c-0.3-0.6-0.5-1.3-0.8-1.9c-0.4-0.9-0.8-1.7-1.2-2.6c-0.5-1.2-1-2.4-1.4-3.6
	c-0.3-0.7-0.5-1.4-0.7-2c-0.1-0.3-0.3-0.7-0.4-1c-0.2-0.6-0.4-1.3-0.6-1.9c-0.1-0.5-0.2-1-0.3-1.5c-0.1-0.5-0.1-1-0.2-1.5
	c-0.1-1-0.2-2-0.2-3c0-0.5,0.1-1,0.3-1.5c0.2-0.4,0.3-0.9,0.5-1.3c0.3-0.4,0.5-0.8,0.8-1.1c0.2-0.3,0.4-0.5,0.6-0.7
	c0.3-0.3,0.6-0.6,0.9-0.9c0.1-0.1,0.3-0.2,0.5-0.2c0.3-0.1,0.6-0.2,0.9-0.2c0.2,0,0.4,0,0.7,0.1c0.6,0.2,1.1,0.4,1.7,0.7
	c0.5,0.2,1.1,0.5,1.5,0.8c0.5,0.3,0.9,0.7,1.4,1c0.9,0.6,1.8,1.2,2.8,1.6c0.6,0.2,1.1,0.4,1.7,0.6c0.6,0.1,1.2,0.2,1.8,0.2
	c0.6,0.1,1.2,0.1,1.9,0.1c0.5,0,0.9,0,1.4,0c0.1,0,0.2,0,0.3,0c0.3,0.1,0.6,0.2,0.9,0.2c0.4,0.1,0.8,0.1,1.2,0.2
	c0.2,0,0.3,0,0.5-0.1c0.1-0.1,0.1-0.1,0.2-0.1c0,0,0,0,0.1,0c-0.7-0.2-1.3-0.6-1.9-1c-0.5-0.4-0.9-0.8-1.4-1.2
	c-0.1-0.1-0.2-0.2-0.3-0.3c-0.1,0-0.1-0.1-0.2-0.1c-0.4-0.3-0.7-0.6-1.2-0.8c-0.6-0.4-1.3-0.7-2-0.9c-0.9-0.3-1.7-0.4-2.7-0.6
	C90.3,18.3,90.3,18.2,90.4,18.2z M78.9,11.3c0.1-0.6,0.2-1.1,0.2-1.7c0.1-0.5,0.3-0.9,0.6-1.3c0-0.1,0.1-0.1,0.1-0.2
	c0,0,0.1-0.1,0.1-0.1C80,8,80,8,80,8c0,0,0,0.1,0,0.1c-0.1,0.7-0.3,1.5-0.3,2.2c0,0.7-0.1,1.3-0.1,2c0,0.2,0,0.3,0,0.5
	c0,0.5,0,1.1,0,1.6c0,0,0,0-0.1,0c-0.2-0.1-0.4-0.2-0.5-0.5C78.9,13.2,78.8,12.2,78.9,11.3z M77.6,15.4c0.5,0.2,0.9,0.4,1.4,0.6
	c0.1,0,0.2,0.1,0.3,0.2c0,0,0,0-0.1,0c-0.2,0-0.5-0.1-0.7-0.1c-0.5,0-0.9,0-1.4,0.1c-1,0.1-2,0.4-3,0.7c-1,0.3-1.9,0.7-2.8,1.2
	c-0.5,0.3-1,0.6-1.4,0.9c-0.2,0.1-0.5,0.3-0.7,0.4c0-0.1-0.1-0.1-0.1-0.2c0.4-0.2,0.6-0.4,0.9-0.7c0.4-0.5,0.8-0.9,1.3-1.3
	c0.9-0.7,2-1.3,3.1-1.7c0.6-0.2,1.2-0.3,1.9-0.3c0.4,0,0.7,0,1,0.1C77.4,15.3,77.5,15.3,77.6,15.4z M75.9,25c0,0.6,0.1,1.2,0.2,1.8
	c-0.5-0.5-1-0.9-1.4-1.5c0.2-0.6,0.5-1.2,0.8-1.8c0.1-0.2,0.2-0.4,0.4-0.6c0,0,0,0,0.1,0c0,0.1,0,0.2,0,0.4
	C75.9,24,75.9,24.5,75.9,25z M74.9,28.4c-0.3-0.3-0.5-0.5-0.8-0.8c0,0,0,0-0.1-0.1c0.1-0.4,0.2-0.8,0.3-1.3c0-0.1,0.1-0.3,0.1-0.4
	c0-0.1,0.1-0.2,0.1-0.3c0.5,0.5,1,1,1.5,1.5c0.1,0.7,0.2,1.3,0.3,2c0,0.2,0.1,0.4,0.1,0.6C76,29.4,75.4,28.9,74.9,28.4z M76.6,30.1
	c0.1,0.3,0.2,0.6,0.2,0.9c0,0.2,0.1,0.4,0.1,0.5c-0.6-0.1-1.2-0.3-1.8-0.7c-0.5-0.4-1-0.8-1.4-1.3c0-0.1,0-0.2,0-0.2
	c0-0.4,0-0.8,0.1-1.2c0-0.1,0-0.2,0.1-0.3c0.2,0.2,0.4,0.4,0.7,0.6C75.3,29,75.9,29.6,76.6,30.1z M74.9,22.1c-0.6,0.8-1,1.6-1.3,2.5
	c-0.3,0.1-0.6,0.3-0.8,0.4c-0.2,0.1-0.4,0.2-0.7,0.4c0.4-0.6,0.8-1.2,1.2-1.8c0.5-0.7,1-1.4,1.7-2c0.1-0.1,0.3-0.2,0.4-0.4
	c0,0,0,0,0.1,0C75.3,21.6,75.1,21.9,74.9,22.1z M72.8,25.3c0.2-0.1,0.4-0.2,0.7-0.3c0,0,0,0,0,0c0,0.1,0,0.1,0,0.2
	c-0.1,0.4-0.2,0.8-0.3,1.2c-0.2,0.2-0.6,0.4-0.9,0.6c-0.3,0.2-0.5,0.4-0.8,0.6c-0.4,0.3-0.9,0.7-1.3,0.9c0.3-0.5,0.5-0.9,0.8-1.4
	c0.3-0.4,0.5-0.8,0.8-1.2C72.1,25.6,72.4,25.4,72.8,25.3z M70.4,45.6c-1.1,0.4-2.1,0.9-3.2,1.2c-2.3,0.6-4.9,0.4-7.2,0.2
	c-1.2-0.1-2.4-0.3-3.5-0.6c-0.5-0.1-1-0.3-1.4-0.4c-0.8-0.3-1.7-0.7-2.5-0.9c-0.8-0.2-1.7-0.4-2.6-0.3c0,0,0,0,0.1-0.1
	c0.3-0.3,0.7-0.6,1-0.9c0.3-0.3,0.7-0.5,1-0.7c0.3-0.2,0.7-0.4,1.1-0.6c0.3-0.1,0.7-0.2,1-0.4c0.2-0.1,0.4-0.2,0.6-0.3
	c0.7,0.2,1.4,0.4,2,0.7c1,0.5,1.8,1.2,2.7,1.8c1.6,1.1,3.5,1.5,5.4,1.6c1.9,0.1,3.9-0.2,5.7-0.7c0.5-0.2,1.1-0.3,1.6-0.5
	c0,0.1-0.1,0.1-0.1,0.2C71.5,45.1,70.9,45.3,70.4,45.6z M71.4,45.5c-0.3,0.3-0.6,0.6-0.9,0.8c-1.7,1.2-3.8,2-5.9,2.2
	c-2.2,0.2-4.2-0.4-6.2-1.2c-0.6-0.3-1.2-0.5-1.9-0.8c1.9,0.5,3.9,0.7,5.9,0.8c1.1,0,2.3,0,3.4-0.1c1.1-0.1,2.2-0.4,3.3-0.9
	C69.9,46.1,70.7,45.9,71.4,45.5z M51.4,45.2c-0.7,0-1.4,0-2.1,0.1C49.9,45.1,50.7,45.1,51.4,45.2z M39.6,41
	c-0.6-0.2-1.2-0.4-1.7-0.6c-0.6-0.2-1.1-0.5-1.6-0.8c-0.2-0.1-0.4-0.2-0.6-0.3c0.3-0.5,0.5-1,0.8-1.5c0.1-0.2,0.2-0.4,0.3-0.6
	c0.2-0.3,0.4-0.7,0.5-1c2.2,0.7,4.5,1.4,6.9,1.4c1.1,0,2.3-0.1,3.4-0.5c0.5-0.2,0.9-0.4,1.4-0.6c-1.2,1.1-2.4,2.1-3.8,2.9
	c-1.4,0.8-2.9,1.3-4.4,1.8C40.3,41.2,40,41.1,39.6,41z M40.3,41.3c-0.6,0.2-1.2,0.3-1.9,0.5c-1.2,0.3-2.3,0.5-3.5,0.8
	c-0.7,0.2-1.4,0.4-2.1,0.5c0.2-0.2,0.4-0.3,0.5-0.5c0.3-0.3,0.5-0.6,0.7-0.9c0.2-0.3,0.4-0.6,0.6-0.8c0,0,0.1-0.1,0.1-0.1
	c0.2-0.3,0.3-0.6,0.5-0.8c0.1-0.2,0.2-0.3,0.2-0.5c0.2,0.1,0.5,0.2,0.6,0.3c0.3,0.1,0.5,0.3,0.8,0.4c0.6,0.3,1.2,0.5,1.8,0.7
	C39.3,41.1,39.8,41.2,40.3,41.3z M48.6,36.5c-0.5,0.2-1,0.4-1.6,0.6c-1.1,0.3-2.2,0.4-3.3,0.4c-2.3,0-4.4-0.7-6.5-1.4
	c0.2-0.4,0.3-0.8,0.5-1.2c1,0.2,2,0.5,3,0.5c1.1,0,2.1-0.1,3.2-0.3c2-0.5,3.7-1.4,5.3-2.7c0,0,0,0,0,0c0.5-0.5,1.3-0.6,1.9-0.9
	c0.6-0.3,1.2-0.7,1.8-1.1c0.6-0.4,1.2-0.8,1.7-1.3c0.1-0.1,0.2-0.2,0.4-0.3c-1.1,2.1-2.5,4-4.2,5.8c-0.5,0.5-1,1.1-1.5,1.6
	C49.1,36.3,48.9,36.4,48.6,36.5z M19.6,38.1c0.9-0.8,1.8-1.6,2.7-2.5c0.8-0.9,1.6-1.9,2.5-2.7c0.4-0.4,0.8-1,1.1-1.5
	c0.3-0.5,0.6-1,0.9-1.5c0.6-1,1.3-1.9,1.6-3c0.4-1.2,1.1-2.3,1.9-3.4c0.8-1,1.7-1.8,2.7-2.6c0.2-0.2,0.4-0.3,0.6-0.5
	c0.2-0.1,0.3-0.2,0.5-0.3c0.1,0,0.1-0.1,0.2-0.1c0,0,0.1,0,0.1,0c0,0,0,0,0,0c0,0,0,0,0,0c0,0,0,0,0,0c-0.2,0.3-0.4,0.5-0.7,0.8
	c-0.4,0.4-0.8,0.9-1,1.4c-0.2,0.6-0.3,1.1-0.4,1.7c-0.1,0.7-0.3,1.2-0.6,1.8c0,0.1-0.1,0.1-0.1,0.2c-0.8,1-1.6,2-2.4,3
	c-0.8,1-1.6,2-2.3,3c-0.9,1.3-1.7,2.7-2.7,3.9c-0.1,0-0.1,0.1-0.1,0.1c-0.5,0.6-1.1,1.2-1.8,1.7c-0.9,0.7-1.9,1.3-3,1.7
	c-0.6,0.2-1.2,0.4-1.7,0.6C18.3,39.2,18.9,38.7,19.6,38.1z M19.5,37.8c0.2-0.2,0.4-0.5,0.5-0.7c0.3-0.4,0.7-0.9,1-1.3
	c0.3-0.4,0.5-0.9,0.8-1.3c0.6-0.9,1-1.7,1.5-2.6c0.4-0.7,0.8-1.5,1.2-2.2c0.1-0.1,0.1-0.3,0.2-0.5c0.1-0.1,0.1-0.3,0.2-0.4
	c0.3-0.4,0.5-0.7,0.8-1.1c0.1-0.1,0.1-0.2,0.1-0.3c0,0,0-0.1,0.1-0.2c0.3-0.4,0.6-0.9,1-1.3c0.4-0.5,0.8-1,1.3-1.5
	c0.5-0.6,1.1-1.1,1.6-1.7c0.2-0.2,0.4-0.3,0.6-0.5c0.4-0.2,0.7-0.5,1.1-0.7c-0.9,0.8-1.7,1.7-2.4,2.7c-0.3,0.5-0.6,1-0.9,1.6
	c-0.2,0.6-0.4,1.2-0.7,1.7c-0.6,1.1-1.2,2.1-1.8,3.1c-0.3,0.5-0.7,1.1-1,1.6c-0.3,0.5-0.8,0.9-1.1,1.3c-0.8,0.9-1.6,1.8-2.5,2.7
	C20.6,36.8,20.1,37.3,19.5,37.8z M51.3,13.4c-0.9,0.6-1.7,1.2-2.4,2c-0.7,0.9-1.4,1.8-2.2,2.5c-0.4,0.3-0.8,0.6-1.2,0.8
	c-0.4,0.2-0.8,0.4-1.2,0.4c0.1-0.2,0.2-0.4,0.3-0.5c0.3-0.6,0.7-1.1,1.1-1.6c0.3-0.4,0.7-0.9,1-1.3c0.3-0.4,0.7-0.6,1-0.9
	c0.2-0.2,0.5-0.4,0.7-0.5c0.5-0.3,1-0.5,1.5-0.7c0.5-0.2,1.1-0.4,1.6-0.5c0.2,0,0.4-0.1,0.6-0.1C51.9,13,51.6,13.2,51.3,13.4z
	 M53,12.7c0.1,0,0.1,0,0.2,0c0.4,0,0.7-0.1,1.1-0.1c0,0,0,0,0.1,0c0.4-0.1,0.8-0.1,1.2-0.2c0.2,0,0.4,0,0.5,0
	c-0.6,0.2-1.2,0.4-1.8,0.8c-1.4,0.8-2.7,1.9-3.8,3c-1.3,1.3-2.4,2.7-3.7,3.9c-0.6,0.5-1.2,1-2,1.4c-0.6,0.3-1.3,0.5-2,0.4
	c0,0,0,0,0-0.1c0.2-0.4,0.4-0.8,0.6-1.3c0.2-0.4,0.5-0.9,0.7-1.3c0.7,0.1,1.4-0.3,1.9-0.7c1-0.6,1.8-1.4,2.5-2.4
	c0.4-0.5,0.8-1,1.3-1.5c0.5-0.4,1-0.8,1.5-1.2C51.9,13.3,52.4,12.9,53,12.7z M46.8,14.3c-0.9,0.8-1.7,1.6-2.5,2.4
	c-0.8,0.8-1.6,1.7-2.3,2.6c-0.7,0.9-1.3,1.8-1.9,2.7c-1.3,1.9-2.9,3.4-4.7,4.7c-0.9,0.6-1.8,1.2-2.9,1.6c-0.8,0.3-1.7,0.5-2.6,0.6
	c0.7-0.8,1.4-1.7,2-2.5c1.6-2,3.2-3.9,4.9-5.7c1.7-1.7,3.6-3.4,5.7-4.6c1-0.6,2.1-1,3.1-1.5c0.3-0.1,0.6-0.3,0.9-0.4
	c0.2,0,0.3-0.1,0.5-0.1c0,0,0.1,0,0.1,0C47,14.1,46.9,14.2,46.8,14.3z M36.6,20.1c-1.4,1.4-2.8,3-4.1,4.5c0.1-0.2,0.1-0.4,0.1-0.7
	c0.1-0.6,0.2-1.3,0.4-1.9c0.3-0.7,0.8-1.2,1.2-1.7c0.2-0.3,0.4-0.5,0.6-0.8c0.1-0.1,0.1-0.2,0.1-0.3c0.3-0.2,0.6-0.4,1-0.6
	c0.8-0.5,1.7-0.9,2.5-1.3c0.3-0.2,0.6-0.4,1-0.5c0.6-0.3,1.3-0.6,1.9-0.8c0.1-0.1,0.3-0.1,0.4-0.2C39.9,17.1,38.2,18.6,36.6,20.1z
	 M22.5,37.9c0.8-0.6,1.5-1.2,2.2-1.9c0.9,0.1,1.8,0.1,2.6,0c1-0.1,2-0.2,2.9-0.6c0.9-0.3,1.7-0.8,2.5-1.4c1.9-1.5,3.5-3.5,5-5.5
	c0,0,0,0,0,0c-0.6,1-1.2,1.9-1.9,2.9c-1.4,2-2.8,3.9-4.4,5.6c-0.5,0.5-1,1-1.6,1.5c-0.2,0.1-0.5,0.1-0.7,0.2
	c-0.4,0.1-0.8,0.2-1.2,0.3c-0.7,0.1-1.5,0-2.2,0c-0.8-0.1-1.4-0.3-2.1-0.5c-0.4-0.2-0.9-0.3-1.3-0.3C22.4,38,22.4,37.9,22.5,37.9z
	 M36,29.9c-0.8,1-1.6,2-2.6,2.9c-0.8,0.8-1.6,1.5-2.6,2c-0.9,0.5-1.9,0.8-2.9,0.9c-1,0.1-2,0.3-3,0.1c0.1-0.1,0.1-0.1,0.2-0.2
	c0.8-1,1.5-2.1,2.2-3.2c0.7-1.1,1.5-2.2,2.3-3.2c0,0,0.1,0,0.1,0c1-0.1,1.9-0.3,2.8-0.6c0.9-0.3,1.8-0.8,2.7-1.3
	c1.7-1.1,3.3-2.4,4.6-4c0.7-0.9,1.2-1.8,1.9-2.7c0.6-0.9,1.4-1.8,2.1-2.6c0.5-0.5,1-1,1.5-1.5c-0.2,0.3-0.4,0.5-0.6,0.8
	c-0.8,1-1.6,2-2.3,3.1c-0.7,1.1-1.4,2.2-2.1,3.3c-0.7,1.1-1.3,2.2-2,3.3C37.6,27.8,36.8,28.9,36,29.9z M42.8,22
	c1,0.2,2.2-0.3,3.1-0.9c1.5-1,2.6-2.4,3.8-3.7c1.2-1.4,2.6-2.7,4.2-3.7c1.1-0.7,2.2-1.1,3.4-1.4c0.1,0.1,0.3,0,0.4,0
	c0.2,0,0.4,0,0.5-0.1c0.6,0,1.1-0.1,1.7-0.1c0.6,0,1.3-0.1,1.9,0c0,0,0,0,0,0c-0.8,0.2-1.6,0.4-2.3,0.7c-1,0.4-2,1-3,1.6
	c-2.1,1.3-3.7,3.1-5.4,4.9c-0.9,0.9-1.8,1.8-2.7,2.7c-0.9,0.9-1.7,1.8-2.6,2.6c-0.8,0.7-1.7,1.3-2.7,1.7c-0.5,0.2-1,0.4-1.5,0.5
	c-0.2,0-0.5,0-0.7,0c0,0,0,0-0.1,0c0-0.1,0-0.1,0.1-0.2c0.1-0.2,0.2-0.5,0.3-0.7c0.3-0.8,0.7-1.6,1-2.4C42.4,22.9,42.6,22.4,42.8,22
	z M40.9,26.9c1.6,0.3,3.4-0.7,4.7-1.6c0.9-0.7,1.8-1.5,2.6-2.4c0.9-0.9,1.8-1.8,2.7-2.7c1.8-1.8,3.4-3.7,5.5-5.2
	c0.9-0.7,1.9-1.3,3-1.8c1.1-0.5,2.3-0.8,3.5-1c-0.8,0.4-1.6,1-2.3,1.5c-1,0.7-2,1.5-3,2.3c-0.9,0.8-1.8,1.6-2.6,2.6
	c-0.8,0.9-1.4,1.9-2.1,2.9c-1.4,2-3.2,3.7-5.3,4.9c-1.1,0.6-2.2,0.8-3.4,1c-1.1,0.2-2.3,0.2-3.4-0.1c0-0.1,0.1-0.2,0.1-0.3
	C40.8,26.9,40.9,26.9,40.9,26.9z M41,27.4c1.1,0.2,2.1,0.2,3.2,0c1-0.2,2.1-0.3,3.1-0.7c1-0.5,2-1.2,2.9-2c0.9-0.8,1.8-1.6,2.5-2.6
	c0.7-1,1.4-2.1,2.2-3.1c0.8-1,1.6-1.8,2.5-2.6c1-0.9,2.1-1.7,3.1-2.4c0.9-0.6,1.8-1.4,2.8-1.8c0.2,0,0.3,0,0.5,0c0.1,0,0.2,0,0.3,0
	c0.1,0,0.2,0,0.3,0c-0.6,0.3-1.1,0.6-1.6,0.9c-2.1,1.3-3.8,3.2-5.1,5.3c-0.6,0.9-1.2,1.8-1.7,2.7c0,0-0.1,0-0.1,0
	c-1.5,2.7-3.7,5-6.5,6.4c-1.5,0.7-3,1.1-4.6,1.4c-0.8,0.2-1.7,0.3-2.6,0.2c-0.7-0.1-1.4-0.3-2.1-0.6c0-0.1,0.1-0.3,0.1-0.4
	c0.1-0.3,0.2-0.5,0.3-0.8C40.7,27.4,40.8,27.4,41,27.4z M42,29.2c0.8,0.1,1.6,0.1,2.4,0c0.8-0.1,1.6-0.3,2.4-0.5
	c0.8-0.2,1.6-0.5,2.4-0.8c2.2-1,4-2.5,5.4-4.3c-0.2,0.5-0.5,0.9-0.7,1.4c-0.6,1.2-1.3,2.4-2,3.5c-0.2,0.2-0.5,0.4-0.7,0.6
	c-0.5,0.4-1.1,0.9-1.6,1.3c-1.1,0.7-2.3,1.3-3.5,1.6c-1.2,0.4-2.4,0.6-3.7,0.6c-0.6,0-1.3,0-1.9-0.3c-0.5-0.2-1.1-0.6-1.5-0.9
	c0.2-0.5,0.4-0.9,0.6-1.4c0-0.1,0.1-0.2,0.1-0.3c0.1-0.3,0.2-0.7,0.4-1C40.7,28.9,41.3,29.1,42,29.2z M42,32.8
	c1.3,0,2.6-0.1,3.8-0.5c1.4-0.4,2.7-0.9,3.9-1.7c0.6-0.4,1.1-0.8,1.7-1.3c0.1-0.1,0.1-0.1,0.2-0.2c-0.5,0.7-1,1.4-1.6,2
	c-1.5,1.7-3.5,3-5.7,3.6c-1,0.3-2.2,0.5-3.2,0.5c-1.1,0-2.2-0.2-3.2-0.5c0.4-1,0.7-2.1,1.1-3.1c0,0,0,0,0,0
	C39.8,32.3,40.9,32.7,42,32.8z M54.2,29.2c-0.6,0.5-1.2,0.9-1.8,1.3c-0.6,0.4-1.3,0.8-2,1.1c-0.2,0.1-0.4,0.2-0.6,0.2
	c1.6-1.6,2.9-3.6,3.9-5.6c1.2-2.2,2.3-4.4,3.7-6.5c1.4-2.1,2.7-4.3,4.8-5.8c0.9-0.6,1.9-1.2,2.9-1.6c0.1,0,0.2,0,0.3,0.1
	c0,0,0,0,0,0c0.2,0,0.5,0,0.7,0c-0.5,0.3-1,0.6-1.5,1c-1.5,1.1-2.9,2.5-3.9,4.1c-1.1,1.7-2,3.6-2.8,5.4c-0.8,1.8-1.7,3.5-2.5,5.3
	C55.1,28.5,54.6,28.9,54.2,29.2z M57.7,26.4c0-0.5,0.1-1.1,0.1-1.6c0-0.1,0-0.3,0-0.4c0.5-1,0.9-2,1.4-2.9c1.1-2.3,2.3-4.4,4.1-6.2
	c0.8-0.8,1.7-1.5,2.6-2.1c0.3-0.2,0.7-0.4,1-0.6c0.1,0,0.2,0,0.4,0c-1.6,1.5-3.2,3-4.7,4.6c-1.4,1.6-2.9,3.3-3.5,5.4
	c-0.6,2-0.7,4.1-0.7,6.1c0,1,0,2.1,0,3.1c0,0.5,0,1-0.2,1.5c-0.2,0.5-0.4,0.9-0.8,1.3c0,0,0,0.1,0.1,0.1c-0.4,0.6-0.8,1.1-1.3,1.7
	c-0.5,0.6-1.1,1.1-1.6,1.7c-0.4,0.4-0.7,0.8-1.1,1.1c-0.1,0.1-0.1,0.1-0.2,0.2c0.9-1.2,1.7-2.5,2.5-3.7c0.5-0.9,0.9-1.7,1.2-2.7
	c0.3-1,0.4-2.1,0.5-3.1C57.5,28.5,57.6,27.5,57.7,26.4z M71.5,14c-0.6,0.2-1.1,0.5-1.6,0.8c-0.3,0.2-0.6,0.3-0.9,0.4
	c-0.3,0.1-0.5,0.3-0.8,0.2c0-0.8,0.3-1.5,0.8-2.1c0,0,0.1-0.1,0.1-0.1c0.1-0.1,0.3-0.1,0.5-0.1c0.2,0,0.4-0.1,0.6-0.1
	c0.1,0,0.2,0,0.3,0c0.6,0.1,1.3,0.3,1.9,0.4c0.2,0,0.4,0.1,0.6,0.2C72.5,13.7,71.9,13.8,71.5,14z M73.4,13.8
	c0.5,0.1,0.9,0.3,1.4,0.4c0,0,0,0,0.1,0c-0.4,0-0.7,0-1.1,0c-1.1,0.1-2.2,0.4-3.1,1.2c-0.5,0.4-1.1,0.6-1.5,1.1
	c-0.2,0.2-0.4,0.5-0.7,0.6c-0.1-0.5-0.2-0.9-0.2-1.4c0-0.1,0-0.1,0-0.2c0.4,0,0.7-0.1,1.1-0.3c0.7-0.3,1.3-0.7,1.9-1
	C71.9,14,72.6,13.8,73.4,13.8z M68.3,12.7c-0.3,0.2-0.7,0.4-1,0.7c0,0,0,0,0,0c-0.5,0.3-0.9,0.7-1.3,1.1c-0.6,0.7-1.2,1.4-1.6,2.2
	c-0.4,0.9-0.8,1.8-1.2,2.7c-0.2,0.4-0.3,0.9-0.4,1.3c-0.2,0.6-0.4,1.1-0.5,1.7c-0.1,0.2-0.1,0.5-0.2,0.7c0,0.1-0.1,0.1-0.1,0.2
	c-0.1,0.3-0.2,0.7-0.3,1c-0.1,0.4-0.2,0.8-0.3,1.3c-0.2,0.8-0.5,1.5-0.7,2.3c-0.3,1.1-0.7,2.1-1.2,3c-0.3,0.5-0.5,1-0.8,1.5
	c0-0.2,0-0.3,0-0.5c0-1,0-2.1,0-3.1c0-2,0.1-4.2,0.6-6.1c0.6-2.2,2-4,3.5-5.6c1.5-1.6,3.1-3.1,4.7-4.6C67.8,12.6,68,12.6,68.3,12.7
	C68.2,12.6,68.3,12.7,68.3,12.7C68.3,12.7,68.3,12.7,68.3,12.7z M72.5,32.2c0,0.3,0,0.5,0.1,0.8c-0.1,0.1-0.2,0.2-0.2,0.3
	c-0.2,0.2-0.4,0.4-0.6,0.6c-0.4,0.4-0.9,0.7-1.3,1c-0.9,0.5-1.9,0.9-2.9,1.2c-1.1,0.3-2.3,0.6-3.5,0.5c-0.1,0-0.3,0-0.4,0
	c0.5-0.4,1-0.8,1.4-1.3c0.2-0.2,0.4-0.4,0.7-0.6c0.1,0,0.2-0.1,0.3-0.1c1-0.5,2.1-1,3-1.6c0.9-0.5,1.7-1.2,2.5-2
	c0.4-0.4,0.7-0.7,1-1.1c0,0.1,0,0.1,0,0.2C72.4,30.8,72.4,31.5,72.5,32.2z M64.5,22.1c0.2,1.1,0.5,2.2,0.8,3.3
	c0.3,1.1,0.6,2.1,0.6,3.3c0,1.1-0.2,2.2-0.5,3.2c-0.1,0.4-0.3,0.7-0.4,1c-0.4,0.4-0.8,0.8-1.2,1.1c-0.2,0.2-0.5,0.4-0.7,0.7
	c0.2-0.4,0.3-0.8,0.5-1.2c0.4-1.3,0.2-2.5,0-3.8c-0.3-1.4-0.6-2.8-0.8-4.3c-0.1-0.7-0.1-1.4-0.1-2.1c0-0.2,0-0.4,0.1-0.6
	c0.2-0.6,0.3-1.1,0.5-1.7c0.2-0.5,0.3-0.9,0.5-1.4c0.2-0.5,0.4-1,0.7-1.6c0.2-0.4,0.4-0.9,0.6-1.3c-0.2,0.7-0.3,1.4-0.4,2.1
	C64.4,20,64.3,21,64.5,22.1z M63.2,29.3c0.2,1.3,0.6,2.6,0.2,3.9c-0.2,0.6-0.5,1.3-0.8,1.9c-0.3,0.2-0.6,0.5-0.9,0.7
	c-0.2,0.1-0.3,0.3-0.5,0.4c0.2-0.3,0.3-0.7,0.4-1.1c0.4-1.4,0.5-2.7,0.3-4.1c-0.2-1.3-0.4-2.5-0.4-3.7c0.2-0.7,0.4-1.4,0.6-2
	c0.1-0.3,0.2-0.6,0.2-0.9c0,0.4,0,0.8,0.1,1.1C62.6,26.8,62.9,28.1,63.2,29.3z M61.5,30.5c0.2,1.4,0.3,2.8-0.1,4.1
	c-0.2,0.8-0.5,1.6-0.9,2.2c-0.3,0.2-0.5,0.4-0.8,0.6c-0.1,0.1-0.2,0.1-0.3,0.2c-0.1,0-0.1,0.1-0.2,0.1c-0.1,0-0.1,0.1,0,0.1
	c-0.2,0.2-0.5,0.3-0.7,0.5c-0.5,0.4-1.1,0.7-1.6,1.1c-0.1,0.1-0.2,0.1-0.3,0.2c0.3-0.5,0.4-1.1,0.6-1.6c0.1-0.3,0.3-0.7,0.4-1
	c0.1-0.3,0.2-0.6,0.2-1c0.1-0.5,0.2-0.9,0.4-1.3c0.5-0.8,0.9-1.6,1.4-2.4c0.2-0.4,0.4-0.7,0.6-1.2c0.1-0.4,0.4-0.7,0.5-1.1
	c0.2-0.6,0.4-1.1,0.6-1.7C61.3,29,61.4,29.7,61.5,30.5z M72.7,35.4c-0.3,0.5-0.7,1-1,1.5c-0.3,0.4-0.6,0.8-1,1.1
	c-0.5,0.5-1.1,1-1.8,1.4c-0.4,0.3-0.8,0.5-1.2,0.7c-0.5,0.3-1.2,0.5-1.8,0.6c-0.8,0.2-1.7,0.3-2.5,0.5c-0.7,0.1-1.3,0-2,0
	c-0.4,0-0.8-0.1-1.2-0.1c-0.4-0.1-0.8-0.1-1.1-0.1c-0.5-0.1-1-0.2-1.5-0.4c-0.1,0-0.1-0.1-0.2-0.1c0.1-0.1,0.1-0.1,0.2-0.1
	c0.3-0.2,0.7-0.4,1.1-0.6c0.3-0.2,0.6-0.3,0.8-0.5c0.1-0.1,0.1-0.1,0.2-0.1c0.1,0,0.3-0.1,0.3-0.2c0,0,0.1-0.1,0.1-0.1c0,0,0,0,0,0
	c0.6,0,1.2,0,1.8,0.2c0.6,0.2,1.1,0.3,1.7,0.3c1.2,0,2.3-0.3,3.4-0.7c1.2-0.4,2.3-0.8,3.3-1.5c0.5-0.4,1-0.8,1.4-1.3
	c0.4-0.4,0.7-0.7,1-1.1c0,0.1,0,0.1,0,0.2C72.8,35.1,72.8,35.2,72.7,35.4z M72.9,36.2C72.9,36.2,72.9,36.2,72.9,36.2
	c0.1,0.1,0.1,0.3,0.2,0.4c0,0.3,0.1,0.6,0.1,1c0.1,0.6,0.1,1.2,0.2,1.9c0,0.1,0,0.2,0,0.3c-1.2,1.3-2.5,2.4-4.1,3.1
	c-1.5,0.6-3.3,1-4.9,1c-1.8,0-3.4-0.5-5-1.3c-0.8-0.4-1.6-0.8-2.4-1.2c0.4,0.1,0.9,0.2,1.3,0.3c0.5,0.1,1,0.3,1.5,0.3
	c0.2,0,0.5,0,0.7,0c0.4,0,0.9,0.1,1.3,0.2c0.3,0,0.7,0.1,1,0c0.8-0.1,1.6-0.2,2.4-0.4c0.3-0.1,0.5-0.2,0.8-0.2c1-0.2,2-0.6,2.9-1.3
	c0.5-0.4,1.1-0.7,1.6-1.1c0.1-0.1,0.2-0.2,0.3-0.3c0.4-0.4,0.8-0.9,1.2-1.4C72.3,37,72.6,36.6,72.9,36.2z M71.5,35.6
	c-0.5,0.5-0.9,0.9-1.5,1.3c-1,0.7-2.1,1.2-3.3,1.5c-1.2,0.4-2.3,0.7-3.5,0.7c-0.7,0-1.3-0.3-2-0.4c-0.3-0.1-0.6-0.1-0.9-0.1
	c0.1,0,0.2-0.1,0.2-0.1c0.1-0.1,0.2-0.1,0.3-0.2c0.3-0.2,0.7-0.4,1-0.6c0.4-0.3,0.8-0.6,1.2-0.9c0.1,0,0.1-0.1,0.2-0.1c0,0,0,0,0,0
	c0.5,0,1,0.1,1.5,0c1-0.1,2-0.3,3-0.6c1-0.3,2-0.7,2.8-1.2c0.4-0.3,0.8-0.6,1.2-0.9c0.2-0.2,0.4-0.4,0.6-0.6c0,0,0.1-0.1,0.1-0.1
	c0,0.3,0.1,0.6,0.1,1C72.3,34.8,71.9,35.2,71.5,35.6z M66.5,29.3c0.1-2.2-0.8-4.2-1.3-6.3c-0.2-1.1-0.3-2.2-0.2-3.4
	c0.1-0.7,0.2-1.6,0.4-2.3c0,0.5,0.1,1,0.1,1.5c0.2,1.3,0.6,2.6,1.1,3.8c0.6,1.3,1.2,2.5,1.8,3.7c0.3,0.6,0.6,1.3,0.6,1.9
	c0,0-0.1,0.1-0.1,0.1c0,0.1-0.1,0.1-0.1,0.2c-0.2,0.3-0.4,0.5-0.6,0.8c-0.4,0.4-0.7,0.9-1.1,1.3c-0.4,0.5-0.8,1-1.2,1.4
	C66.2,31.1,66.4,30.2,66.5,29.3z M54.4,38.9c0.4-0.4,0.8-0.8,1.2-1.2c0.4-0.4,0.8-0.9,1.2-1.3c0.2-0.3,0.5-0.5,0.7-0.8c0,0,0,0,0,0
	c-0.1,0.6-0.3,1.2-0.5,1.9c-0.3,0.7-0.4,1.7-0.9,2.3c-0.1,0.1-0.2,0.1-0.3,0.2c-0.4,0.2-0.7,0.3-1.1,0.5c-0.5,0.2-0.9,0.4-1.4,0.5
	c-0.5,0.2-1.1,0.4-1.6,0.5c-0.1,0-0.2,0-0.4,0c0,0,0-0.1,0-0.1c0,0,0.1-0.1,0.1-0.1c0.3-0.2,0.6-0.4,0.9-0.6
	c0.3-0.2,0.5-0.5,0.9-0.6c0,0,0,0,0,0C53.6,39.7,54,39.3,54.4,38.9z M70.9,44.8c-0.4,0.1-0.9,0.3-1.3,0.4c-1.9,0.5-3.8,0.7-5.7,0.4
	c-1-0.1-2.1-0.3-3-0.7c-0.9-0.4-1.7-1-2.5-1.6c-1.1-0.8-2.3-1.4-3.6-1.7c0.1,0,0.1,0,0.2,0c0,0,0.1,0,0.1,0c0.2-0.2,0.5-0.2,0.7-0.3
	c0.1,0,0.2-0.1,0.3-0.1c0.1,0,0.2,0.1,0.3,0.1c0.5,0.2,0.9,0.5,1.4,0.7c0.8,0.4,1.6,0.8,2.4,1.1c1.5,0.6,3,0.9,4.6,0.8
	c1.6-0.1,3.3-0.4,4.8-1.1c1.5-0.6,2.6-1.6,3.7-2.8c0,0.5,0.1,1,0.1,1.4c-0.3,1-0.6,1.9-1.1,2.8c0,0,0,0-0.1,0
	C71.8,44.5,71.4,44.7,70.9,44.8z M71.9,27.5c0.3-0.2,0.6-0.4,0.9-0.6c0.1-0.1,0.2-0.1,0.3-0.2c-0.2,0.8-0.3,1.6-0.5,2.4c0,0,0,0,0,0
	c-0.2,0.2-0.4,0.4-0.6,0.6c-0.4,0.4-0.7,0.8-1.1,1.1c-0.8,0.8-1.7,1.5-2.6,2c-0.6,0.4-1.3,0.7-1.9,1c0.4-0.4,0.7-0.8,1.1-1.3
	c0.9-1.1,1.7-2.4,2.4-3.6c0.1-0.1,0.1-0.2,0.2-0.3C70.6,28.4,71.2,28,71.9,27.5z M69.8,26.7c-0.1,0.3-0.3,0.7-0.4,1
	c-0.1-0.4-0.2-0.8-0.4-1.1c-0.6-1.2-1.2-2.5-1.8-3.7c-0.6-1.2-1-2.5-1.2-3.8c-0.2-1-0.4-2.1,0-3.1c0,0,0,0,0-0.1c0,0.1,0,0.3,0,0.4
	c0,0.2,0,0.5,0.1,0.7c0.1,0.6,0.3,1.1,0.5,1.7c0.4,1.1,0.9,2.1,1.5,3.1c0.6,1.1,1.1,2.2,1.6,3.3c0.1,0.2,0.1,0.3,0.2,0.5
	C69.9,26,69.9,26.4,69.8,26.7z M68.6,22.2c-0.6-1.1-1.2-2.1-1.6-3.2c-0.2-0.6-0.4-1.1-0.6-1.7c-0.1-0.4-0.1-0.7-0.1-1.1
	c0-0.2,0.1-0.5,0.1-0.7c0,0,0-0.1-0.1-0.1c0.2-0.3,0.4-0.6,0.7-0.9c0.1,0,0.1-0.1,0.2-0.1c-0.1,0.3-0.1,0.5-0.1,0.8
	c0,1.4,0.5,2.6,1.1,3.8c0.1,0.2,0.2,0.4,0.3,0.6c-0.1,0,0,0.1,0.1,0.1c0,0,0,0.1,0.1,0.1c0.2,0.5,0.5,0.9,0.6,1.4
	c0.1,0.4,0.2,0.8,0.3,1.2c0.2,0.7,0.2,1.4,0.3,2.1C69.4,23.8,69,22.9,68.6,22.2z M76.3,14.8c0.1,0.1,0.3,0.1,0.4,0.2
	c-0.6-0.1-1.2,0-1.9,0.1c-1.2,0.3-2.4,0.9-3.4,1.6c-0.5,0.3-1,0.7-1.4,1.2c-0.3,0.4-0.6,0.8-1,1.1c-0.2-0.5-0.4-0.9-0.6-1.4
	c0.6-0.2,1.1-0.9,1.7-1.2c1-0.7,1.9-1.5,3.2-1.7c0.8-0.1,1.5-0.1,2.3,0C75.9,14.7,76.1,14.7,76.3,14.8z M74,11.4
	c0.5,0.4,1,1,1.6,1.3c0,0,0.1,0.1,0.1,0.2c0,0,0,0,0,0.1c-0.2-0.1-0.4-0.1-0.6-0.2c-0.4-0.4-0.9-0.7-1.3-1.1
	c-0.4-0.4-0.8-0.8-1.1-1.3c0,0,0,0,0,0C73.1,10.6,73.5,11,74,11.4z M70.9,8.9c0.4,0.3,0.7,0.6,1.1,0.9c0.1,0.2,0.2,0.4,0.4,0.6
	c0.3,0.5,0.7,0.9,1.1,1.3c0.3,0.3,0.7,0.6,1,0.9c-0.2-0.1-0.3-0.1-0.5-0.2c-0.1,0-0.3-0.1-0.4-0.1c-0.5-0.4-1-0.8-1.5-1.3
	c-0.8-0.8-1.5-1.6-2-2.6C70.4,8.5,70.7,8.7,70.9,8.9z M69.6,8c0.5,1,1.1,1.9,1.9,2.7c0.5,0.5,1,0.9,1.5,1.3c0,0,0,0,0.1,0.1
	c-0.2-0.1-0.4-0.1-0.6-0.2c-0.4-0.1-0.9-0.3-1.3-0.4c-0.2-0.1-0.4-0.3-0.6-0.4c-0.8-0.7-1.4-1.5-1.9-2.4c-0.4-0.7-0.7-1.4-1.1-2
	C68.3,7.1,68.9,7.6,69.6,8z M65.1,5.4C65.5,5.6,66,5.8,66.4,6c0.3,0.2,0.5,0.4,0.7,0.7c0.5,0.8,0.9,1.8,1.5,2.6
	c0.5,0.8,1.1,1.4,1.8,2c-0.7-0.1-1.5-0.2-2.3-0.2c-0.4-0.3-0.8-0.6-1.1-1c-0.4-0.5-0.7-0.9-0.9-1.5c-0.2-0.5-0.4-1.1-0.7-1.6
	c-0.6-0.9-1.3-1.7-2-2.4C63.9,4.9,64.5,5.1,65.1,5.4z M59.7,3.6c0.7,0.2,1.5,0.3,2.2,0.6c0.2,0.1,0.3,0.1,0.5,0.2c0,0,0,0,0,0
	c0.4,0.3,0.7,0.7,1.1,1.1c0.8,0.9,1.4,1.8,1.9,2.9c0.2,0.5,0.4,1,0.7,1.4c0.3,0.4,0.7,0.8,1.1,1.1c0,0,0,0,0,0
	c-0.4-0.3-0.8-0.5-1.3-0.8c-0.3-0.2-0.6-0.5-1-0.7c-0.3-0.3-0.6-0.7-0.9-1.1c-0.7-1-1.5-1.9-2.4-2.8c-0.8-0.8-1.8-1.5-2.8-2.1
	C59.2,3.5,59.5,3.6,59.7,3.6z M52.9,2.8c0.8,0,1.7,0.1,2.5,0.1C56.3,3,57.2,3.1,58,3.3c0.1,0,0.2,0,0.3,0c0.1,0.1,0.3,0.1,0.4,0.2
	c1.1,0.7,2.2,1.5,3.1,2.4c0.4,0.5,0.9,0.9,1.3,1.4c0.4,0.5,0.7,0.9,1.1,1.4c0.1,0.1,0.1,0.1,0.2,0.2c-0.8-0.5-1.7-1.1-2.5-1.6
	c-0.6-0.4-1.1-0.7-1.7-1c-0.3-0.1-0.6-0.3-0.8-0.5c-0.8-0.5-1.7-0.9-2.6-1.3c-0.6-0.3-1.2-0.5-1.8-0.8c-0.6-0.2-1.1-0.4-1.7-0.7
	C53,3,52.9,2.9,52.7,2.9C52.8,2.8,52.8,2.8,52.9,2.8z M50,3c0.3,0.1,0.6,0.1,0.9,0.2c0.8,0.1,1.6,0.4,2.4,0.7
	c1.1,0.4,2.2,0.9,3.4,1.4c0.6,0.2,1.1,0.5,1.6,0.8c0.5,0.2,0.9,0.5,1.4,0.8c0.8,0.4,1.6,0.9,2.3,1.4c0.6,0.4,1.1,0.8,1.6,1.1
	c0.7,0.4,1.3,0.9,1.9,1.3c0.1,0.1,0.2,0.1,0.2,0.2c0,0,0,0.1,0,0.1c-0.1,0-0.1,0-0.2,0c-0.3,0-0.6,0-0.9,0c-0.1,0-0.1,0-0.2,0
	c-0.2,0-0.3-0.1-0.5-0.2c-0.8-0.3-1.5-0.7-2.3-1c-1.6-0.8-2.9-1.9-4.2-3c-0.6-0.5-1.3-1.1-2-1.5c-0.7-0.4-1.5-0.7-2.2-1
	c-0.8-0.4-1.6-0.7-2.5-1c-0.3-0.1-0.5-0.2-0.8-0.3C49.9,3,50,3,50,3z M49.3,3c0.4,0.1,0.7,0.2,1,0.3c0.9,0.3,1.7,0.6,2.5,1
	c0.9,0.4,1.8,0.7,2.5,1.2c0.8,0.5,1.5,1.1,2.2,1.7c1.2,1.1,2.5,2.1,4,2.8c0.7,0.4,1.5,0.7,2.3,1c0,0,0.1,0,0.1,0
	c-0.9,0-1.8,0-2.7,0.1c-0.1,0-0.3,0-0.4,0c-0.4-0.2-0.8-0.4-1.2-0.6c-0.8-0.5-1.6-1-2.4-1.5c-0.8-0.5-1.5-1.1-2.2-1.8
	c-0.6-0.6-1.2-1.2-1.9-1.7c-1.3-0.9-2.8-2-4.3-2.5c0,0-0.1,0-0.1,0C49,3,49.2,3,49.3,3z M49.9,3.8c0.7,0.4,1.4,0.9,2.2,1.4
	c0.4,0.2,0.7,0.5,1.1,0.7c0.4,0.3,0.7,0.6,1,0.9c1.3,1.2,2.7,2.2,4.2,3.2c0.6,0.4,1.3,0.8,1.9,1.1c-0.6,0-1.2,0.1-1.8,0.1
	c-0.5,0-1,0.1-1.4,0.1c0,0-0.1,0-0.1,0c-0.4-0.2-0.7-0.4-1.1-0.6c-0.6-0.5-1.2-1-1.6-1.6c-0.4-0.6-0.8-1.2-1.2-1.8
	c-0.4-0.6-0.9-1.2-1.4-1.7c-0.9-1-2.1-1.8-3.3-2.5c0,0-0.1,0-0.1,0C48.9,3.3,49.4,3.5,49.9,3.8z M47.9,3.2c0.7,0.3,1.3,0.7,1.9,1.1
	c0.7,0.5,1.2,1,1.8,1.6c0.5,0.6,1,1.2,1.5,1.9c0.4,0.6,0.7,1.2,1.1,1.7c0.4,0.5,1,1,1.5,1.4c0.3,0.2,0.6,0.4,0.9,0.6
	c-0.1,0-0.1,0-0.2,0c-0.6-0.1-1.2-0.1-1.7-0.3c-0.7-0.2-1.3-0.5-1.9-0.9c-0.5-0.4-1-0.9-1.4-1.4c-0.4-0.6-0.6-1.2-0.9-1.8
	C50,6,49.1,5.3,48,4.8c-0.6-0.3-1.2-0.5-1.8-0.7C46,4,45.7,3.9,45.4,3.8C46.2,3.5,47.1,3.3,47.9,3.2z M44.5,4.2
	c0.2-0.1,0.5-0.2,0.7-0.3C45.4,4,45.7,4.1,46,4.1c0.8,0.3,1.5,0.5,2.2,0.9c0.7,0.4,1.2,0.8,1.7,1.5c0.3,0.5,0.5,1.1,0.8,1.7
	c0.6,1.1,1.5,2,2.6,2.6c0.8,0.4,1.6,0.6,2.4,0.7c-0.7,0.1-1.4,0.1-2,0.2c-0.5-0.1-0.9-0.1-1.4-0.4c-0.6-0.3-1.2-0.8-1.8-1.2
	c-0.6-0.4-1.2-0.9-1.8-1.4c-0.5-0.5-0.9-1-1.4-1.6c-0.9-1-1.9-2.1-3.1-2.6c-0.1,0-0.2-0.1-0.3-0.1C44.1,4.3,44.3,4.2,44.5,4.2z
	 M41.5,5.3c0.7-0.3,1.4-0.5,2-0.8c0.7,0.2,1.5,0.9,1.9,1.3c1,0.9,1.8,2,2.8,2.9c0.9,0.9,2,1.7,3.1,2.4c0.5,0.3,0.9,0.5,1.5,0.7
	c-0.4,0.1-0.9,0.2-1.3,0.2c-0.1,0-0.1,0-0.2,0c-0.1,0-0.2,0-0.2,0c-0.1,0-0.5,0-0.6,0c-0.2,0-0.4,0-0.6,0c-0.3,0-0.7-0.1-1-0.2
	c-0.8-0.2-1.4-0.5-2.1-1c-0.6-0.4-1.2-0.9-1.6-1.5c-0.4-0.5-0.7-1.1-1.1-1.5c-0.5-0.5-1-0.8-1.6-1.2c-0.5-0.3-0.9-0.6-1.5-0.7
	c-0.2-0.1-0.4-0.1-0.5,0C40.8,5.7,41.2,5.5,41.5,5.3z M37.1,7.8c0.7-0.5,1.4-0.9,2.1-1.3c0.2-0.1,0.5-0.2,0.7-0.4c0.1,0,0.1,0,0.2,0
	c0.8-0.2,1.5,0.1,2.1,0.6c0.6,0.4,1.3,0.8,1.7,1.3c0.4,0.5,0.7,1.1,1.1,1.6c0.8,1,2,1.8,3.2,2.2c0.5,0.2,1.1,0.3,1.6,0.3
	c0.2,0,0.4,0,0.6,0c-0.1,0-0.2,0-0.3,0c-0.5,0.1-1,0.2-1.5,0.4c-0.7,0.1-1.4,0.2-2.1-0.1c-0.6-0.3-1.1-0.7-1.7-1.1
	c-0.6-0.4-1.1-0.8-1.6-1.4c-0.4-0.5-0.8-0.9-1.4-1.3C40.9,8.2,39.7,8,38.6,8c-0.6,0-1.2,0-1.7,0.1c-0.1,0-0.2,0-0.3,0.1
	C36.7,8,36.9,7.9,37.1,7.8z M36.1,8.4C36.1,8.4,36.1,8.4,36.1,8.4C36.1,8.4,36.2,8.4,36.1,8.4c0.4-0.1,0.7-0.2,1-0.3
	c0.7-0.1,1.3-0.1,2,0c0.7,0.1,1.4,0.2,2,0.4c0.7,0.3,1.3,0.7,1.8,1.3c0.4,0.5,0.8,0.9,1.4,1.3c0.5,0.4,1,0.8,1.6,1.1
	c0.6,0.4,1.2,0.5,1.9,0.5c-0.1,0-0.2,0-0.3,0c-0.3,0-0.7-0.1-1-0.2c-0.5-0.2-1.1-0.5-1.6-0.7c-0.3-0.1-0.6-0.2-0.8-0.4
	c-0.8-0.5-1.6-1-2.4-1.5c-0.2-0.2-0.5-0.3-0.8-0.4c-0.6-0.3-1.2-0.4-1.8-0.5c-0.7-0.1-1.4-0.2-2.2-0.3c-0.2,0-0.5,0-0.7,0
	c-0.2,0-0.3,0-0.5-0.1C35.9,8.6,36,8.5,36.1,8.4z M33.4,10.4c0.3-0.3,0.7-0.4,1-0.6c0.3-0.1,0.6-0.2,0.9-0.2c0.2,0,0.5-0.1,0.7-0.1
	c0.7-0.1,1.4,0.1,2,0.2c0.5,0.1,0.9,0.2,1.4,0.3c0.3,0.1,0.7,0.2,1,0.3c0.8,0.3,1.5,0.8,2.2,1.3c0.4,0.3,0.9,0.6,1.4,0.8
	c0.6,0.3,1.3,0.6,1.9,0.8c0.1,0,0.1,0.1,0.1,0.1c-0.1,0-0.1,0.1-0.2,0.1c0,0-0.1,0-0.1,0c0,0,0,0,0,0c-0.1,0-0.1,0-0.2,0.1
	c-0.3,0-0.6-0.1-0.9-0.1c-0.6-0.1-1.2-0.3-1.8-0.5c-1.3-0.4-2.5-1-3.7-1.5c-1.1-0.5-2.2-0.7-3.4-0.8c-0.6-0.1-1.2-0.1-1.8-0.1
	c-0.2,0-0.5,0-0.7,0c0,0-0.1,0-0.1,0C33.2,10.5,33.3,10.5,33.4,10.4z M32.9,10.8c0.1,0,0.3,0,0.4-0.1c0.6-0.1,1.3-0.1,1.9,0
	c1.5,0.1,2.8,0.4,4.2,1c0.7,0.3,1.3,0.6,2,0.9c0.6,0.2,1.2,0.4,1.8,0.6c0.7,0.2,1.4,0.4,2.1,0.5c-0.2,0.1-0.4,0.1-0.7,0.2
	c-0.2,0-0.4,0-0.6,0.1c-0.7,0.1-1.4,0.2-2.1,0.3c-1.4,0.1-2.9,0.1-4.3-0.3c-0.8-0.2-1.5-0.4-2.2-0.8c-0.6-0.4-1.2-0.8-1.9-1.1
	c-0.4-0.2-0.8-0.5-1.2-0.6c0,0-0.1,0-0.1,0C32.5,11.2,32.7,11,32.9,10.8z M29.9,13.6c0.5-0.4,0.9-0.9,1.4-1.3
	c0.2-0.2,0.5-0.5,0.7-0.7c0,0,0,0,0,0c0.1,0.1,0.2,0.1,0.3,0.2c0.2,0.1,0.3,0.2,0.5,0.3c0.7,0.3,1.3,0.8,2,1.2
	c1.2,0.7,2.5,1.1,3.9,1.3c1.4,0.2,2.8,0.2,4.2,0c0.1,0,0.2,0,0.3-0.1c-0.5,0.2-1.1,0.4-1.6,0.6c-0.6,0.2-1.1,0.5-1.7,0.7
	c-0.2,0.1-0.5,0.2-0.7,0.3c-1.5,0.3-3,0.3-4.4,0.2c-1.1-0.1-2.2-0.4-3.3-0.9c-0.8-0.4-1.6-0.7-2.4-0.9
	C29.4,14.1,29.7,13.9,29.9,13.6z M28.4,15.1c0.2-0.1,0.3-0.3,0.5-0.4c0,0,0,0,0,0c1.1,0.2,2.1,0.8,3.1,1.2c1,0.4,2.1,0.6,3.1,0.6
	c1,0.1,2.1,0.1,3.1,0c-0.1,0.1-0.3,0.1-0.4,0.2c-0.5,0.2-1,0.5-1.5,0.8c-0.3,0.1-0.5,0.3-0.7,0.4C35,18,34.5,18.1,34,18.2
	c-0.8,0.1-1.6,0-2.4-0.1c-0.8-0.1-1.9-0.3-2.5-1c-0.5-0.5-0.8-1.2-0.7-1.9C28.4,15.2,28.4,15.1,28.4,15.1
	C28.4,15.1,28.4,15.1,28.4,15.1z M28.1,15.4c0,0.7,0.4,1.4,1,1.9c0.6,0.5,1.5,0.7,2.3,0.9c1,0.2,1.8,0.3,2.8,0.2
	c0.3,0,0.6-0.1,1-0.2c-0.3,0.2-0.5,0.3-0.8,0.5c-0.7,0.4-1.4,0.9-2.1,1.3c-0.5,0-1.1,0-1.6-0.1c-1-0.1-2-0.6-2.7-1.3
	c-0.5-0.5-1-1.2-1-2c0,0,0,0,0,0C27.3,16.1,27.7,15.8,28.1,15.4z M26.5,17c0-0.1,0.1-0.1,0.1-0.2c0.1,0.8,0.6,1.4,1.2,1.9
	c0.7,0.6,1.6,1.1,2.6,1.2c0.5,0.1,1,0.1,1.5,0.1c-0.2,0.1-0.4,0.2-0.6,0.4c0,0-0.1,0.1-0.1,0.1c-0.5,0.2-1,0.2-1.5,0.3
	c-0.8,0.1-1.5,0-2.2-0.5c-0.5-0.4-1-0.8-1.2-1.5C26.1,18.3,26.2,17.6,26.5,17C26.5,17,26.5,17,26.5,17z M22.4,21.6
	c0.3-0.3,0.6-0.6,0.8-0.9c0.2-0.2,0.4-0.4,0.5-0.7c0.1-0.1,1.1-1.3,1.1-1.4c0-0.1,0.1-0.1,0.1-0.2c0.2-0.2,0.4-0.4,0.7-0.7
	c-0.1,0.5,0,1.1,0.2,1.5c0.4,0.6,1,1.2,1.6,1.5c0.7,0.3,1.4,0.4,2.1,0.3c-0.3,0.1-0.6,0.1-0.9,0.2c-0.6,0.1-1.1,0.2-1.7,0.2
	c-0.6,0-1.3,0-1.9,0c-0.5,0-0.9,0-1.4,0.1c-0.3,0-0.6,0.1-1,0.1c-0.1,0-0.3,0-0.5,0C22.3,21.7,22.4,21.6,22.4,21.6z M21,23
	c0.1-0.1,0.2-0.1,0.2-0.2c0.6-0.2,1.2-0.4,1.9-0.5c0.3,0,0.5-0.1,0.8-0.1c0.3,0,0.6,0,0.9,0c0.3-0.1,0.7,0,1,0c0.1,0,0.1,0,0.2,0
	c0.8-0.1,1.6-0.2,2.4-0.2c0.1,0,0.2,0,0.4,0c-0.1,0.1-0.1,0.1-0.1,0.2c-0.4,0.3-0.8,0.5-1.1,0.8c-0.1,0-0.1,0.1-0.2,0.1
	c-0.2,0.1-0.4,0.1-0.6,0.2c-0.4,0.1-0.8,0.3-1.3,0.4c-0.9,0.3-1.8,0.3-2.7,0.4c-0.9,0.1-1.8,0.2-2.7,0.3c-0.1,0-0.3,0-0.4,0.1
	C20.1,23.9,20.8,23.2,21,23z M19.1,24.9C19.1,24.9,19.1,24.9,19.1,24.9c0.6-0.3,1.2-0.3,1.9-0.4c0.9-0.1,1.8-0.2,2.7-0.2
	c0.9-0.1,1.7-0.3,2.6-0.5c0.1,0,0.1,0,0.2-0.1c-0.2,0.1-0.4,0.3-0.6,0.4c-0.5,0.3-1,0.7-1.5,1c-0.1,0.1-0.2,0.1-0.3,0.2
	c-0.5,0.3-1,0.6-1.4,0.9c-0.3,0.1-0.5,0.1-0.8,0.1c-0.7,0.1-1.4,0.1-2.1-0.1c-0.5-0.2-1-0.4-1.5-0.6C18.5,25.4,18.9,25,19.1,24.9z
	 M16.1,27.6c0.4-0.3,0.7-0.7,1.1-1c0.2-0.1,0.3-0.3,0.5-0.4c0,0,0.2-0.1,0.3-0.3c0,0,0,0,0.1,0c0.3,0.2,0.7,0.3,1.1,0.4
	c0.5,0.2,1.1,0.4,1.7,0.4c0.5,0,1-0.1,1.4-0.1c-0.1,0.1-0.2,0.2-0.4,0.3c-0.9,0.6-1.7,1.1-2.6,1.7c-0.4,0.3-0.9,0.6-1.4,0.8
	c-0.3-0.1-0.6-0.3-0.9-0.5c-0.3-0.1-0.6-0.3-0.9-0.4c-0.2-0.1-0.5-0.1-0.6-0.2C15.8,27.9,16,27.7,16.1,27.6z M13.1,30.3
	c0.5-0.4,1-0.9,1.5-1.3c0.2-0.2,0.5-0.4,0.7-0.7c0.2,0.1,0.4,0.1,0.5,0.2c0.5,0.2,0.9,0.5,1.4,0.7c0.1,0.1,0.3,0.1,0.4,0.2
	c-0.1,0.1-0.3,0.1-0.4,0.2c-0.4,0.2-0.8,0.4-1.1,0.6c-0.3,0.1-0.5,0.3-0.8,0.4c-0.1,0-0.3,0-0.4,0c-0.3,0-0.7,0-1-0.1
	c-0.3-0.1-0.6-0.2-0.9-0.2C13,30.4,13.1,30.4,13.1,30.3z M10.9,32c0.6-0.5,1.3-0.9,1.9-1.3c0,0,0,0,0,0c0.5-0.1,1,0.3,1.6,0.3
	c0.2,0,0.4,0,0.7,0c-1,0.5-1.9,1.1-2.9,1.6c-0.3,0.2-0.6,0.3-1,0.5c-0.1,0-0.2-0.1-0.2-0.1c-0.2-0.1-0.4-0.3-0.6-0.5
	C10.5,32.3,10.7,32.1,10.9,32z M7.1,34.1c0.6-0.3,1.2-0.5,1.7-0.8c0.4-0.2,0.8-0.4,1.1-0.7c0.3,0.2,0.5,0.4,0.8,0.5
	c-0.2,0.1-0.3,0.1-0.5,0.2c-0.8,0.2-1.6,0.5-2.4,0.8c-0.3,0.1-0.6,0.1-0.9,0.2c0,0,0,0,0-0.1C7,34.2,7,34.2,7.1,34.1z M3.6,36.4
	c-0.3-0.1-0.5-0.3-0.7-0.4c0,0,0,0,0,0c0.4,0,0.8-0.1,1.2-0.1c0.8-0.1,1.6-0.2,2.3-0.5c0.6-0.2,1.2-0.3,1.8-0.4
	c0.4-0.1,0.7-0.2,1.1-0.3c0.3-0.1,0.7-0.3,1-0.4c-0.2,0.2-0.5,0.4-0.7,0.5c-0.6,0.5-1.1,0.9-1.7,1.3c-0.6,0.4-1.3,0.6-2,0.7
	c-0.4,0.1-0.8,0.2-1.3,0.2C4.3,36.7,3.9,36.6,3.6,36.4z M7.8,38c-0.4-0.1-0.7-0.2-1.1-0.3c-0.4-0.1-0.9-0.3-1.3-0.4
	c-0.1,0-0.1-0.1-0.2-0.1c0.2,0,0.3,0,0.5-0.1c0.7-0.1,1.5-0.2,2.1-0.5c0.9-0.4,1.6-1.1,2.3-1.7c0.4-0.3,0.9-0.6,1.1-1
	c0.5-0.2,1.1-0.4,1.6-0.7c-0.4,0.4-0.7,0.9-1,1.4c-0.5,0.8-0.9,1.7-1.6,2.2C9.8,37,9.4,37.3,9,37.6C8.7,37.7,8.2,38,7.8,38z
	 M9.9,38.5c-0.6-0.2-1.1-0.3-1.7-0.5c0.5-0.1,0.9-0.3,1.3-0.5c0.4-0.3,0.8-0.5,1.1-0.8c0.3-0.3,0.6-0.7,0.9-1.1
	c0.5-0.9,1-1.8,1.8-2.5c0.1-0.1,0.2-0.2,0.3-0.3c0.1-0.1,0.2-0.1,0.3-0.2c0.7-0.4,1.3-0.8,2-1.1c0.3-0.2,0.6-0.4,0.9-0.5
	c0.2-0.1,0.5-0.3,0.7-0.4c-0.3,0.3-0.6,0.7-0.9,1c-0.7,0.8-1.3,1.7-1.9,2.6c-0.5,0.8-1,1.6-1.5,2.4c-0.5,0.7-1.1,1.3-1.9,1.7
	C10.8,38.4,10.3,38.5,9.9,38.5z M11.7,39.1c-0.4-0.1-0.8-0.2-1.2-0.4c0.1,0,0.3-0.1,0.4-0.1c0.8-0.2,1.6-0.6,2.2-1.3
	c0.7-0.7,1.1-1.6,1.7-2.5c0.6-0.9,1.1-1.8,1.8-2.7c0.7-0.9,1.6-1.8,2.4-2.6c0,0,0.1,0,0.1-0.1c0.1,0,0.2-0.1,0.3-0.1
	c0,0,0.1,0,0-0.1c0.3-0.2,0.5-0.3,0.7-0.5c0.5-0.3,0.9-0.7,1.4-1c0.1-0.1,0.3-0.2,0.4-0.2c-0.5,0.5-1,1.1-1.5,1.7
	c-0.6,0.8-1.1,1.6-1.5,2.5c-0.4,0.8-0.7,1.7-1.2,2.5c-1.2,2-2.8,4.9-5.5,5C12.1,39.2,11.9,39.2,11.7,39.1z M14.6,40
	c-0.1,0-0.1,0-0.2,0c-0.3-0.1-0.7-0.2-1-0.3c-0.2-0.1-0.4-0.1-0.7-0.2c2.3-0.3,4-2.6,5.1-4.5c1-1.7,1.6-3.7,2.8-5.2
	c0.6-0.8,1.3-1.5,2-2.2c0.1-0.1,0.3-0.2,0.4-0.4c0.2-0.1,0.4-0.2,0.5-0.3c0.2-0.1,0.4-0.3,0.7-0.4c0.5-0.3,1-0.6,1.4-0.9
	c0.2-0.2,0.4-0.3,0.7-0.5c0.3-0.2,0.6-0.4,0.9-0.6c0.2-0.2,0.5-0.3,0.7-0.5c0,0,0,0,0.1,0c0,0.1-0.1,0.1-0.1,0.2
	c-0.1,0.1-0.2,0.2-0.3,0.3c-0.4,0.5-0.8,1-1.2,1.4c-0.4,0.5-0.7,0.9-1.1,1.4c-0.1,0.1-0.3,0.2-0.4,0.2c-0.3,0.2-0.6,0.4-0.8,0.6
	c-0.6,0.5-1.2,1-1.7,1.6c-1.1,1.1-2.1,2.4-3,3.7c-0.9,1.3-1.6,2.7-2.4,4C16.4,38.3,15.6,39.4,14.6,40z M15.4,40.1
	c-0.1,0-0.1,0-0.2,0c-0.1,0-0.2,0-0.3-0.1c0.9-0.5,1.7-1.4,2.2-2.3c0.9-1.4,1.6-2.9,2.5-4.3c0.9-1.4,2-2.7,3.2-3.9
	c0.6-0.6,1.3-1.2,2-1.7c0.1,0,0.1-0.1,0.2-0.1c-0.2,0.4-0.5,0.8-0.7,1.1c-0.3,0.6-0.7,1.3-1,1.9c-0.2,0.4-0.4,0.9-0.7,1.3
	c-0.4,0.8-0.9,1.5-1.3,2.2c-0.3,0.5-0.6,1.1-1,1.6c-0.6,0.8-1.2,1.7-2,2.4c-0.2,0.1-0.3,0.3-0.5,0.4C17,39.3,16.2,39.7,15.4,40.1z
	 M19.9,41.4c-0.3-0.1-0.6-0.2-0.9-0.2c-0.8-0.2-1.5-0.4-2.3-0.6c0.1-0.1,0.3-0.2,0.4-0.3c0.2,0,0.4-0.1,0.6-0.2
	c0.6-0.2,1.2-0.3,1.8-0.6c0.9-0.4,1.8-0.8,2.7-1.4c0,0,0,0,0,0c0.8,0,1.5,0.3,2.2,0.6c0.7,0.2,1.3,0.2,2,0.3c0.7,0,1.5,0.1,2.2-0.1
	c0.3-0.1,0.6-0.1,1-0.2c-1,0.8-2.2,1.5-3.5,1.8c-1.1,0.3-2.2,0.4-3.3,0.7C21.7,41.5,20.8,41.5,19.9,41.4z M28.1,43.3
	c-0.7-0.1-1.3-0.3-1.9-0.5c-0.6-0.2-1.2-0.3-1.8-0.4c-0.6-0.1-1.2-0.3-1.8-0.4c-0.5-0.1-1-0.2-1.5-0.3c0.4,0,0.9,0,1.3-0.1
	c0.6-0.1,1.1-0.3,1.6-0.4c0.6-0.1,1.1-0.2,1.7-0.3c2.1-0.5,3.9-1.6,5.4-3.1c1.7-1.6,3.1-3.5,4.4-5.4c1.5-2.1,2.9-4.3,4.2-6.5
	c0.7-1.1,1.3-2.2,2-3.3c0.1-0.1,0.1-0.2,0.2-0.3c-0.2,0.4-0.3,0.8-0.5,1.2c-0.3,0.6-0.5,1.3-0.8,1.9c-0.1,0.3-0.2,0.6-0.4,1
	c-0.2,0.5-0.4,1-0.6,1.5c-0.2,0.6-0.4,1.3-0.7,1.9c-0.2,0.4-0.3,0.7-0.4,1.1c-0.8,1.1-1.6,2.1-2.2,3.3c-0.7,1.3-1.6,2.5-2.5,3.8
	c-0.9,1.2-1.7,2.5-2.8,3.5c-0.5,0.5-1.1,0.9-1.8,1.3c-0.3,0.2-0.7,0.3-1.1,0.5C28.3,43.2,28.2,43.3,28.1,43.3z M31.4,43.4
	C31.4,43.4,31.4,43.4,31.4,43.4c-0.1,0.1-0.2,0.1-0.2,0.1c-0.2,0.1-0.4,0.2-0.6,0.2c-0.2,0-0.4-0.1-0.6-0.1c-0.3,0-0.5,0-0.8-0.1
	c-0.3-0.1-0.6-0.1-0.8-0.2c0.7-0.2,1.3-0.6,1.9-1c1.3-0.9,2.4-2.1,3.3-3.5c0.9-1.4,2-2.8,2.8-4.3c0.5-1,1.2-1.9,1.8-2.8
	c-0.2,0.4-0.3,0.9-0.5,1.3c-0.2,0.7-0.5,1.4-0.8,2c-0.3,0.6-0.6,1.2-0.9,1.9c-0.4,0.9-0.9,1.7-1.3,2.6c-0.3,0.7-0.7,1.3-1.2,1.8
	c-0.1,0.1-0.2,0.3-0.3,0.4c-0.3,0.3-0.6,0.6-1,0.9C32,43.1,31.7,43.2,31.4,43.4z M34.5,44c-0.4,0-0.8,0-1.1,0
	c-0.2,0-0.4-0.1-0.6-0.1c-0.2,0-0.3,0-0.5,0c0,0,0,0,0-0.1c0.1-0.1,0.1-0.1,0.2-0.2c0,0,0,0,0,0c0.7-0.1,1.3-0.2,2-0.4
	c0.9-0.3,1.8-0.4,2.7-0.7c1.4-0.4,2.9-0.7,4.3-1.1c0.1,0,0.2,0,0.3,0c-0.3,0.2-0.6,0.4-1,0.6c-0.8,0.4-1.6,0.7-2.4,1
	c-0.7,0.3-1.4,0.6-2.2,0.9c-0.2,0.1-0.4,0.1-0.6,0.2C35.2,44,34.8,44,34.5,44z M43.5,43.4c-0.2,0-0.4,0.1-0.6,0.1
	c-0.6,0.1-1.2,0.1-1.9,0.2c-0.2,0-0.4,0-0.6,0c-0.5,0-1.1,0.1-1.6,0.1c-0.5,0-0.9,0.1-1.4,0.1c-0.5,0-0.9,0-1.4,0
	c0.8-0.3,1.6-0.6,2.4-1c0.8-0.3,1.6-0.6,2.4-1c0.4-0.2,0.8-0.5,1.2-0.7c0.2-0.1,0.4-0.2,0.5-0.3c3.5-1.2,6.3-3.6,8.8-6.3
	c0.5-0.6,1.1-1.2,1.6-1.8c-0.1,0.5-0.2,1-0.3,1.4c-0.2,0.7-0.4,1.4-0.7,2c-0.5,1.4-1.3,2.8-2.3,3.8c-1,1-2.2,1.8-3.5,2.3
	C45.3,42.8,44.4,43.2,43.5,43.4z M48.3,42c-0.5,0.2-1,0.4-1.5,0.6c-0.2,0.1-0.5,0.2-0.7,0.3c-0.3,0.1-0.7,0.3-1,0.3
	c-0.2,0-0.3,0-0.5,0c0.6-0.2,1.2-0.5,1.8-0.7c1.3-0.6,2.6-1.3,3.6-2.3c1.1-1.1,1.8-2.4,2.4-3.8c0.3-0.7,0.5-1.4,0.7-2.2
	c0.2-0.6,0.4-1.2,0.3-1.9c0.9-1.3,1.8-2.6,2.5-4c0.5-1,1-2.1,1.6-3.2c0,0.3,0,0.7-0.1,1c-0.1,1-0.1,2.1-0.2,3.1c-0.1,1-0.2,2-0.4,3
	c-0.2,1-0.7,1.9-1.1,2.8c-0.9,1.7-2,3.5-3.4,4.9c-0.3,0.2-0.5,0.3-0.8,0.5c-0.6,0.3-1.2,0.7-1.8,1C49.2,41.7,48.7,41.9,48.3,42z
	 M48.7,46c0.1-0.1,0.1-0.2,0.2-0.3c1.1-0.3,2.3-0.3,3.4-0.2c0.2,0,0.5,0.1,0.7,0.1c2,0.7,4,1.7,6,2.5c2,0.7,4,1.1,6.1,0.9
	c2-0.2,4.1-0.9,5.8-2c0.6-0.4,1.2-0.9,1.6-1.4c-0.2,0.3-0.4,0.6-0.6,0.9c-0.6,0.9-1.4,1.6-2.3,2.2c-0.9,0.7-1.9,1.5-3,2.1
	c-0.9,0.6-1.8,1.1-2.7,1.5c-1.1,0.4-2.3,0.4-3.4,0c-1.1-0.4-2.1-1-3-1.5c-1.1-0.6-2.1-1.4-3-2.2c-0.9-0.7-1.8-1.5-2.8-2
	c-0.8-0.4-1.6-0.7-2.5-0.5C49,46,48.8,46,48.7,46C48.7,46,48.7,46,48.7,46z M48.4,46.3c0.4-0.2,0.9-0.3,1.3-0.3c1.1,0,2,0.6,2.9,1.2
	c1,0.7,1.9,1.5,2.9,2.3c1,0.7,2,1.3,3.1,1.9c1.6,0.9,3.5,1.6,5.4,1c0.9-0.3,1.8-0.8,2.6-1.3c1-0.6,2-1.3,2.9-2
	c0.9-0.7,1.9-1.5,2.6-2.4c0.6-0.8,1-1.7,1.3-2.6c0.1-0.1,0.2-0.2,0.2-0.3c0,0,0,0.1,0,0.1c0,0.4,0.1,0.8,0.1,1.2c0,0.2,0,0.5,0,0.7
	c0,0.2,0,0.3-0.1,0.5c0,0.5-0.1,1-0.1,1.4c0,0.1,0,0.1,0,0.2c-1.1,2.1-2.8,3.7-4.9,4.8c-1.9,0.9-4.1,1.5-6.2,1.4
	c-1.1-0.1-2.3-0.2-3.3-0.8c-1.1-0.6-2-1.4-2.8-2.3c-0.7-0.8-1.3-1.8-2.2-2.5c-0.8-0.6-1.7-1.1-2.7-1.5c-1.1-0.4-2.2-0.5-3.3-0.4
	C48.2,46.6,48.3,46.4,48.4,46.3z M47.7,47.3c0.1-0.2,0.2-0.3,0.3-0.5c1.8-0.4,3.6,0.3,5.2,1.3c0.5,0.3,1.1,0.7,1.5,1.2
	c0.4,0.4,0.7,0.9,1,1.3c0.7,0.9,1.4,1.7,2.4,2.3c1.7,1.1,3.7,1.4,5.7,1.3c2-0.1,4-0.7,5.8-1.7c1-0.6,1.9-1.2,2.7-2.1
	c0.6-0.6,1-1.3,1.4-2c0,0.2,0.1,0.3,0.1,0.5c0,0.2,0,0.4,0,0.6c0,0.4-0.1,0.8-0.1,1.2c0,0.3-0.1,0.6-0.2,0.8c-0.3,0.6-0.6,1.2-1,1.7
	c-0.2,0.2-0.3,0.5-0.5,0.7c-1,0.9-2.3,1.7-3.5,2.3c-1.7,0.9-3.7,1.5-5.7,1.2c-2.4-0.4-4.5-2.2-6.1-3.9c-0.8-0.9-1.6-1.9-2.4-2.9
	c-0.7-0.9-1.5-1.6-2.5-2.1c-0.9-0.4-2-0.9-3-0.8c-0.6,0-1.1,0.2-1.7,0.3C47.3,47.8,47.5,47.6,47.7,47.3z M73.9,53.9
	c0-0.2,0.1-0.3,0.1-0.5c0,0,0,0,0.1,0c0,0.1,0,0.2,0.1,0.3c0.1,0.6,0.3,1.3,0.4,1.9c0.1,0.5,0.3,1,0.4,1.5c0.2,0.5,0.3,1,0.5,1.5
	c0.1,0.5,0.3,0.9,0.5,1.4c0.2,0.5,0.3,1,0.5,1.5c0.2,0.7,0.5,1.4,0.7,2.1c0.2,0.9,0.4,1.8,0.5,2.7c-0.3-0.3-0.6-0.6-0.9-0.9
	c-0.7-0.6-1.4-1.3-2-2c-0.6-0.7-1.1-1.6-1.4-2.5c-0.2-0.6-0.5-1.2-0.7-1.8c0.1-0.5,0.3-1,0.4-1.5c0.2-0.6,0.3-1.2,0.5-1.8
	C73.6,55.2,73.7,54.6,73.9,53.9z M44.8,51.9c0.2-0.5,0.5-1,0.8-1.5c0.1-0.1,0.2-0.3,0.2-0.4c0.3-0.5,0.5-0.9,0.8-1.4
	c0.1-0.2,0.2-0.3,0.3-0.5c0.8-0.2,1.6-0.4,2.3-0.3c1.3,0.2,2.7,0.8,3.7,1.7c0.9,0.8,1.6,1.8,2.4,2.8c0.8,1,1.6,1.9,2.6,2.7
	c1.5,1.3,3.3,2.5,5.4,2.6c1.8,0.1,3.6-0.4,5.2-1.2c1-0.5,1.9-1,2.8-1.7c-0.3,0.3-0.6,0.7-0.9,0.9c-0.7,0.6-1.5,1.2-2.4,1.6
	c-0.3,0.1-0.6,0.3-1,0.5c-0.5,0.2-1,0.5-1.6,0.7c-0.5,0.2-1.1,0.3-1.6,0.4c-0.7,0.2-1.5,0.3-2.2,0.3c-0.7,0-1.5,0.1-2.2,0.1
	c-0.5,0-1,0-1.5-0.1c-0.2,0-0.5-0.1-0.7-0.1c-0.1-0.1-0.3-0.2-0.4-0.3c-0.3-0.2-0.6-0.4-0.8-0.7c-0.5-0.5-1-1.1-1.6-1.6
	c-1-1-2.1-1.9-3.4-2.5c-1.1-0.6-2.3-1.1-3.6-1.4c-0.5-0.1-1.1-0.2-1.6-0.2c-0.4,0-0.9,0.1-1.3,0C44.7,52.3,44.8,52.1,44.8,51.9z
	 M44.6,52.6c0.2,0,0.4,0,0.6,0c0.6,0,1.3-0.1,1.9,0c1.5,0.2,3,0.9,4.3,1.6c1.4,0.8,2.6,2,3.8,3.2c0.5,0.5,1,1,1.6,1.5
	c0,0,0.1,0.1,0.1,0.1c-0.6-0.1-1.2-0.1-1.8-0.2c-0.9-0.1-1.8-0.2-2.7-0.4c-0.1,0-0.1,0-0.2,0c-0.7-0.5-1.2-1-1.8-1.6
	c-0.6-0.7-1.3-1.2-2-1.6c-0.8-0.4-1.6-0.7-2.4-1c-0.5-0.1-0.9-0.3-1.4-0.4c-0.2-0.1-0.4,0-0.6,0C44.2,53.4,44.4,53,44.6,52.6z
	 M43.2,56.9c0.1-0.4,0.2-0.8,0.3-1.2c0.1-0.4,0.2-0.7,0.3-1.1c0.1-0.2,0.2-0.5,0.3-0.7c0.1,0,0.1,0,0.2,0c0.5,0,1,0.2,1.4,0.4
	c0.9,0.3,1.9,0.6,2.7,1.1c0.9,0.5,1.5,1.1,2.2,1.8c0.4,0.5,0.9,0.9,1.4,1.2c-0.4-0.1-0.8-0.1-1.2-0.2c-0.8-0.1-1.5-0.2-2.3-0.3
	c-0.7-0.1-1.4-0.3-2.1-0.4c-0.5-0.1-1-0.2-1.5-0.2c-0.5-0.1-1-0.1-1.4-0.2C43.1,57.1,43.1,57.1,43.2,56.9z M42.9,58.2
	c0-0.1,0-0.2,0.1-0.3c0.7,0.1,1.4,0.1,2.1,0.2c0.5,0.1,0.9,0.1,1.4,0.2c0.5,0.1,1.1,0.1,1.6,0.3c0.7,0.2,1.4,0.3,2.1,0.3
	c0.4,0,0.8,0.1,1.1,0.1c-0.5,0.4-1.3,0.6-1.9,0.7c-0.7,0.2-1.4,0.5-2,0.6c-1.5,0.3-3.1,0-4.4-0.8C42.9,59.1,42.9,58.6,42.9,58.2z
	 M42.7,61.3c0-0.4,0.1-0.7,0.1-1.1c0-0.1,0-0.2,0-0.4c1.3,0.7,2.8,1.1,4.2,0.8c0.8-0.1,1.6-0.4,2.5-0.7c0.7-0.2,1.5-0.4,2-0.8
	c0.2,0,0.5,0.1,0.7,0.1c1,0.1,2,0.3,2.9,0.4c0.5,0.1,1,0.1,1.5,0.2c-0.4,0.3-0.9,0.6-1.3,0.9c-0.5,0.3-1.1,0.6-1.6,0.9
	c-1.1,0.4-2.3,0.7-3.5,0.9c-1.2,0.2-2.6,0.5-3.8,0.4c-0.7,0-1.3-0.2-2-0.5c-0.5-0.2-1.3-0.4-1.7-0.8c0,0,0,0-0.1,0
	C42.7,61.4,42.7,61.3,42.7,61.3z M42.7,61.7c0.4,0.3,1,0.4,1.5,0.6c0.6,0.3,1.1,0.4,1.8,0.5c1.4,0.2,2.8-0.1,4.2-0.3
	c1.3-0.2,2.7-0.5,3.9-1c0.6-0.2,1.1-0.6,1.7-0.9c0.4-0.3,0.9-0.5,1.3-0.9c0,0,0.1,0,0.1,0c0.9,0.2,1.9,0.2,2.8,0.2
	c0.3,0,0.6,0,0.9,0c0.5,0,1,0,1.5-0.1c-1.2,0.5-2.4,1.1-3.3,2.1c-0.8,0.8-1.4,1.7-2.4,2.3c-0.9,0.6-1.8,1.1-2.8,1.4
	c-2,0.7-4.2,1.2-6.2,0.8c-2-0.4-3.8-1.3-5.1-2.9C42.6,62.9,42.6,62.3,42.7,61.7z M42.6,63.9c1.2,1.4,2.9,2.2,4.7,2.6
	c2,0.5,4,0.2,5.9-0.4c2.1-0.7,4-1.6,5.5-3.3c0.8-0.9,1.6-1.6,2.7-2.2c0.7-0.4,1.4-0.6,2.1-0.9c0.4-0.1,0.8-0.2,1.3-0.3
	c0.7-0.2,1.4-0.4,2.1-0.8c0.6-0.3,1.2-0.6,1.8-0.9c0.5-0.2,1-0.5,1.4-0.9c0.6-0.5,1.2-1,1.7-1.6c0.4-0.5,0.8-1,1.2-1.5
	c-0.6,1.3-1.2,2.7-1.9,3.9c-0.9,1.5-2.1,2.9-3.4,4.1c-1.8,1.6-3.8,3.2-6.2,3.7c-1.9,0.4-4,0-5.8,0.6c-1,0.3-1.8,1-2.8,1.4
	c-1.1,0.5-2.4,0.5-3.5,0.2c-1.2-0.3-2.4-0.8-3.6-1.3c-1-0.4-1.8-0.9-2.8-1.2C42.7,64.8,42.7,64.3,42.6,63.9z M42.8,66.3
	c0-0.2,0-0.5,0-0.7c0-0.1,0-0.1,0-0.2c0.9,0.2,1.7,0.7,2.5,1.1c0.9,0.4,1.7,0.7,2.7,1c1.4,0.5,3.2,0.9,4.6,0.3c1-0.4,1.9-1.2,3-1.5
	c1-0.3,2-0.3,3.1-0.4c0.9,0,1.9-0.1,2.8-0.3c1.1-0.2,2.1-0.7,3-1.2c1-0.6,1.9-1.3,2.8-2.1c1-0.8,1.9-1.7,2.7-2.7
	c0.8-1,1.5-2.1,2.1-3.3c0.4-0.8,0.8-1.7,1.1-2.5c-0.2,0.7-0.4,1.5-0.6,2.2c-0.1,0.4-0.2,0.9-0.3,1.3c-0.1,0.5-0.3,1-0.5,1.5
	c-0.1,0.4-0.2,0.7-0.4,1.1c-0.3,0.7-0.5,1.4-0.8,2.1c-0.1,0.2-0.3,0.3-0.5,0.5c-0.4,0.4-0.9,0.9-1.3,1.3c0,0-0.1,0.1-0.1,0.1
	c-0.2,0.2-0.5,0.4-0.7,0.5c-0.3,0.2-0.6,0.5-0.9,0.7c-3.1,2.3-6.9,3.8-10.7,4.4c-2.3,0.4-4.6,0.3-6.9-0.1c-2.2-0.4-4.3-1.1-6.5-1.1
	C43,67.8,42.9,67,42.8,66.3z M43.1,69.4c0-0.2,0-0.4,0-0.6c1.6,0,3.2,0.4,4.7,0.8c2.2,0.5,4.4,0.8,6.7,0.7c2.2-0.1,4.4-0.6,6.4-1.3
	c1.5-0.5,2.9-1.1,4.3-1.9c-1,0.9-2,1.7-3,2.5c-1.8,1.3-3.8,2.6-5.9,3.5c-2,0.9-4.2,1.5-6.4,1.4c-1.3,0-2.5-0.3-3.7-0.9
	c-0.6-0.3-1.1-0.7-1.7-1c-0.4-0.2-0.8-0.5-1.2-0.8C43.2,71,43.1,70.2,43.1,69.4z M43.3,72.1c0.5,0.3,1,0.6,1.5,0.9
	c0.7,0.5,1.5,0.9,2.3,1.2c1.9,0.7,4.1,0.6,6.1,0.1c2-0.5,4-1.4,5.8-2.4c2.1-1.2,4.1-2.6,5.9-4.2c0.5-0.4,0.9-0.8,1.4-1.2
	c0.2-0.1,0.4-0.3,0.6-0.4c0.9-0.6,1.8-1.3,2.6-2.1c0.1-0.1,0.3-0.2,0.4-0.4c0.1-0.1,0.2-0.1,0.3-0.2c-0.2,0.6-0.5,1.2-0.8,1.9
	c-0.1,0.2-0.1,0.3-0.2,0.5c-0.1,0.2-0.2,0.5-0.3,0.7c-0.2,0.4-0.4,0.8-0.6,1.2c-0.4,0.7-0.7,1.4-1.2,2.1c-0.2,0.4-0.5,0.8-0.8,1.2
	c-0.1,0.2-0.2,0.3-0.3,0.5c-0.8,0.1-1.6,0.3-2.4,0.5c-1,0.2-1.9,0.6-2.7,1.1c-1.7,1-3.3,2.1-5.1,2.9c-0.9,0.4-1.9,0.7-2.9,0.8
	c-1.1,0.1-2.4-0.1-3.4-0.5c-1-0.4-2-0.9-3.1-1.1c-0.8-0.2-1.7-0.3-2.6-0.4c0-0.2-0.1-0.4-0.1-0.6c-0.1-0.5-0.2-1.1-0.3-1.6
	C43.4,72.4,43.4,72.2,43.3,72.1z M56.5,81.5c-1.4,0.5-2.8,0.7-4.2,1c-1.4,0.3-2.9,0.7-4.3,0.9c-0.8,0.1-1.5,0-2.3,0
	c-0.4,0-0.8,0-1.2,0c-0.1,0-0.3-0.1-0.4-0.1c0,0-0.1,0-0.1,0c0.1-0.6,0.1-1.2,0.1-1.8c1.6,0.3,3.2,0.3,4.8,0.2
	c1.7-0.1,3.3-0.5,4.9-0.9c1.6-0.4,3.2-0.9,4.7-1.6c0.8-0.4,1.6-0.8,2.3-1.2c-0.3,0.4-0.7,0.6-0.9,1c0,0,0,0,0,0
	c-0.3,0.3-0.7,0.6-0.9,0.9c-0.1,0.1-0.2,0.2-0.3,0.4c0,0-0.1,0-0.1,0C58,80.9,57.3,81.2,56.5,81.5z M58.1,81
	c-0.3,0.2-0.6,0.4-0.9,0.6c-0.6,0.4-1.3,0.8-1.9,1.2c-1.3,0.9-2.7,1.5-4.2,2.1c-1.4,0.5-2.8,0.9-4.3,1.1c-0.7,0.1-1.5,0.2-2.2,0.3
	c-0.3,0-0.7,0.1-1,0c0,0,0,0,0,0c0.2-0.9,0.3-1.8,0.5-2.7c0-0.1,0-0.1,0-0.2c0.1,0,0.2,0,0.3,0c0.4,0.1,0.7,0.1,1.1,0.1
	c0.8,0,1.6,0.1,2.4,0c1.6-0.1,3.1-0.5,4.6-0.9c1.6-0.3,3.2-0.6,4.7-1.2C57.4,81.4,57.8,81.2,58.1,81z M58.4,79.1
	c-1.5,0.7-3,1.2-4.6,1.6c-1.6,0.4-3.2,0.8-4.8,0.9c-1.6,0.1-3.3,0.2-4.8-0.2c0-0.3,0-0.6,0-0.8c0-0.3,0-0.3,0.3-0.3
	c0.5,0,1.1,0,1.6,0.1c0.3,0,0.6,0,0.9,0c0.7,0,1.4,0,2.1,0c0.4,0,0.9,0,1.3-0.1c0.6-0.1,1.1-0.2,1.7-0.3c0.3-0.1,0.7-0.1,1-0.2
	c0.5-0.2,1-0.4,1.6-0.6c0.4-0.2,0.9-0.3,1.3-0.5c0.3-0.2,0.7-0.3,1-0.5c0.5-0.3,1.1-0.5,1.6-0.7c0.8-0.3,1.4-0.8,2.2-1.2
	c0.8-0.4,1.5-0.9,2.2-1.5c0.2-0.2,0.4-0.3,0.6-0.5c0,0,0.1,0,0.2-0.1c0,0.2,0,0.4-0.2,0.5c-0.2,0.2-0.3,0.6-0.6,0.8c0,0,0,0.1,0,0.1
	c-0.1,0.1-0.1,0.2-0.2,0.3c-0.2,0.3-0.5,0.5-0.7,0.8c-0.1,0.1-0.2,0.3-0.3,0.4c-0.1,0.1-0.2,0.2-0.3,0.4
	C60.5,78.1,59.5,78.7,58.4,79.1z M63,74c-0.8,0.6-1.5,1.2-2.3,1.6c-0.2,0.1-0.5,0.3-0.7,0.4c-0.4,0.2-0.8,0.5-1.2,0.7
	c-0.8,0.4-1.6,0.8-2.5,1.1c-0.8,0.3-1.6,0.7-2.4,1c-0.3,0.1-0.6,0.2-0.9,0.3c-0.8,0.1-1.6,0.3-2.4,0.4c-0.6,0.1-1.2,0.1-1.8,0.1
	c-0.2,0-0.4,0-0.6,0c-0.5,0-1.1,0-1.6,0c-0.7,0-1.4-0.1-2.2-0.2c-0.1,0-0.1,0-0.2,0c0,0,0-0.1,0-0.1c0-0.6,0-1.2-0.1-1.9
	c0-0.5-0.1-0.9-0.1-1.4c-0.1-0.4-0.1-0.8-0.2-1.1c1,0.1,1.9,0.2,2.9,0.5c1.1,0.3,2.1,0.9,3.2,1.2c1.8,0.5,3.8,0.5,5.5-0.3
	c1.8-0.7,3.4-1.8,5.1-2.9c0.9-0.6,1.9-1.1,3-1.4c0.8-0.2,1.6-0.3,2.4-0.5c-0.1,0.1-0.1,0.2-0.2,0.2c-0.4,0.4-0.8,0.8-1.2,1.1
	C64,73.3,63.5,73.6,63,74z M43.1,87.9c0.1-0.4,0.3-0.8,0.4-1.3c0.1,0,0.2,0,0.3,0c0.3,0,0.7,0,1-0.1c0.7-0.1,1.5-0.2,2.2-0.3
	c1.5-0.2,2.9-0.6,4.4-1.2c0.8-0.3,1.5-0.6,2.3-0.9c0.7-0.3,1.4-0.8,2-1.2c0.4-0.3,0.8-0.5,1.3-0.8c-0.1,0.1-0.2,0.2-0.2,0.3
	c-0.3,0.3-0.7,0.7-1,1c-0.1,0.1-0.2,0.2-0.3,0.4c-0.1,0-0.1,0.1-0.2,0.1c-0.3,0.3-0.6,0.5-1,0.7c-0.6,0.4-1.3,0.7-2,1
	c-1.4,0.5-2.7,1.1-4.1,1.6c-1.4,0.5-2.8,0.6-4.2,0.9c-0.4,0.1-0.7,0.1-1.1,0.2C43,88.2,43.1,88.1,43.1,87.9z M42.2,90
	C42.2,90,42.2,90,42.2,90c0.1-0.2,0.2-0.3,0.3-0.4c0.1-0.3,0.3-0.7,0.4-1c0,0,0.1,0,0.1,0c0.7-0.2,1.5-0.3,2.2-0.5
	c0.7-0.1,1.4-0.2,2.1-0.4c0.7-0.2,1.3-0.4,2-0.6c1.4-0.5,2.8-1,4.1-1.7c0.3-0.1,0.6-0.3,0.8-0.4c-0.6,0.6-1.2,1.1-1.8,1.6
	c-0.3,0.2-0.5,0.5-0.7,0.7c-0.1,0.1-0.1,0.1-0.2,0.2c-0.2,0.1-0.4,0.2-0.6,0.3c-0.6,0.3-1.2,0.6-1.8,0.8c-1.2,0.4-2.5,0.7-3.8,1.1
	c-1.1,0.3-2.3,0.7-3.4,1.3C41.9,90.6,42.2,90.4,42.2,90z M45.4,91.6c-0.2,0.1-0.4,0.3-0.6,0.4c-0.4,0.3-0.8,0.5-1.2,0.8
	c-1.3,0.4-2.6,0.8-3.8,1.3c-0.1,0-0.2,0.1-0.3,0.1c0.1-0.1,0.2-0.2,0.2-0.4c0,0,0,0,0.1,0c0.1,0,0.1-0.1,0.2-0.2
	c0-0.1,0.1-0.2,0.2-0.3c0.8-0.3,1.5-0.6,2.3-0.9C43.5,92.2,44.5,91.9,45.4,91.6C45.4,91.6,45.4,91.6,45.4,91.6z M46.8,90.8
	c-0.3,0.1-0.5,0.3-0.8,0.4c-1.4,0.4-2.8,0.8-4.1,1.3c-0.5,0.2-1.1,0.4-1.6,0.6c0.1-0.1,0.1-0.1,0.2-0.2c0.1-0.2,0.2-0.4,0.3-0.6
	c0.1-0.2,0.3-0.4,0.4-0.7c0.1-0.2,0.2-0.3,0.3-0.5c1.4-0.8,3-1.3,4.5-1.7c1.2-0.3,2.5-0.6,3.6-1.1c0.2-0.1,0.5-0.2,0.7-0.3
	c-0.1,0.1-0.1,0.1-0.2,0.2c-0.5,0.3-0.9,0.7-1.4,1c-0.3,0.2-0.5,0.4-0.8,0.6c-0.3,0.2-0.6,0.4-0.9,0.6C47,90.6,46.9,90.7,46.8,90.8z
	 M49.8,90.4c-0.8,0.4-1.6,0.8-2.4,1.2c0,0,0,0,0,0c0.1-0.1,0.2-0.2,0.3-0.2c0.4-0.3,0.8-0.6,1.2-0.9c0.6-0.4,1.2-0.9,1.8-1.3
	c0.1-0.1,0.3-0.2,0.4-0.3c0.2-0.2,0.4-0.4,0.7-0.5c0.3-0.2,0.5-0.4,0.8-0.6c0.4-0.3,0.7-0.6,1-0.9c0.3-0.3,0.6-0.5,0.9-0.8
	c-0.5,0.7-0.9,1.3-1.4,2c-0.5,0.7-1,1.3-1.6,1.9C50.9,89.9,50.3,90.1,49.8,90.4z M55.3,88.2c-0.7,0.3-1.5,0.6-2.2,0.8
	c-0.2,0.1-0.4,0.2-0.7,0.2c0.4-0.4,0.7-0.8,1.1-1.3c0.9-1.3,1.8-2.5,2.7-3.8c0.2-0.2,0.4-0.4,0.6-0.5c0.2-0.2,0.4-0.4,0.6-0.5
	c0.4-0.4,0.8-0.8,1.2-1.2c0.6-0.6,1.2-1.2,1.7-1.7c0.1-0.1,0.1-0.2,0.2-0.2c0,0-0.1,0.1-0.1,0.1c-0.7,1.2-1.1,2.5-1.8,3.7
	c-0.7,1.2-1.4,2.4-2.3,3.4C56.1,87.5,55.7,87.9,55.3,88.2z M62.3,84.3c-0.2,0.2-0.3,0.4-0.4,0.6c0,0,0,0.1-0.1,0.1
	c-0.6,0.4-1.3,0.7-1.9,1.1c-1.2,0.7-2.5,1.3-3.9,1.9c0.2-0.1,0.3-0.3,0.4-0.4c0.9-1,1.6-2.2,2.3-3.4c0.4-0.6,0.7-1.2,1-1.9
	c0.3-0.7,0.6-1.4,1-2.1c0.3-0.5,0.6-1,1-1.5c0.3-0.3,0.6-0.7,0.9-1c0.9-1.2,1.8-2.4,2.6-3.6c0.2-0.4,0.5-0.7,0.7-1.1
	c0.2-0.3,0.4-0.6,0.6-0.9c0,0.1,0,0.2,0,0.2c-0.1,0.6-0.2,1.2-0.3,1.8c-0.2,1-0.5,1.9-0.7,2.9c-0.2,0.9-0.5,1.8-0.8,2.7
	c-0.3,0.6-0.5,1.3-0.9,1.9c-0.3,0.5-0.6,1-0.8,1.6C62.9,83.5,62.6,83.9,62.3,84.3z M65.4,82.7c-0.6,0.5-1.3,0.9-2,1.3
	c0,0-0.1,0-0.1,0c0,0,0,0-0.1-0.1c0-0.1,0.1-0.2,0.1-0.3c0.2-0.4,0.4-0.7,0.6-1.1c0.5-0.8,0.9-1.6,1.2-2.5c0.1-0.3,0.3-0.7,0.4-1
	c0.2-0.6,0.4-1.3,0.5-1.9c0.2-0.7,0.4-1.4,0.6-2.2c0-0.2,0.1-0.4,0.1-0.7c0,0.2,0,0.4,0,0.6c0.1,1,0.4,2,0.4,3c0,1-0.1,2.1-0.6,3
	C66.3,81.6,65.9,82.2,65.4,82.7z M68.3,80.4c-0.2,0.1-0.3,0.2-0.5,0.3c-0.4,0.3-0.8,0.5-1.1,0.8c0.1-0.1,0.2-0.3,0.3-0.4
	c0.5-0.9,0.6-1.9,0.6-2.9c0-1-0.2-1.9-0.4-2.9c-0.2-1,0-1.9,0.1-2.9c0,0.2,0.1,0.5,0.2,0.7c0.3,0.7,0.6,1.3,1,2
	c0.4,0.7,0.9,1.4,1.3,2.1c0.2,0.3,0.5,0.9,0.6,1.4C69.6,79.2,69,79.8,68.3,80.4z M71.3,76.2c-0.1,0.7-0.2,1.4-0.6,2
	c0,0-0.1,0.1-0.1,0.1c-0.1-0.3-0.3-0.7-0.4-0.9c-0.4-0.8-0.9-1.5-1.3-2.3c-0.4-0.7-0.8-1.4-1.1-2.1c-0.1-0.4-0.2-0.9-0.3-1.3
	c0,0,0.1-0.1,0.1-0.2c0.1-0.2,0.1-0.4,0.2-0.6c0.1-0.3,0.1-0.7,0.3-1c0.3-0.6,0.7-1.2,1.1-1.8c0.2-0.4,0.5-0.8,0.7-1.3
	c0,0.2,0,0.4,0,0.6c0.1,1.5,0.5,3,0.8,4.4C71,73.3,71.4,74.8,71.3,76.2z M74,75.4c-0.5,0.5-1,1-1.6,1.5c-0.1,0-0.1,0.1-0.2,0.1
	c-0.2,0.2-0.5,0.3-0.7,0.5c0.1-0.4,0.2-0.7,0.2-1.1c0.1-1.4-0.2-2.8-0.5-4.2c-0.4-1.6-0.8-3.1-0.9-4.8c0-0.2,0-0.4,0-0.7
	c0.1,0.3,0.3,0.6,0.4,0.9c0.5,0.9,1.1,1.7,1.8,2.4c0.7,0.7,1.6,1.4,2,2.3c0.2,0.4,0.3,0.8,0.3,1.2c0,0.2,0.1,0.5,0.1,0.8
	C74.7,74.7,74.4,75,74,75.4z M77.5,71.1c0,0.1,0,0.2-0.1,0.3c-0.2,0.2-0.3,0.4-0.5,0.6c-0.1,0.1-0.2,0.2-0.3,0.3
	c-0.3,0.3-0.5,0.7-0.8,1c-0.1,0.2-0.2,0.4-0.4,0.5c0,0,0,0.1-0.1,0.1c0-0.4-0.2-0.8-0.2-1.1c-0.3-0.9-1-1.6-1.7-2.2
	c-0.7-0.7-1.6-1.5-2.1-2.4c-0.3-0.5-0.5-1-0.7-1.5c-0.1-0.2-0.2-0.4-0.2-0.7c0-0.1,0-0.2,0-0.3c0.2-0.4,0.4-0.9,0.6-1.3
	c0.2-0.4,0.3-0.7,0.4-1.1c0.1,0.4,0.2,0.8,0.4,1.2c0.5,0.9,0.9,1.6,1.7,2.2c0.8,0.7,1.6,1.3,2.4,1.9c0.4,0.3,1,0.6,1.4,0.9
	c0,0,0.2,0.2,0.4,0.4C77.6,70.3,77.5,70.7,77.5,71.1z M77.7,69.6C77.7,69.6,77.7,69.6,77.7,69.6c-0.1,0-0.2-0.1-0.3-0.2
	c-0.1-0.1-0.3-0.2-0.5-0.3c-0.9-0.6-1.8-1.2-2.7-1.9c-0.4-0.4-0.9-0.7-1.3-1.1c-0.3-0.4-0.6-0.8-0.8-1.3c-0.2-0.4-0.4-0.8-0.5-1.2
	c-0.1-0.3-0.1-0.5-0.2-0.8c0.1-0.2,0.1-0.4,0.2-0.7c0.1-0.5,0.3-0.9,0.4-1.4c0.1-0.3,0.2-0.7,0.3-1c0.2,0.5,0.4,1,0.6,1.4
	c0.3,0.8,0.8,1.6,1.3,2.3c0.6,0.7,1.2,1.4,1.9,2c0.4,0.3,0.7,0.6,1,1c0.1,0.1,0.2,0.3,0.3,0.4c0,0.1,0,0.3,0,0.4
	C77.8,67.9,77.8,68.8,77.7,69.6z M80.8,65.8c-0.1,0.1-0.1,0.3-0.2,0.4c-0.3,0.6-0.6,1.3-0.9,1.9c-0.2,0.4-0.5,0.8-0.7,1.2
	c0,0,0,0,0,0c-0.2,0.3-0.4,0.5-0.7,0.8c0,0,0,0,0-0.1c0.3-1.1,0.2-2.2,0.1-3.3c-0.1-0.8-0.2-1.5-0.4-2.3c-0.1-0.7-0.3-1.4-0.5-2
	c-0.3-0.7-0.5-1.5-0.8-2.2c-0.2-0.6-0.4-1.3-0.6-1.9c-0.4-1.1-0.7-2.2-1-3.3c-0.2-0.7-0.3-1.4-0.4-2.1c-0.1-0.6-0.2-1.2-0.2-1.8
	c0.3,0.7,0.6,1.5,1,2.1c0.6,0.8,1.1,1.6,1.8,2.4c0.7,0.8,1.4,1.6,2.1,2.5c0.6,0.8,1,1.7,1.2,2.7c0.2,1,0.3,2.2,0.3,3.2
	C80.8,64.6,80.9,65.2,80.8,65.8z M82,62.4c-0.1,0.4-0.3,0.9-0.4,1.3c-0.1,0.5-0.3,0.9-0.5,1.3c0-0.3,0-0.7,0-1c0-1-0.1-2-0.3-3
	c-0.2-1-0.5-1.9-1.1-2.7c-0.6-0.8-1.3-1.6-1.9-2.3c-0.4-0.4-0.8-0.9-1.1-1.3c-0.3-0.4-0.6-0.8-0.8-1.3c-0.6-0.9-1-1.8-1.3-2.8
	c0,0,0-0.1,0-0.1c0.1-0.6,0.1-1.3,0.1-2c0,0,0,0,0-0.1c0-0.2,0-0.5,0-0.7c0.3,0.5,0.6,1.1,1,1.5c1,1.5,2.1,2.9,3,4.4
	c0.9,1.5,1.7,3,2.5,4.5c0.6,1.2,1.4,2.7,0.7,4.1C81.9,62.3,82,62.4,82,62.4z M82.5,59.9c0,0.2-0.1,0.5-0.1,0.7
	c-0.1-0.7-0.5-1.4-0.8-2.1c-0.8-1.5-1.7-3-2.5-4.5c-0.9-1.5-1.8-2.9-2.9-4.3c-0.5-0.7-1.2-1.6-1.6-2.5c0-0.1,0-0.2,0-0.2
	c0-0.6,0.1-1.1,0.1-1.7c0-0.2,0-0.4,0-0.6c0.1,0.3,0.2,0.6,0.4,0.9c0.8,1.5,1.7,2.9,2.7,4.3c1.1,1.5,2.4,2.8,3.4,4.3
	c0.5,0.7,0.9,1.4,1.2,2.2c0.1,0.2,0.2,0.4,0.3,0.7C82.7,57.9,82.6,58.9,82.5,59.9z M82.9,54.2c0,0.6,0.1,1.1,0,1.7
	c-0.3-0.6-0.6-1.1-0.9-1.6c-1-1.5-2.2-2.8-3.3-4.2c-1.1-1.4-2.1-2.9-2.9-4.5c-0.4-0.8-0.7-1.6-1-2.4c0,0,0-0.1,0-0.1
	c0-0.2,0-0.4,0-0.6c0.1,0.2,0.3,0.5,0.4,0.7c0.9,1.3,2,2.3,3.1,3.3c1.1,0.9,2.4,1.8,3.3,2.9c0.5,0.6,0.8,1.2,1.1,1.9
	C82.8,52.3,82.8,53.2,82.9,54.2z M82.2,47.4c0,0.3,0.1,0.6,0.1,0.8c0,0.4,0.1,0.7,0.1,1.1c-0.9-1.1-2.1-1.9-3.2-2.9
	c-1.2-1-2.3-2-3.2-3.3c-0.4-0.6-0.8-1.3-1.2-2c-0.1-0.2-0.2-0.4-0.3-0.7c0,0,0-0.1,0-0.1c0,0.1,0.1,0.1,0.1,0.2
	c0.3,0.4,0.7,0.8,1.1,1.2c0.8,0.8,1.6,1.6,2.4,2.4c0.8,0.7,1.6,1.5,2.5,2.1c0.4,0.3,0.9,0.5,1.2,0.8C82,47.3,82.1,47.3,82.2,47.4z
	 M82.1,47.1c-0.3-0.2-0.6-0.4-1-0.6c-0.9-0.7-1.8-1.5-2.7-2.2c-0.8-0.8-1.6-1.6-2.4-2.4c-0.4-0.4-0.8-0.9-1.2-1.3
	c-0.1-0.2-0.3-0.4-0.4-0.6c0-0.2,0-0.4,0-0.6c0-0.4-0.1-0.8-0.1-1.2c-0.1-0.6-0.1-1.2-0.2-1.7c0-0.3,0-0.5,0-0.8c0,0,0,0,0.1,0
	c0.1,0.2,0.2,0.4,0.3,0.6c0.4,0.7,0.7,1.4,1.1,2c0.6,1.1,1.4,2,2.3,2.9c0.5,0.6,1.1,1.1,1.6,1.7c0.5,0.5,1,1,1.4,1.6
	c0.2,0.3,0.5,0.7,0.7,1c0.2,0.4,0.4,0.8,0.5,1.3C82.1,46.8,82.1,46.9,82.1,47.1z M80,39.6c0.3,0.8,0.7,1.5,1,2.3
	c0.3,0.6,0.5,1.2,0.7,1.8c0,0.1,0,0.2,0.1,0.3c-0.1,0-0.2-0.1-0.3-0.2c-0.3-0.4-0.6-0.8-1-1.1c-0.6-0.6-1.2-1.3-1.8-1.9
	c-0.8-0.8-1.6-1.7-2.2-2.6c-0.5-0.8-1-1.6-1.4-2.4c-0.2-0.3-0.3-0.7-0.5-1c0.1,0.1,0.2,0.2,0.3,0.3c0.5,0.6,1,1.2,1.5,1.7
	c1,0.9,2.1,1.6,3.3,2.2C79.8,39.3,79.9,39.5,80,39.6z M78.9,37.1c0.2,0.6,0.5,1.2,0.7,1.8c-1.1-0.6-2.2-1.3-3.1-2.2
	c-0.5-0.5-1-1.1-1.5-1.7c-0.2-0.2-0.5-0.5-0.6-0.7c-0.1-0.2-0.2-0.5-0.2-0.7c-0.2-0.8-0.4-1.5-0.4-2.3c0,0,0,0,0-0.1
	c0.3,0.6,0.6,1.1,1,1.6c1,1.2,2.2,2.3,3.6,3C78.6,36.2,78.7,36.6,78.9,37.1z M77.3,32.6c0.3,0.8,0.5,1.6,0.8,2.4
	c0,0.1,0,0.1,0.1,0.2c-0.4-0.3-0.8-0.6-1.2-0.9c-0.6-0.5-1.2-1.1-1.7-1.7c-0.5-0.7-1-1.4-1.2-2.2c0-0.1-0.1-0.3-0.1-0.4
	c0.4,0.4,0.8,0.7,1.2,1c0.6,0.4,1.3,0.5,1.9,0.7C77.1,31.9,77.2,32.3,77.3,32.6z M77.5,18.6c-0.2,0.1-0.5,0.2-0.8,0.4
	c-0.3,0.2-0.6,0.5-0.9,0.7c-0.4,0.3-0.7,0.6-1.1,1c-0.2,0.2-0.4,0.4-0.7,0.6c-0.2,0.2-0.7,0.8-0.7,0.8c-0.1,0.1-1,1.3-1.2,1.5
	c-0.4,0.6-0.7,1.3-1.1,1.8c-0.1,0.1-0.1,0.2-0.3,0.4c0,0,0,0,0,0c0-0.5-0.1-1-0.1-1.5c0-0.3,0-0.6,0-0.8c0-0.3-0.1-0.6-0.2-0.8
	c0.5,0,0.8-0.4,1.2-0.7c0.7-0.6,1.3-1.3,2.2-1.8c0.8-0.5,1.7-1,2.6-1.3C76.7,18.7,77.1,18.6,77.5,18.6
	C77.5,18.6,77.5,18.6,77.5,18.6z M79.1,17.6c-0.4,0.2-0.8,0.5-1.2,0.7c-0.2,0-0.3,0-0.5,0c-0.4,0.1-0.7,0.1-1.1,0.3
	c-0.8,0.3-1.5,0.7-2.3,1c-0.8,0.4-1.4,0.9-2,1.5c-0.3,0.3-0.6,0.5-0.9,0.8c-0.2,0.1-0.5,0.4-0.7,0.5c0-0.1-0.1-0.2-0.1-0.2
	c-0.1-0.6-0.3-1.1-0.5-1.7c0,0,0,0,0,0c0.1,0,0.2,0,0.3,0c0.5,0,1-0.1,1.5-0.3c1-0.4,2-0.9,2.9-1.4c0.9-0.5,1.8-1.1,2.8-1.5
	c0.5-0.2,1-0.3,1.5-0.4c0.5-0.1,0.9,0,1.3,0.3C79.8,17.3,79.4,17.5,79.1,17.6z M78.1,16.8c-1,0.2-2,0.6-2.9,1.1
	c-1,0.6-1.9,1.1-2.9,1.6c-0.5,0.3-1.1,0.5-1.6,0.7c-0.3,0.1-0.6,0.1-0.9,0.1c-0.1,0-0.1,0-0.2,0c-0.1-0.3-0.2-0.5-0.4-0.8
	c0,0,0.1,0,0.1-0.1c0.5-0.3,1-0.6,1.5-0.9c1-0.6,1.9-1.1,3-1.5c1.1-0.4,2.2-0.7,3.3-0.8c0.6-0.1,1.2-0.1,1.8-0.1
	c0.2,0,0.5,0.1,0.7,0.1c0.3,0.2,0.5,0.4,0.7,0.6c0,0,0,0,0,0.1C79.7,16.6,79,16.6,78.1,16.8z M80.7,15.4c0,0,0-0.1,0-0.1
	c0,0,0.1,0,0.1,0C80.8,15.3,80.8,15.4,80.7,15.4C80.8,15.4,80.8,15.4,80.7,15.4z M80.5,10.8c0.1,0.6,0.1,1.1,0.1,1.7
	c0,0.4,0,0.8,0,1.1c0,0.5,0,1-0.2,1.5C80.1,15,80,14.9,80,14.6c0-0.1,0-0.2,0-0.3c0-0.6,0-1.2,0-1.8c0-0.3,0-0.6,0-1
	c0-0.8,0-1.6,0.2-2.4c0.1-0.5,0.2-1,0.3-1.5c0.2-0.6,0.4-1,0.9-1.4c0.1-0.1,0.1-0.1,0.2-0.2c0.2-0.2,0.4-0.4,0.6-0.6
	c0.4-0.2,0.7-0.4,1.1-0.6c0,0,0,0,0,0c0,0,0,0.1-0.1,0.1c-0.3,0.4-0.6,0.7-0.9,1.1c-0.2,0.4-0.4,0.8-0.7,1.1
	c-0.3,0.5-0.5,0.9-0.8,1.4C80.6,9.4,80.5,10,80.5,10.8z M81.8,11.1c0.5-0.9,1.1-1.7,1.8-2.5c0.4-0.5,0.8-1,1.3-1.4
	c0.5-0.5,1.1-0.8,1.7-1.2c0.1-0.1,0.3-0.2,0.5-0.3c0.2-0.1,0.3-0.2,0.5-0.3c0,0.1,0,0.2,0,0.2c-0.2,0.2-0.3,0.3-0.5,0.4
	c-0.3,0.2-0.6,0.5-1,0.7c-0.1,0-0.1,0.1-0.1,0.2c-0.2,0.2-0.3,0.4-0.5,0.6c-0.4,0.3-0.8,0.7-1.2,1c-0.4,0.3-0.8,0.7-1.1,1.1
	c-0.3,0.4-0.7,0.9-1,1.4c-0.1,0.2-0.2,0.4-0.5,0.5C81.8,11.2,81.8,11.1,81.8,11.1z M81.3,13.7c-0.1-0.2-0.1-0.4,0-0.6
	c0.1-0.2,0.1-0.3,0.2-0.5c0.3-0.4,0.5-0.9,0.8-1.3c0.4-0.5,0.7-1.1,1.1-1.6c0.4-0.5,0.8-0.9,1.3-1.3C85,8.3,85.3,8,85.6,7.8
	c0.4-0.3,0.7-0.7,1.1-1c0.2-0.2,0.5-0.4,0.7-0.6c0,0,0,0,0.1,0c-0.1,0.1-0.2,0.3-0.3,0.4c-0.6,0.7-1.1,1.4-1.8,2
	c-0.9,0.8-1.7,1.6-2.5,2.5c-0.5,0.5-0.9,1.1-1.1,1.8C81.6,13.2,81.5,13.4,81.3,13.7z M88.4,16.5c0.3-0.1,0.5-0.1,0.8-0.2
	c0.4-0.1,0.8-0.2,1.2-0.2c0.7-0.1,1.5,0.1,2.2,0.1c0.1,0,0.3,0,0.4,0c0.7,0.2,1.4,0.3,2.1,0.6c0.1,0,0.2,0.1,0.3,0.1c0,0,0,0,0,0.1
	c-2.3-0.5-4.7-0.6-7-0.5C88.4,16.5,88.4,16.5,88.4,16.5z M95.6,21.4c-1.7-0.6-3.3-1.3-4.9-2C92.5,19.6,94.3,20.1,95.6,21.4z
	 M91.1,20.1c1.1,0.5,2.2,0.9,3.4,1.4c0.5,0.2,1,0.4,1.5,0.6c0.1,0.1,0.2,0.1,0.4,0.2c0,0,0,0,0,0.1c-0.1,0-0.2,0-0.3,0
	c-0.8-0.1-1.6-0.1-2.4-0.2c-0.7-0.1-1.4-0.1-2-0.3c-0.6-0.1-1.1-0.3-1.6-0.6c-0.4-0.2-0.8-0.4-1.2-0.6c-0.5-0.2-1-0.6-1.5-0.9
	c-0.4-0.2-0.7-0.5-1.1-0.7L86,18.7c0.1,0,0.1,0,0.2,0c0.5,0.1,1,0.2,1.4,0.3c0.9,0.1,1.7,0.4,2.5,0.7C90.5,19.8,90.8,19.9,91.1,20.1
	z M88,17.6c-0.6,0-1.1,0.1-1.7,0.1c-0.4,0-0.8-0.1-1.2-0.1c0,0-0.1-0.1-0.2-0.1c0.6-0.1,1.1-0.2,1.6-0.3c0.9-0.1,1.8-0.2,2.7-0.2
	c0.1,0,0.2,0,0.3,0c0.1,0,0.2,0,0.3,0c0.5-0.1,1.1-0.1,1.6-0.1c1,0,3.4,0.5,3.6,0.5c1.2,0.2,2.3,0.7,3.4,1.3c0.1,0.1,0,0.2-0.1,0.2
	c-1-0.6-2.1-1.1-3.3-1.3c-0.2,0-0.4,0-0.6-0.1c0,0,0,0,0,0c-0.4,0-0.9,0-1.3,0c-0.3,0-0.5-0.1-0.8-0.1c-0.1,0-0.1,0-0.2,0
	c-0.2,0-0.4,0-0.6,0C90.3,17.4,89.2,17.5,88,17.6z"/>
</svg>
