<?xml version="1.0" encoding="utf-8"?>
<!-- Generator: Adobe Illustrator 22.1.0, SVG Export Plug-In . SVG Version: 6.00 Build 0)  -->
<svg version="1.1" id="Слой_1" xmlns="http://www.w3.org/2000/svg" xmlns:xlink="http://www.w3.org/1999/xlink" x="0px" y="0px"
	 viewBox="0 0 24 24" style="enable-background:new 0 0 24 24;" xml:space="preserve">
<g>
	<path d="M11.8,3c-0.5,0-0.9,0.4-0.9,0.9c0,0.5,0.4,0.9,0.9,0.9c0.5,0,0.9-0.4,0.9-0.9C12.7,3.4,12.3,3,11.8,3z"/>
	<path d="M11.8,0C8.9,0,6.5,2.6,6.5,5.9v6.8c0,3.3,2.4,5.9,5.3,5.9s5.3-2.6,5.3-5.9V5.9C17.2,2.6,14.8,0,11.8,0z M16.1,12.7
		c0,2.7-1.9,4.9-4.3,4.9c-2.4,0-4.3-2.2-4.3-4.9V5.9C7.5,3.2,9.4,1,11.8,1s4.3,2.2,4.3,4.9V12.7z"/>
</g>
<path d="M14.5,21.6l-2.3,2.3c-0.2,0.2-0.5,0.2-0.7,0l-2.3-2.3c-0.2-0.2-0.2-0.5,0-0.7c0.2-0.2,0.5-0.2,0.7,0l2,2l2-2
	c0.2-0.2,0.5-0.2,0.7,0C14.6,21,14.8,21.3,14.5,21.6z"/>
</svg>
