<?xml version="1.0" encoding="utf-8"?>
<!-- Generator: Adobe Illustrator 22.1.0, SVG Export Plug-In . SVG Version: 6.00 Build 0)  -->
<svg version="1.1" id="Слой_1" xmlns="http://www.w3.org/2000/svg" xmlns:xlink="http://www.w3.org/1999/xlink" x="0px" y="0px"
	 viewBox="0 0 24 24" style="enable-background:new 0 0 24 24;" xml:space="preserve">
<g>
	<g>
		<path d="M18.6,6.2h-0.5V3.6c0-0.3-0.2-0.5-0.5-0.5h-4.5c-0.3,0-0.5,0.2-0.5,0.5v0.6h-1.3V3.6c0-0.3-0.2-0.5-0.5-0.5H9.1V0.5
			C9.1,0.2,8.9,0,8.7,0H6.4C6.1,0,5.9,0.2,5.9,0.5v5.7H5.5C5.2,6.2,5,6.4,5,6.7v16.9C5,23.8,5.2,24,5.5,24h13.1
			c0.3,0,0.5-0.2,0.5-0.5V6.7C19.1,6.4,18.9,6.2,18.6,6.2z M15.9,4h1.3v2.2h-0.5h-0.8V4z M13.6,4h1.3v2.2h-1.3V4z M11.4,5.1h1.3v1.1
			h-1.3V5.1z M9.1,4h1.3v2.2H9.1V4z M16.2,7.1c-0.2,0.5-0.7,0.9-1.3,0.9H9.2c-0.6,0-1.1-0.4-1.3-0.9H16.2z M6.9,0.9h1.3v5.3H6.9V0.9
			z M18.1,23.1H5.9v-7.3l6.1-3.5l6.1,3.5V23.1z M18.1,14.7l-5.9-3.4c0,0,0,0,0,0c0,0,0,0,0,0c0,0,0,0,0,0c0,0,0,0,0,0c0,0,0,0,0,0
			c0,0,0,0,0,0c0,0,0,0,0,0c0,0,0,0,0,0c0,0,0,0,0,0c0,0,0,0,0,0c0,0,0,0,0,0c0,0,0,0,0,0c0,0,0,0,0,0c0,0,0,0,0,0c0,0,0,0,0,0
			c0,0,0,0,0,0c0,0,0,0,0,0c0,0,0,0,0,0c0,0,0,0,0,0c0,0,0,0,0,0c0,0,0,0,0,0c0,0,0,0,0,0l-5.9,3.4V7.1h1C7.1,8.2,8.1,9,9.2,9h5.6
			c1.1,0,2.1-0.8,2.3-1.9h1L18.1,14.7L18.1,14.7z"/>
	</g>
</g>
<g>
	<g>
		<path d="M10.4,21.2L10.4,21.2c-0.3,0-0.5,0.2-0.5,0.5s0.2,0.5,0.5,0.5h0c0.3,0,0.5-0.2,0.5-0.5C10.9,21.4,10.7,21.2,10.4,21.2z"/>
	</g>
</g>
<g>
	<g>
		<path d="M13.7,21.2h-1.9c-0.3,0-0.5,0.2-0.5,0.5s0.2,0.5,0.5,0.5h1.9c0.3,0,0.5-0.2,0.5-0.5S13.9,21.2,13.7,21.2z"/>
	</g>
</g>
</svg>
