<?xml version="1.0" encoding="utf-8"?>
<!-- Generator: Adobe Illustrator 22.1.0, SVG Export Plug-In . SVG Version: 6.00 Build 0)  -->
<svg version="1.1" id="Слой_1" xmlns="http://www.w3.org/2000/svg" xmlns:xlink="http://www.w3.org/1999/xlink" x="0px" y="0px"
	 viewBox="0 0 25 34" style="enable-background:new 0 0 25 34;" xml:space="preserve">
<g>
	<path d="M12.5,0C5.6,0,0,5.6,0,12.5c0,1.8,0.4,3.5,1.1,5.1c3.1,6.8,9.1,14.1,10.9,16.1c0.1,0.2,0.3,0.2,0.5,0.2
		c0.2,0,0.4-0.1,0.5-0.2c1.8-2.1,7.8-9.3,10.9-16.1c0.7-1.6,1.1-3.3,1.1-5.1C25,5.6,19.4,0,12.5,0z M12.5,19C8.9,19,6,16.1,6,12.5
		C6,8.9,8.9,6,12.5,6S19,8.9,19,12.5C19,16.1,16.1,19,12.5,19z"/>
</g>
</svg>
