<?xml version="1.0" encoding="utf-8"?>
<!-- Generator: Adobe Illustrator 22.1.0, SVG Export Plug-In . SVG Version: 6.00 Build 0)  -->
<svg version="1.1" id="Слой_1" xmlns="http://www.w3.org/2000/svg" xmlns:xlink="http://www.w3.org/1999/xlink" x="0px" y="0px"
	 viewBox="0 0 24 24" style="enable-background:new 0 0 24 24;" xml:space="preserve">
<g id="surface1">
	<path d="M11.9,23.6c0.8,0.2,1.6,0.4,2.4,0.4c1.6,0,3.2-0.4,4.6-1.3l0,0l0,0l0-0.1l0,0c0,0,0-0.1,0.1-0.2c0,0,0,0,0,0c0,0,0,0,0-0.1
		c-0.1-1.7-0.5-3.3-1.3-4.7c2-2,2.9-4.2,2.9-6.7c-0.2-5.7-5.7-10.6-6-10.8c-0.2-0.2-0.5-0.2-0.7,0c0,0,0,0.1-0.1,0.1
		c-2.8,5.2-3.6,9.6-2.3,13c-2.7-0.6-5.5-0.7-8.2-0.2c-0.3,0-0.4,0.3-0.4,0.6c0,0,0,0.1,0,0.1C5.4,19.2,8.4,22.6,11.9,23.6z
		 M14.5,1.2c1.3,1.3,5.1,5.3,5.2,9.7c0.1,2.1-0.8,4.1-2.5,5.9l-0.1-0.1l-0.3-2.4l1.7-2.3c0.2-0.2,0.1-0.5-0.1-0.7
		c-0.2-0.2-0.5-0.1-0.7,0.1l-1.1,1.5L16.3,11L18,8.7c0.2-0.2,0.1-0.5-0.1-0.7c-0.2-0.2-0.5-0.1-0.7,0.1h0l-1.1,1.5l-0.7-4.6
		c0-0.3-0.3-0.4-0.5-0.4c-0.3,0-0.4,0.3-0.4,0.5l0.7,4.5l-1.4-1.1c-0.2-0.2-0.5-0.1-0.7,0.1S13,9.2,13.2,9.4l2.2,1.7l0.3,1.9
		l-1.4-1.1c-0.2-0.2-0.5-0.1-0.7,0.1c-0.2,0.2-0.1,0.5,0.1,0.7l2.1,1.7l0.2,1.1c-0.1-0.1-0.2-0.2-0.4-0.3c-0.9-0.7-1.8-1.2-2.9-1.5
		C11.2,10.5,11.8,6.3,14.5,1.2z M15.1,15.9c1.7,1.3,2.6,3.2,3,5.6l-2.2-1.3l-0.7-2.7c-0.1-0.3-0.4-0.4-0.6-0.3
		c-0.2,0.1-0.4,0.3-0.3,0.5l0.5,1.8l-1.7-1l-0.7-2.7c-0.1-0.3-0.3-0.4-0.6-0.4c-0.3,0.1-0.4,0.3-0.4,0.6c0,0,0,0,0,0.1l0.5,1.8
		l-4-2.3c-0.2-0.1-0.5,0-0.6,0.2c-0.1,0.2,0,0.5,0.2,0.6l3.9,2.3L9.6,19c-0.3,0-0.5,0.3-0.4,0.5c0,0.3,0.3,0.5,0.5,0.4h0.1l2.7-0.6
		l1.7,1l-1.7,0.4c-0.3,0-0.5,0.3-0.4,0.5c0,0.3,0.3,0.5,0.5,0.4h0.1l2.7-0.6l2.3,1.3c-1.7,0.8-3.6,1-5.4,0.4c-3.1-1-5.9-3.9-8-8.9
		C6,13.6,11.6,13.1,15.1,15.9z"/>
</g>
</svg>
