<?xml version="1.0" encoding="utf-8"?>
<!-- Generator: Adobe Illustrator 22.1.0, SVG Export Plug-In . SVG Version: 6.00 Build 0)  -->
<svg version="1.1" id="Слой_1" xmlns="http://www.w3.org/2000/svg" xmlns:xlink="http://www.w3.org/1999/xlink" x="0px" y="0px"
	 viewBox="0 0 24 24" style="enable-background:new 0 0 24 24;" xml:space="preserve">
<g>
	<g>
		<g>
			<path d="M19,3.1h-2.2v-1c0-0.3-0.3-0.5-0.7-0.5h-1.7C14,0.6,13,0,11.9,0c-1.1,0-2.2,0.7-2.5,1.7H7.7c-0.3,0-0.6,0.1-0.6,0.5v1
				H4.9c-1.3,0-2.3,1-2.4,2.3v16.4c0,1.3,1.1,2.2,2.4,2.2H19c1.3,0,2.4-0.9,2.4-2.2V5.5C21.3,4.2,20.2,3.2,19,3.1z M8.2,2.9h1.6
				c0.3,0,0.5-0.2,0.5-0.5c0.2-0.7,0.8-1.3,1.6-1.3c0.7,0,1.4,0.6,1.5,1.3c0.1,0.3,0.3,0.5,0.6,0.5h1.6v2.3H8.2V2.9z M20.2,21.8
				c0,0.6-0.6,1-1.3,1H4.9c-0.6,0-1.3-0.4-1.3-1V5.5c0.1-0.7,0.6-1.2,1.3-1.2h2.2v1.5c0,0.3,0.3,0.6,0.6,0.5h8.4
				c0.3,0,0.6-0.2,0.7-0.5V4.3H19c0.7,0,1.2,0.5,1.3,1.2L20.2,21.8L20.2,21.8z"/>
			<path d="M9.7,12.8c-0.2-0.2-0.6-0.2-0.8,0l-1.8,1.7l-0.8-0.8c-0.2-0.2-0.6-0.2-0.8,0c-0.2,0.2-0.2,0.6,0,0.8l1.2,1.2
				c0.1,0.1,0.2,0.2,0.4,0.2c0.2,0,0.3-0.1,0.4-0.2l2.2-2.1C9.9,13.4,10,13,9.7,12.8C9.8,12.8,9.7,12.8,9.7,12.8z"/>
			<path d="M17.9,14h-6.6c-0.3,0-0.6,0.3-0.6,0.6c0,0.3,0.3,0.6,0.6,0.6h6.6c0.3,0,0.6-0.3,0.6-0.6C18.5,14.3,18.2,14,17.9,14z"/>
			<path d="M9.7,8.2C9.5,8,9.2,8,8.9,8.2L7.1,9.9L6.3,9.1c-0.2-0.2-0.6-0.2-0.8,0c-0.2,0.2-0.2,0.6,0,0.8l1.2,1.2
				c0.1,0.1,0.2,0.2,0.4,0.2c0.2,0,0.3-0.1,0.4-0.2L9.7,9C9.9,8.8,10,8.5,9.7,8.2C9.8,8.2,9.7,8.2,9.7,8.2z"/>
			<path d="M17.9,9.4h-6.6c-0.3,0-0.6,0.3-0.6,0.6c0,0.3,0.3,0.6,0.6,0.6h6.6c0.3,0,0.6-0.3,0.6-0.6C18.5,9.7,18.2,9.4,17.9,9.4z"/>
			<path d="M9.7,17.3c-0.2-0.2-0.6-0.2-0.8,0l-1.8,1.7l-0.8-0.8c-0.2-0.2-0.6-0.2-0.8,0c-0.2,0.2-0.2,0.6,0,0.8l1.2,1.2
				c0.1,0.1,0.2,0.2,0.4,0.2c0.2,0,0.3-0.1,0.4-0.2l2.2-2.1C9.9,17.9,10,17.6,9.7,17.3C9.8,17.4,9.7,17.4,9.7,17.3z"/>
			<path d="M17.9,18.6h-6.6c-0.3,0-0.6,0.3-0.6,0.6s0.3,0.6,0.6,0.6h6.6c0.3,0,0.6-0.3,0.6-0.6S18.2,18.6,17.9,18.6z"/>
		</g>
	</g>
</g>
</svg>
