<?xml version="1.0" encoding="utf-8"?>
<!-- Generator: Adobe Illustrator 22.1.0, SVG Export Plug-In . SVG Version: 6.00 Build 0)  -->
<svg version="1.1" id="Слой_1" xmlns="http://www.w3.org/2000/svg" xmlns:xlink="http://www.w3.org/1999/xlink" x="0px" y="0px"
	 viewBox="0 0 24 24" style="enable-background:new 0 0 24 24;" xml:space="preserve">
<path d="M20.6,24c-0.1,0-0.2,0-0.3,0c-3.5-0.4-7-1.6-9.9-3.5c-2.8-1.7-5.1-4.1-6.9-6.9c-1.9-3-3.1-6.4-3.5-10
	c-0.1-0.9,0.2-1.7,0.7-2.4C1.3,0.5,2.1,0.1,3,0c0.1,0,0.2,0,0.3,0h3.3c0,0,0,0,0,0c1.6,0,3,1.2,3.2,2.8c0.1,1,0.4,1.9,0.7,2.8
	c0.4,1.2,0.2,2.6-0.7,3.5L9,9.9c1.3,2,3,3.7,5,5l0.8-0.8c0.9-0.9,2.3-1.2,3.5-0.7c0.9,0.3,1.9,0.6,2.8,0.7c1.7,0.2,2.9,1.7,2.8,3.3
	v3.3c0,0.9-0.3,1.7-1,2.3C22.4,23.7,21.6,24,20.6,24C20.7,24,20.7,24,20.6,24z M6.6,2.2C6.6,2.2,6.6,2.2,6.6,2.2H3.3
	c-0.4,0-0.7,0.2-0.8,0.4C2.3,2.8,2.2,3.1,2.2,3.4c0.3,3.2,1.4,6.3,3.2,9c1.6,2.5,3.7,4.7,6.2,6.2c2.7,1.7,5.8,2.9,9,3.2
	c0.4,0,0.6-0.1,0.9-0.3c0.2-0.2,0.3-0.5,0.3-0.8v-3.3c0,0,0,0,0,0c0-0.6-0.4-1-0.9-1.1c-1.1-0.1-2.2-0.4-3.3-0.8
	c-0.4-0.2-0.9-0.1-1.2,0.2L15,17.1c-0.3,0.3-0.9,0.4-1.3,0.2c-2.9-1.7-5.3-4.1-7-7C6.4,9.9,6.5,9.3,6.9,9l1.4-1.4
	c0.3-0.3,0.4-0.8,0.2-1.2C8.1,5.4,7.8,4.3,7.7,3.1C7.6,2.6,7.1,2.2,6.6,2.2z"/>
</svg>
